G04 #@! TF.FileFunction,Legend,Top*
%FSLAX46Y46*%
G04 Gerber Fmt 4.6, Leading zero omitted, Abs format (unit mm)*
G04 Created by KiCad (PCBNEW 4.0.6) date 11/06/17 12:40:06*
%MOMM*%
%LPD*%
G01*
G04 APERTURE LIST*
%ADD10C,0.100000*%
%ADD11C,0.200000*%
%ADD12C,0.500000*%
%ADD13C,0.150000*%
%ADD14C,0.152400*%
%ADD15C,0.120000*%
%ADD16C,0.203200*%
G04 APERTURE END LIST*
D10*
D11*
X79451200Y-35661600D02*
X79133700Y-35661600D01*
X79451200Y-32296100D02*
X79451200Y-35661600D01*
X62941200Y-35661600D02*
X79260700Y-35661600D01*
X62941200Y-35407600D02*
X62941200Y-35661600D01*
X62941200Y-32232600D02*
X62941200Y-35407600D01*
X79451200Y-32232600D02*
X62941200Y-32232600D01*
X64015247Y-32745505D02*
X64472390Y-32745505D01*
X64243819Y-33545505D02*
X64243819Y-32745505D01*
X64700962Y-33507410D02*
X64815248Y-33545505D01*
X65005724Y-33545505D01*
X65081914Y-33507410D01*
X65120010Y-33469314D01*
X65158105Y-33393124D01*
X65158105Y-33316933D01*
X65120010Y-33240743D01*
X65081914Y-33202648D01*
X65005724Y-33164552D01*
X64853343Y-33126457D01*
X64777152Y-33088362D01*
X64739057Y-33050267D01*
X64700962Y-32974076D01*
X64700962Y-32897886D01*
X64739057Y-32821695D01*
X64777152Y-32783600D01*
X64853343Y-32745505D01*
X65043819Y-32745505D01*
X65158105Y-32783600D01*
X65500962Y-33545505D02*
X65500962Y-32745505D01*
X65500962Y-33126457D02*
X65958105Y-33126457D01*
X65958105Y-33545505D02*
X65958105Y-32745505D01*
X66339057Y-33240743D02*
X66948581Y-33240743D01*
X67291438Y-33316933D02*
X67672390Y-33316933D01*
X67215247Y-33545505D02*
X67481914Y-32745505D01*
X67748581Y-33545505D01*
X68015247Y-33545505D02*
X68015247Y-32745505D01*
X68320009Y-32745505D01*
X68396200Y-32783600D01*
X68434295Y-32821695D01*
X68472390Y-32897886D01*
X68472390Y-33012171D01*
X68434295Y-33088362D01*
X68396200Y-33126457D01*
X68320009Y-33164552D01*
X68015247Y-33164552D01*
X68815247Y-33240743D02*
X69424771Y-33240743D01*
X69767628Y-33507410D02*
X69881914Y-33545505D01*
X70072390Y-33545505D01*
X70148580Y-33507410D01*
X70186676Y-33469314D01*
X70224771Y-33393124D01*
X70224771Y-33316933D01*
X70186676Y-33240743D01*
X70148580Y-33202648D01*
X70072390Y-33164552D01*
X69920009Y-33126457D01*
X69843818Y-33088362D01*
X69805723Y-33050267D01*
X69767628Y-32974076D01*
X69767628Y-32897886D01*
X69805723Y-32821695D01*
X69843818Y-32783600D01*
X69920009Y-32745505D01*
X70110485Y-32745505D01*
X70224771Y-32783600D01*
X70491438Y-32745505D02*
X70681914Y-33545505D01*
X70834295Y-32974076D01*
X70986676Y-33545505D01*
X71177152Y-32745505D01*
X71634295Y-32745505D02*
X71710486Y-32745505D01*
X71786676Y-32783600D01*
X71824771Y-32821695D01*
X71862867Y-32897886D01*
X71900962Y-33050267D01*
X71900962Y-33240743D01*
X71862867Y-33393124D01*
X71824771Y-33469314D01*
X71786676Y-33507410D01*
X71710486Y-33545505D01*
X71634295Y-33545505D01*
X71558105Y-33507410D01*
X71520009Y-33469314D01*
X71481914Y-33393124D01*
X71443819Y-33240743D01*
X71443819Y-33050267D01*
X71481914Y-32897886D01*
X71520009Y-32821695D01*
X71558105Y-32783600D01*
X71634295Y-32745505D01*
X72662867Y-33545505D02*
X72205724Y-33545505D01*
X72434295Y-33545505D02*
X72434295Y-32745505D01*
X72358105Y-32859790D01*
X72281914Y-32935981D01*
X72205724Y-32974076D01*
X73005724Y-33240743D02*
X73615248Y-33240743D01*
X74148581Y-32745505D02*
X74224772Y-32745505D01*
X74300962Y-32783600D01*
X74339057Y-32821695D01*
X74377153Y-32897886D01*
X74415248Y-33050267D01*
X74415248Y-33240743D01*
X74377153Y-33393124D01*
X74339057Y-33469314D01*
X74300962Y-33507410D01*
X74224772Y-33545505D01*
X74148581Y-33545505D01*
X74072391Y-33507410D01*
X74034295Y-33469314D01*
X73996200Y-33393124D01*
X73958105Y-33240743D01*
X73958105Y-33050267D01*
X73996200Y-32897886D01*
X74034295Y-32821695D01*
X74072391Y-32783600D01*
X74148581Y-32745505D01*
X75177153Y-33545505D02*
X74720010Y-33545505D01*
X74948581Y-33545505D02*
X74948581Y-32745505D01*
X74872391Y-32859790D01*
X74796200Y-32935981D01*
X74720010Y-32974076D01*
X76053344Y-33012171D02*
X76243820Y-33545505D01*
X76434296Y-33012171D01*
X76891439Y-32745505D02*
X76967630Y-32745505D01*
X77043820Y-32783600D01*
X77081915Y-32821695D01*
X77120011Y-32897886D01*
X77158106Y-33050267D01*
X77158106Y-33240743D01*
X77120011Y-33393124D01*
X77081915Y-33469314D01*
X77043820Y-33507410D01*
X76967630Y-33545505D01*
X76891439Y-33545505D01*
X76815249Y-33507410D01*
X76777153Y-33469314D01*
X76739058Y-33393124D01*
X76700963Y-33240743D01*
X76700963Y-33050267D01*
X76739058Y-32897886D01*
X76777153Y-32821695D01*
X76815249Y-32783600D01*
X76891439Y-32745505D01*
X77500963Y-33469314D02*
X77539058Y-33507410D01*
X77500963Y-33545505D01*
X77462868Y-33507410D01*
X77500963Y-33469314D01*
X77500963Y-33545505D01*
X78300963Y-33545505D02*
X77843820Y-33545505D01*
X78072391Y-33545505D02*
X78072391Y-32745505D01*
X77996201Y-32859790D01*
X77920010Y-32935981D01*
X77843820Y-32974076D01*
X63710486Y-35250267D02*
X63672390Y-35212171D01*
X63596200Y-35097886D01*
X63558105Y-35021695D01*
X63520009Y-34907410D01*
X63481914Y-34716933D01*
X63481914Y-34564552D01*
X63520009Y-34374076D01*
X63558105Y-34259790D01*
X63596200Y-34183600D01*
X63672390Y-34069314D01*
X63710486Y-34031219D01*
X64358104Y-34907410D02*
X64281914Y-34945505D01*
X64129533Y-34945505D01*
X64053342Y-34907410D01*
X64015247Y-34869314D01*
X63977152Y-34793124D01*
X63977152Y-34564552D01*
X64015247Y-34488362D01*
X64053342Y-34450267D01*
X64129533Y-34412171D01*
X64281914Y-34412171D01*
X64358104Y-34450267D01*
X64624771Y-35250267D02*
X64662866Y-35212171D01*
X64739056Y-35097886D01*
X64777152Y-35021695D01*
X64815247Y-34907410D01*
X64853342Y-34716933D01*
X64853342Y-34564552D01*
X64815247Y-34374076D01*
X64777152Y-34259790D01*
X64739056Y-34183600D01*
X64662866Y-34069314D01*
X64624771Y-34031219D01*
X66110485Y-34526457D02*
X66224771Y-34564552D01*
X66262866Y-34602648D01*
X66300961Y-34678838D01*
X66300961Y-34793124D01*
X66262866Y-34869314D01*
X66224771Y-34907410D01*
X66148580Y-34945505D01*
X65843818Y-34945505D01*
X65843818Y-34145505D01*
X66110485Y-34145505D01*
X66186675Y-34183600D01*
X66224771Y-34221695D01*
X66262866Y-34297886D01*
X66262866Y-34374076D01*
X66224771Y-34450267D01*
X66186675Y-34488362D01*
X66110485Y-34526457D01*
X65843818Y-34526457D01*
X66948580Y-34907410D02*
X66872390Y-34945505D01*
X66720009Y-34945505D01*
X66643818Y-34907410D01*
X66605723Y-34831219D01*
X66605723Y-34526457D01*
X66643818Y-34450267D01*
X66720009Y-34412171D01*
X66872390Y-34412171D01*
X66948580Y-34450267D01*
X66986675Y-34526457D01*
X66986675Y-34602648D01*
X66605723Y-34678838D01*
X67329532Y-34412171D02*
X67329532Y-34945505D01*
X67329532Y-34488362D02*
X67367627Y-34450267D01*
X67443818Y-34412171D01*
X67558104Y-34412171D01*
X67634294Y-34450267D01*
X67672389Y-34526457D01*
X67672389Y-34945505D01*
X68053342Y-34412171D02*
X68053342Y-35097886D01*
X68015247Y-35174076D01*
X67939056Y-35212171D01*
X67900961Y-35212171D01*
X68053342Y-34145505D02*
X68015247Y-34183600D01*
X68053342Y-34221695D01*
X68091437Y-34183600D01*
X68053342Y-34145505D01*
X68053342Y-34221695D01*
X68777151Y-34945505D02*
X68777151Y-34526457D01*
X68739056Y-34450267D01*
X68662866Y-34412171D01*
X68510485Y-34412171D01*
X68434294Y-34450267D01*
X68777151Y-34907410D02*
X68700961Y-34945505D01*
X68510485Y-34945505D01*
X68434294Y-34907410D01*
X68396199Y-34831219D01*
X68396199Y-34755029D01*
X68434294Y-34678838D01*
X68510485Y-34640743D01*
X68700961Y-34640743D01*
X68777151Y-34602648D01*
X69158104Y-34945505D02*
X69158104Y-34412171D01*
X69158104Y-34488362D02*
X69196199Y-34450267D01*
X69272390Y-34412171D01*
X69386676Y-34412171D01*
X69462866Y-34450267D01*
X69500961Y-34526457D01*
X69500961Y-34945505D01*
X69500961Y-34526457D02*
X69539057Y-34450267D01*
X69615247Y-34412171D01*
X69729533Y-34412171D01*
X69805723Y-34450267D01*
X69843818Y-34526457D01*
X69843818Y-34945505D01*
X70224771Y-34945505D02*
X70224771Y-34412171D01*
X70224771Y-34145505D02*
X70186676Y-34183600D01*
X70224771Y-34221695D01*
X70262866Y-34183600D01*
X70224771Y-34145505D01*
X70224771Y-34221695D01*
X70605723Y-34412171D02*
X70605723Y-34945505D01*
X70605723Y-34488362D02*
X70643818Y-34450267D01*
X70720009Y-34412171D01*
X70834295Y-34412171D01*
X70910485Y-34450267D01*
X70948580Y-34526457D01*
X70948580Y-34945505D01*
X71900962Y-34716933D02*
X72281914Y-34716933D01*
X71824771Y-34945505D02*
X72091438Y-34145505D01*
X72358105Y-34945505D01*
X72624771Y-34945505D02*
X72624771Y-34412171D01*
X72624771Y-34145505D02*
X72586676Y-34183600D01*
X72624771Y-34221695D01*
X72662866Y-34183600D01*
X72624771Y-34145505D01*
X72624771Y-34221695D01*
X73348580Y-34412171D02*
X73348580Y-35059790D01*
X73310485Y-35135981D01*
X73272390Y-35174076D01*
X73196199Y-35212171D01*
X73081914Y-35212171D01*
X73005723Y-35174076D01*
X73348580Y-34907410D02*
X73272390Y-34945505D01*
X73120009Y-34945505D01*
X73043818Y-34907410D01*
X73005723Y-34869314D01*
X72967628Y-34793124D01*
X72967628Y-34564552D01*
X73005723Y-34488362D01*
X73043818Y-34450267D01*
X73120009Y-34412171D01*
X73272390Y-34412171D01*
X73348580Y-34450267D01*
X73729533Y-34412171D02*
X73729533Y-34945505D01*
X73729533Y-34488362D02*
X73767628Y-34450267D01*
X73843819Y-34412171D01*
X73958105Y-34412171D01*
X74034295Y-34450267D01*
X74072390Y-34526457D01*
X74072390Y-34945505D01*
X74758105Y-34907410D02*
X74681915Y-34945505D01*
X74529534Y-34945505D01*
X74453343Y-34907410D01*
X74415248Y-34831219D01*
X74415248Y-34526457D01*
X74453343Y-34450267D01*
X74529534Y-34412171D01*
X74681915Y-34412171D01*
X74758105Y-34450267D01*
X74796200Y-34526457D01*
X74796200Y-34602648D01*
X74415248Y-34678838D01*
X75139057Y-34945505D02*
X75139057Y-34412171D01*
X75139057Y-34564552D02*
X75177152Y-34488362D01*
X75215248Y-34450267D01*
X75291438Y-34412171D01*
X75367629Y-34412171D01*
X76205724Y-34221695D02*
X76243819Y-34183600D01*
X76320010Y-34145505D01*
X76510486Y-34145505D01*
X76586676Y-34183600D01*
X76624772Y-34221695D01*
X76662867Y-34297886D01*
X76662867Y-34374076D01*
X76624772Y-34488362D01*
X76167629Y-34945505D01*
X76662867Y-34945505D01*
X77158105Y-34145505D02*
X77234296Y-34145505D01*
X77310486Y-34183600D01*
X77348581Y-34221695D01*
X77386677Y-34297886D01*
X77424772Y-34450267D01*
X77424772Y-34640743D01*
X77386677Y-34793124D01*
X77348581Y-34869314D01*
X77310486Y-34907410D01*
X77234296Y-34945505D01*
X77158105Y-34945505D01*
X77081915Y-34907410D01*
X77043819Y-34869314D01*
X77005724Y-34793124D01*
X76967629Y-34640743D01*
X76967629Y-34450267D01*
X77005724Y-34297886D01*
X77043819Y-34221695D01*
X77081915Y-34183600D01*
X77158105Y-34145505D01*
X78186677Y-34945505D02*
X77729534Y-34945505D01*
X77958105Y-34945505D02*
X77958105Y-34145505D01*
X77881915Y-34259790D01*
X77805724Y-34335981D01*
X77729534Y-34374076D01*
X78453344Y-34145505D02*
X78986677Y-34145505D01*
X78643820Y-34945505D01*
D12*
X62125181Y-65870600D02*
G75*
G03X62125181Y-65870600I-283981J0D01*
G01*
D13*
X61695200Y-46964600D02*
X61695200Y-64964600D01*
X55695200Y-64964600D02*
X81195200Y-64964600D01*
X55695200Y-46964600D02*
X81195200Y-46964600D01*
X81195200Y-46964600D02*
X81195200Y-64964600D01*
X55695200Y-46964600D02*
X55695200Y-64964600D01*
X62220419Y-33502600D02*
G75*
G03X62220419Y-33502600I-803219J0D01*
G01*
X76784200Y-40868600D02*
X80467200Y-40868600D01*
X76784200Y-35788600D02*
X80467200Y-35788600D01*
X76784200Y-40868600D02*
X75514200Y-39598600D01*
X75514200Y-39598600D02*
X75514200Y-37058600D01*
X75514200Y-37058600D02*
X76784200Y-35788600D01*
X91135200Y-34010600D02*
X92659200Y-32740600D01*
X91135200Y-42646600D02*
X92659200Y-43916600D01*
X93167200Y-38328600D02*
G75*
G03X93167200Y-38328600I-5588000J0D01*
G01*
X95131163Y-38328600D02*
G75*
G03X95131163Y-38328600I-7551963J0D01*
G01*
X69957200Y-26298600D02*
X70657200Y-26298600D01*
X70657200Y-27498600D02*
X69957200Y-27498600D01*
X69449200Y-85226600D02*
X70149200Y-85226600D01*
X70149200Y-86426600D02*
X69449200Y-86426600D01*
X87929200Y-27498600D02*
X87229200Y-27498600D01*
X87229200Y-26298600D02*
X87929200Y-26298600D01*
X87929200Y-86426600D02*
X87229200Y-86426600D01*
X87229200Y-85226600D02*
X87929200Y-85226600D01*
X60370200Y-68138600D02*
X59670200Y-68138600D01*
X59670200Y-66938600D02*
X60370200Y-66938600D01*
X60370200Y-69789600D02*
X59670200Y-69789600D01*
X59670200Y-68589600D02*
X60370200Y-68589600D01*
X59393200Y-72198600D02*
X60393200Y-72198600D01*
X60393200Y-70498600D02*
X59393200Y-70498600D01*
X86475200Y-69451600D02*
X86475200Y-70451600D01*
X88175200Y-70451600D02*
X88175200Y-69451600D01*
X89519200Y-70047600D02*
X89519200Y-69347600D01*
X90719200Y-69347600D02*
X90719200Y-70047600D01*
X93032200Y-76594600D02*
X92032200Y-76594600D01*
X92032200Y-78294600D02*
X93032200Y-78294600D01*
X95357200Y-74685600D02*
X96057200Y-74685600D01*
X96057200Y-75885600D02*
X95357200Y-75885600D01*
D14*
X105892600Y-66116200D02*
X82603340Y-66116200D01*
X82603340Y-66116200D02*
X82603340Y-46609000D01*
X82603340Y-46609000D02*
X105892600Y-46609000D01*
X105892600Y-46609000D02*
X105892600Y-66116200D01*
X80441800Y-56362600D02*
X81711800Y-56362600D01*
X81076800Y-55727600D02*
X81076800Y-56997600D01*
X84099400Y-56362600D02*
G75*
G03X103098600Y-56362600I9499600J0D01*
G01*
X103096060Y-56362600D02*
G75*
G03X84101940Y-56362600I-9497060J0D01*
G01*
D13*
X89870280Y-76192380D02*
X89870280Y-75394820D01*
X84272120Y-76192380D02*
X84272120Y-75394820D01*
X102597200Y-77271600D02*
X105137200Y-77271600D01*
X105137200Y-75493600D02*
X102597200Y-75493600D01*
X105137200Y-75493600D02*
X105137200Y-77271600D01*
X102597200Y-77271600D02*
X102597200Y-75493600D01*
X102597200Y-37271600D02*
X105137200Y-37271600D01*
X105137200Y-35493600D02*
X102597200Y-35493600D01*
X105137200Y-35493600D02*
X105137200Y-37271600D01*
X102597200Y-37271600D02*
X102597200Y-35493600D01*
X52597200Y-37271600D02*
X55137200Y-37271600D01*
X55137200Y-35493600D02*
X52597200Y-35493600D01*
X55137200Y-35493600D02*
X55137200Y-37271600D01*
X52597200Y-37271600D02*
X52597200Y-35493600D01*
X52597200Y-77271600D02*
X55137200Y-77271600D01*
X55137200Y-75493600D02*
X52597200Y-75493600D01*
X55137200Y-75493600D02*
X55137200Y-77271600D01*
X52597200Y-77271600D02*
X52597200Y-75493600D01*
X61417200Y-36677600D02*
X74117200Y-36677600D01*
X74117200Y-36677600D02*
X74117200Y-39217600D01*
X74117200Y-39217600D02*
X61417200Y-39217600D01*
X58597200Y-36397600D02*
X60147200Y-36397600D01*
X61417200Y-36677600D02*
X61417200Y-39217600D01*
X60147200Y-39497600D02*
X58597200Y-39497600D01*
X58597200Y-39497600D02*
X58597200Y-36397600D01*
D15*
X72522200Y-40997600D02*
X71592200Y-40997600D01*
X69362200Y-40997600D02*
X70292200Y-40997600D01*
X69362200Y-40997600D02*
X69362200Y-43157600D01*
X72522200Y-40997600D02*
X72522200Y-42457600D01*
X64267200Y-40997600D02*
X63337200Y-40997600D01*
X61107200Y-40997600D02*
X62037200Y-40997600D01*
X61107200Y-40997600D02*
X61107200Y-43157600D01*
X64267200Y-40997600D02*
X64267200Y-42457600D01*
D13*
X56805200Y-75595100D02*
X56805200Y-74595100D01*
X58155200Y-74595100D02*
X58155200Y-75595100D01*
X62441200Y-67562100D02*
X63441200Y-67562100D01*
X63441200Y-68912100D02*
X62441200Y-68912100D01*
X58377200Y-77214100D02*
X59377200Y-77214100D01*
X59377200Y-78564100D02*
X58377200Y-78564100D01*
X75954000Y-43902000D02*
X76954000Y-43902000D01*
X76954000Y-45252000D02*
X75954000Y-45252000D01*
X104462200Y-39257600D02*
X103462200Y-39257600D01*
X103462200Y-37907600D02*
X104462200Y-37907600D01*
X54182200Y-39257600D02*
X53182200Y-39257600D01*
X53182200Y-37907600D02*
X54182200Y-37907600D01*
X54297200Y-79897600D02*
X53297200Y-79897600D01*
X53297200Y-78547600D02*
X54297200Y-78547600D01*
X65902200Y-41257600D02*
X65902200Y-42257600D01*
X64552200Y-42257600D02*
X64552200Y-41257600D01*
X69077200Y-41257600D02*
X69077200Y-42257600D01*
X67727200Y-42257600D02*
X67727200Y-41257600D01*
X98255200Y-75118600D02*
X99255200Y-75118600D01*
X99255200Y-76468600D02*
X98255200Y-76468600D01*
X96223200Y-76388600D02*
X97223200Y-76388600D01*
X97223200Y-77738600D02*
X96223200Y-77738600D01*
X99938200Y-73134600D02*
X99938200Y-74134600D01*
X98588200Y-74134600D02*
X98588200Y-73134600D01*
X99938200Y-70479600D02*
X99938200Y-71479600D01*
X98588200Y-71479600D02*
X98588200Y-70479600D01*
X99938200Y-67304600D02*
X99938200Y-68304600D01*
X98588200Y-68304600D02*
X98588200Y-67304600D01*
X64617200Y-25882600D02*
X64617200Y-26082600D01*
X64617200Y-31882600D02*
X64617200Y-31682600D01*
X58117200Y-31882600D02*
X58117200Y-31682600D01*
X58117200Y-25882600D02*
X58117200Y-26082600D01*
X58117200Y-27682600D02*
X58117200Y-30082600D01*
X64617200Y-27682600D02*
X64617200Y-30082600D01*
X64617200Y-25882600D02*
X58117200Y-25882600D01*
X58117200Y-31882600D02*
X64617200Y-31882600D01*
X63267200Y-28882600D02*
G75*
G03X63267200Y-28882600I-1900000J0D01*
G01*
X62867200Y-28882600D02*
G75*
G03X62867200Y-28882600I-1500000J0D01*
G01*
X64617200Y-80882600D02*
X64617200Y-81082600D01*
X64617200Y-86882600D02*
X64617200Y-86682600D01*
X58117200Y-86882600D02*
X58117200Y-86682600D01*
X58117200Y-80882600D02*
X58117200Y-81082600D01*
X58117200Y-82682600D02*
X58117200Y-85082600D01*
X64617200Y-82682600D02*
X64617200Y-85082600D01*
X64617200Y-80882600D02*
X58117200Y-80882600D01*
X58117200Y-86882600D02*
X64617200Y-86882600D01*
X63267200Y-83882600D02*
G75*
G03X63267200Y-83882600I-1900000J0D01*
G01*
X62867200Y-83882600D02*
G75*
G03X62867200Y-83882600I-1500000J0D01*
G01*
X99617200Y-25882600D02*
X99617200Y-26082600D01*
X99617200Y-31882600D02*
X99617200Y-31682600D01*
X93117200Y-31882600D02*
X93117200Y-31682600D01*
X93117200Y-25882600D02*
X93117200Y-26082600D01*
X93117200Y-27682600D02*
X93117200Y-30082600D01*
X99617200Y-27682600D02*
X99617200Y-30082600D01*
X99617200Y-25882600D02*
X93117200Y-25882600D01*
X93117200Y-31882600D02*
X99617200Y-31882600D01*
X98267200Y-28882600D02*
G75*
G03X98267200Y-28882600I-1900000J0D01*
G01*
X97867200Y-28882600D02*
G75*
G03X97867200Y-28882600I-1500000J0D01*
G01*
X99617200Y-80882600D02*
X99617200Y-81082600D01*
X99617200Y-86882600D02*
X99617200Y-86682600D01*
X93117200Y-86882600D02*
X93117200Y-86682600D01*
X93117200Y-80882600D02*
X93117200Y-81082600D01*
X93117200Y-82682600D02*
X93117200Y-85082600D01*
X99617200Y-82682600D02*
X99617200Y-85082600D01*
X99617200Y-80882600D02*
X93117200Y-80882600D01*
X93117200Y-86882600D02*
X99617200Y-86882600D01*
X98267200Y-83882600D02*
G75*
G03X98267200Y-83882600I-1900000J0D01*
G01*
X97867200Y-83882600D02*
G75*
G03X97867200Y-83882600I-1500000J0D01*
G01*
X82117200Y-25882600D02*
X82117200Y-26082600D01*
X82117200Y-31882600D02*
X82117200Y-31682600D01*
X75617200Y-31882600D02*
X75617200Y-31682600D01*
X75617200Y-25882600D02*
X75617200Y-26082600D01*
X75617200Y-27682600D02*
X75617200Y-30082600D01*
X82117200Y-27682600D02*
X82117200Y-30082600D01*
X82117200Y-25882600D02*
X75617200Y-25882600D01*
X75617200Y-31882600D02*
X82117200Y-31882600D01*
X80767200Y-28882600D02*
G75*
G03X80767200Y-28882600I-1900000J0D01*
G01*
X80367200Y-28882600D02*
G75*
G03X80367200Y-28882600I-1500000J0D01*
G01*
X75617200Y-86882600D02*
X75617200Y-86682600D01*
X75617200Y-80882600D02*
X75617200Y-81082600D01*
X82117200Y-80882600D02*
X82117200Y-81082600D01*
X82117200Y-86882600D02*
X82117200Y-86682600D01*
X82117200Y-85082600D02*
X82117200Y-82682600D01*
X75617200Y-85082600D02*
X75617200Y-82682600D01*
X75617200Y-86882600D02*
X82117200Y-86882600D01*
X82117200Y-80882600D02*
X75617200Y-80882600D01*
X80767200Y-83882600D02*
G75*
G03X80767200Y-83882600I-1900000J0D01*
G01*
X80367200Y-83882600D02*
G75*
G03X80367200Y-83882600I-1500000J0D01*
G01*
X58716200Y-74531600D02*
X58716200Y-75581600D01*
X60816200Y-75581600D02*
X60816200Y-74531600D01*
X61097160Y-73870820D02*
X61097160Y-73261220D01*
X61097160Y-73261220D02*
X60665360Y-73251060D01*
X62220419Y-79222600D02*
G75*
G03X62220419Y-79222600I-803219J0D01*
G01*
X97145419Y-34137600D02*
G75*
G03X97145419Y-34137600I-803219J0D01*
G01*
X97145419Y-79222600D02*
G75*
G03X97145419Y-79222600I-803219J0D01*
G01*
X103495419Y-73507600D02*
G75*
G03X103495419Y-73507600I-803219J0D01*
G01*
X84064419Y-70840600D02*
G75*
G03X84064419Y-70840600I-803219J0D01*
G01*
X92065419Y-67157600D02*
G75*
G03X92065419Y-67157600I-803219J0D01*
G01*
X83429419Y-45440600D02*
G75*
G03X83429419Y-45440600I-803219J0D01*
G01*
X63490419Y-74777600D02*
G75*
G03X63490419Y-74777600I-803219J0D01*
G01*
X92150200Y-69462600D02*
X92925200Y-69462600D01*
X96450200Y-73762600D02*
X95675200Y-73762600D01*
X96450200Y-69462600D02*
X95675200Y-69462600D01*
X92150200Y-73762600D02*
X92150200Y-72987600D01*
X96450200Y-73762600D02*
X96450200Y-72987600D01*
X96450200Y-69462600D02*
X96450200Y-70237600D01*
X92150200Y-69462600D02*
X92150200Y-70237600D01*
X68402200Y-67538600D02*
G75*
G03X68402200Y-67538600I-127000J0D01*
G01*
X67640200Y-66903600D02*
X67640200Y-71983600D01*
X70942200Y-66903600D02*
X70942200Y-71983600D01*
X67132200Y-66903600D02*
X67132200Y-71983600D01*
X67132200Y-66903600D02*
X70942200Y-66903600D01*
X67132200Y-71983600D02*
X70942200Y-71983600D01*
X78054200Y-71348600D02*
G75*
G03X78054200Y-71348600I-127000J0D01*
G01*
X78562200Y-71983600D02*
X78562200Y-66903600D01*
X75260200Y-71983600D02*
X75260200Y-66903600D01*
X79070200Y-71983600D02*
X79070200Y-66903600D01*
X79070200Y-71983600D02*
X75260200Y-71983600D01*
X79070200Y-66903600D02*
X75260200Y-66903600D01*
X78054200Y-77571600D02*
G75*
G03X78054200Y-77571600I-127000J0D01*
G01*
X78562200Y-78206600D02*
X78562200Y-73126600D01*
X75260200Y-78206600D02*
X75260200Y-73126600D01*
X79070200Y-78206600D02*
X79070200Y-73126600D01*
X79070200Y-78206600D02*
X75260200Y-78206600D01*
X79070200Y-73126600D02*
X75260200Y-73126600D01*
X68402200Y-73761600D02*
G75*
G03X68402200Y-73761600I-127000J0D01*
G01*
X67640200Y-73126600D02*
X67640200Y-78206600D01*
X70942200Y-73126600D02*
X70942200Y-78206600D01*
X67132200Y-73126600D02*
X67132200Y-78206600D01*
X67132200Y-73126600D02*
X70942200Y-73126600D01*
X67132200Y-78206600D02*
X70942200Y-78206600D01*
X99670419Y-42382600D02*
G75*
G03X99670419Y-42382600I-803219J0D01*
G01*
X72670419Y-80382600D02*
G75*
G03X72670419Y-80382600I-803219J0D01*
G01*
X58537419Y-72872600D02*
G75*
G03X58537419Y-72872600I-803219J0D01*
G01*
D15*
X95875419Y-67157600D02*
G75*
G03X95875419Y-67157600I-803219J0D01*
G01*
D13*
X60608295Y-45302981D02*
X60608295Y-46112505D01*
X60655914Y-46207743D01*
X60703533Y-46255362D01*
X60798771Y-46302981D01*
X60989248Y-46302981D01*
X61084486Y-46255362D01*
X61132105Y-46207743D01*
X61179724Y-46112505D01*
X61179724Y-45302981D01*
X62179724Y-46302981D02*
X61608295Y-46302981D01*
X61894009Y-46302981D02*
X61894009Y-45302981D01*
X61798771Y-45445838D01*
X61703533Y-45541076D01*
X61608295Y-45588695D01*
X62762770Y-49035171D02*
X63096104Y-49035171D01*
X63238961Y-49558981D02*
X62762770Y-49558981D01*
X62762770Y-48558981D01*
X63238961Y-48558981D01*
X63619913Y-49511362D02*
X63715151Y-49558981D01*
X63905627Y-49558981D01*
X64000866Y-49511362D01*
X64048485Y-49416124D01*
X64048485Y-49368505D01*
X64000866Y-49273267D01*
X63905627Y-49225648D01*
X63762770Y-49225648D01*
X63667532Y-49178029D01*
X63619913Y-49082790D01*
X63619913Y-49035171D01*
X63667532Y-48939933D01*
X63762770Y-48892314D01*
X63905627Y-48892314D01*
X64000866Y-48939933D01*
X64477056Y-48892314D02*
X64477056Y-49892314D01*
X64477056Y-48939933D02*
X64572294Y-48892314D01*
X64762771Y-48892314D01*
X64858009Y-48939933D01*
X64905628Y-48987552D01*
X64953247Y-49082790D01*
X64953247Y-49368505D01*
X64905628Y-49463743D01*
X64858009Y-49511362D01*
X64762771Y-49558981D01*
X64572294Y-49558981D01*
X64477056Y-49511362D01*
X65381818Y-49558981D02*
X65381818Y-48892314D01*
X65381818Y-49082790D02*
X65429437Y-48987552D01*
X65477056Y-48939933D01*
X65572294Y-48892314D01*
X65667533Y-48892314D01*
X66381819Y-49511362D02*
X66286581Y-49558981D01*
X66096104Y-49558981D01*
X66000866Y-49511362D01*
X65953247Y-49416124D01*
X65953247Y-49035171D01*
X66000866Y-48939933D01*
X66096104Y-48892314D01*
X66286581Y-48892314D01*
X66381819Y-48939933D01*
X66429438Y-49035171D01*
X66429438Y-49130410D01*
X65953247Y-49225648D01*
X66810390Y-49511362D02*
X66905628Y-49558981D01*
X67096104Y-49558981D01*
X67191343Y-49511362D01*
X67238962Y-49416124D01*
X67238962Y-49368505D01*
X67191343Y-49273267D01*
X67096104Y-49225648D01*
X66953247Y-49225648D01*
X66858009Y-49178029D01*
X66810390Y-49082790D01*
X66810390Y-49035171D01*
X66858009Y-48939933D01*
X66953247Y-48892314D01*
X67096104Y-48892314D01*
X67191343Y-48939933D01*
X67619914Y-49511362D02*
X67715152Y-49558981D01*
X67905628Y-49558981D01*
X68000867Y-49511362D01*
X68048486Y-49416124D01*
X68048486Y-49368505D01*
X68000867Y-49273267D01*
X67905628Y-49225648D01*
X67762771Y-49225648D01*
X67667533Y-49178029D01*
X67619914Y-49082790D01*
X67619914Y-49035171D01*
X67667533Y-48939933D01*
X67762771Y-48892314D01*
X67905628Y-48892314D01*
X68000867Y-48939933D01*
X68477057Y-49558981D02*
X68477057Y-48892314D01*
X68477057Y-48558981D02*
X68429438Y-48606600D01*
X68477057Y-48654219D01*
X68524676Y-48606600D01*
X68477057Y-48558981D01*
X68477057Y-48654219D01*
X68810390Y-48892314D02*
X69191342Y-48892314D01*
X68953247Y-49558981D02*
X68953247Y-48701838D01*
X69000866Y-48606600D01*
X69096104Y-48558981D01*
X69191342Y-48558981D01*
X70238962Y-49511362D02*
X70381819Y-49558981D01*
X70619915Y-49558981D01*
X70715153Y-49511362D01*
X70762772Y-49463743D01*
X70810391Y-49368505D01*
X70810391Y-49273267D01*
X70762772Y-49178029D01*
X70715153Y-49130410D01*
X70619915Y-49082790D01*
X70429438Y-49035171D01*
X70334200Y-48987552D01*
X70286581Y-48939933D01*
X70238962Y-48844695D01*
X70238962Y-48749457D01*
X70286581Y-48654219D01*
X70334200Y-48606600D01*
X70429438Y-48558981D01*
X70667534Y-48558981D01*
X70810391Y-48606600D01*
X71143724Y-48892314D02*
X71381819Y-49558981D01*
X71619915Y-48892314D02*
X71381819Y-49558981D01*
X71286581Y-49797076D01*
X71238962Y-49844695D01*
X71143724Y-49892314D01*
X71953248Y-49511362D02*
X72048486Y-49558981D01*
X72238962Y-49558981D01*
X72334201Y-49511362D01*
X72381820Y-49416124D01*
X72381820Y-49368505D01*
X72334201Y-49273267D01*
X72238962Y-49225648D01*
X72096105Y-49225648D01*
X72000867Y-49178029D01*
X71953248Y-49082790D01*
X71953248Y-49035171D01*
X72000867Y-48939933D01*
X72096105Y-48892314D01*
X72238962Y-48892314D01*
X72334201Y-48939933D01*
X72667534Y-48892314D02*
X73048486Y-48892314D01*
X72810391Y-48558981D02*
X72810391Y-49416124D01*
X72858010Y-49511362D01*
X72953248Y-49558981D01*
X73048486Y-49558981D01*
X73762773Y-49511362D02*
X73667535Y-49558981D01*
X73477058Y-49558981D01*
X73381820Y-49511362D01*
X73334201Y-49416124D01*
X73334201Y-49035171D01*
X73381820Y-48939933D01*
X73477058Y-48892314D01*
X73667535Y-48892314D01*
X73762773Y-48939933D01*
X73810392Y-49035171D01*
X73810392Y-49130410D01*
X73334201Y-49225648D01*
X74238963Y-49558981D02*
X74238963Y-48892314D01*
X74238963Y-48987552D02*
X74286582Y-48939933D01*
X74381820Y-48892314D01*
X74524678Y-48892314D01*
X74619916Y-48939933D01*
X74667535Y-49035171D01*
X74667535Y-49558981D01*
X74667535Y-49035171D02*
X74715154Y-48939933D01*
X74810392Y-48892314D01*
X74953249Y-48892314D01*
X75048487Y-48939933D01*
X75096106Y-49035171D01*
X75096106Y-49558981D01*
X75524677Y-49511362D02*
X75619915Y-49558981D01*
X75810391Y-49558981D01*
X75905630Y-49511362D01*
X75953249Y-49416124D01*
X75953249Y-49368505D01*
X75905630Y-49273267D01*
X75810391Y-49225648D01*
X75667534Y-49225648D01*
X75572296Y-49178029D01*
X75524677Y-49082790D01*
X75524677Y-49035171D01*
X75572296Y-48939933D01*
X75667534Y-48892314D01*
X75810391Y-48892314D01*
X75905630Y-48939933D01*
X62738819Y-50686171D02*
X63072153Y-50686171D01*
X63215010Y-51209981D02*
X62738819Y-51209981D01*
X62738819Y-50209981D01*
X63215010Y-50209981D01*
X63595962Y-51162362D02*
X63738819Y-51209981D01*
X63976915Y-51209981D01*
X64072153Y-51162362D01*
X64119772Y-51114743D01*
X64167391Y-51019505D01*
X64167391Y-50924267D01*
X64119772Y-50829029D01*
X64072153Y-50781410D01*
X63976915Y-50733790D01*
X63786438Y-50686171D01*
X63691200Y-50638552D01*
X63643581Y-50590933D01*
X63595962Y-50495695D01*
X63595962Y-50400457D01*
X63643581Y-50305219D01*
X63691200Y-50257600D01*
X63786438Y-50209981D01*
X64024534Y-50209981D01*
X64167391Y-50257600D01*
X64595962Y-51209981D02*
X64595962Y-50209981D01*
X64976915Y-50209981D01*
X65072153Y-50257600D01*
X65119772Y-50305219D01*
X65167391Y-50400457D01*
X65167391Y-50543314D01*
X65119772Y-50638552D01*
X65072153Y-50686171D01*
X64976915Y-50733790D01*
X64595962Y-50733790D01*
X65500724Y-50209981D02*
X66119772Y-50209981D01*
X65786438Y-50590933D01*
X65929296Y-50590933D01*
X66024534Y-50638552D01*
X66072153Y-50686171D01*
X66119772Y-50781410D01*
X66119772Y-51019505D01*
X66072153Y-51114743D01*
X66024534Y-51162362D01*
X65929296Y-51209981D01*
X65643581Y-51209981D01*
X65548343Y-51162362D01*
X65500724Y-51114743D01*
X66500724Y-50305219D02*
X66548343Y-50257600D01*
X66643581Y-50209981D01*
X66881677Y-50209981D01*
X66976915Y-50257600D01*
X67024534Y-50305219D01*
X67072153Y-50400457D01*
X67072153Y-50495695D01*
X67024534Y-50638552D01*
X66453105Y-51209981D01*
X67072153Y-51209981D01*
X67500724Y-50829029D02*
X68262629Y-50829029D01*
X68643581Y-50209981D02*
X68881676Y-51209981D01*
X69072153Y-50495695D01*
X69262629Y-51209981D01*
X69500724Y-50209981D01*
X70453105Y-51209981D02*
X70119771Y-50733790D01*
X69881676Y-51209981D02*
X69881676Y-50209981D01*
X70262629Y-50209981D01*
X70357867Y-50257600D01*
X70405486Y-50305219D01*
X70453105Y-50400457D01*
X70453105Y-50543314D01*
X70405486Y-50638552D01*
X70357867Y-50686171D01*
X70262629Y-50733790D01*
X69881676Y-50733790D01*
X71072152Y-50209981D02*
X71262629Y-50209981D01*
X71357867Y-50257600D01*
X71453105Y-50352838D01*
X71500724Y-50543314D01*
X71500724Y-50876648D01*
X71453105Y-51067124D01*
X71357867Y-51162362D01*
X71262629Y-51209981D01*
X71072152Y-51209981D01*
X70976914Y-51162362D01*
X70881676Y-51067124D01*
X70834057Y-50876648D01*
X70834057Y-50543314D01*
X70881676Y-50352838D01*
X70976914Y-50257600D01*
X71072152Y-50209981D01*
X72119771Y-50209981D02*
X72310248Y-50209981D01*
X72405486Y-50257600D01*
X72500724Y-50352838D01*
X72548343Y-50543314D01*
X72548343Y-50876648D01*
X72500724Y-51067124D01*
X72405486Y-51162362D01*
X72310248Y-51209981D01*
X72119771Y-51209981D01*
X72024533Y-51162362D01*
X71929295Y-51067124D01*
X71881676Y-50876648D01*
X71881676Y-50543314D01*
X71929295Y-50352838D01*
X72024533Y-50257600D01*
X72119771Y-50209981D01*
X72976914Y-51209981D02*
X72976914Y-50209981D01*
X73310248Y-50924267D01*
X73643581Y-50209981D01*
X73643581Y-51209981D01*
X60155295Y-31687521D02*
X60726724Y-31687521D01*
X60441009Y-32687521D02*
X60441009Y-31687521D01*
X61060057Y-32687521D02*
X61060057Y-31687521D01*
X61441010Y-31687521D01*
X61536248Y-31735140D01*
X61583867Y-31782759D01*
X61631486Y-31877997D01*
X61631486Y-32020854D01*
X61583867Y-32116092D01*
X61536248Y-32163711D01*
X61441010Y-32211330D01*
X61060057Y-32211330D01*
X62583867Y-32687521D02*
X62012438Y-32687521D01*
X62298152Y-32687521D02*
X62298152Y-31687521D01*
X62202914Y-31830378D01*
X62107676Y-31925616D01*
X62012438Y-31973235D01*
X96191486Y-38003171D02*
X96334343Y-38050790D01*
X96381962Y-38098410D01*
X96429581Y-38193648D01*
X96429581Y-38336505D01*
X96381962Y-38431743D01*
X96334343Y-38479362D01*
X96239105Y-38526981D01*
X95858152Y-38526981D01*
X95858152Y-37526981D01*
X96191486Y-37526981D01*
X96286724Y-37574600D01*
X96334343Y-37622219D01*
X96381962Y-37717457D01*
X96381962Y-37812695D01*
X96334343Y-37907933D01*
X96286724Y-37955552D01*
X96191486Y-38003171D01*
X95858152Y-38003171D01*
X96715295Y-37526981D02*
X97286724Y-37526981D01*
X97001009Y-38526981D02*
X97001009Y-37526981D01*
X98143867Y-38526981D02*
X97572438Y-38526981D01*
X97858152Y-38526981D02*
X97858152Y-37526981D01*
X97762914Y-37669838D01*
X97667676Y-37765076D01*
X97572438Y-37812695D01*
X70140534Y-29160743D02*
X70092915Y-29208362D01*
X69950058Y-29255981D01*
X69854820Y-29255981D01*
X69711962Y-29208362D01*
X69616724Y-29113124D01*
X69569105Y-29017886D01*
X69521486Y-28827410D01*
X69521486Y-28684552D01*
X69569105Y-28494076D01*
X69616724Y-28398838D01*
X69711962Y-28303600D01*
X69854820Y-28255981D01*
X69950058Y-28255981D01*
X70092915Y-28303600D01*
X70140534Y-28351219D01*
X71092915Y-29255981D02*
X70521486Y-29255981D01*
X70807200Y-29255981D02*
X70807200Y-28255981D01*
X70711962Y-28398838D01*
X70616724Y-28494076D01*
X70521486Y-28541695D01*
X69632534Y-84283743D02*
X69584915Y-84331362D01*
X69442058Y-84378981D01*
X69346820Y-84378981D01*
X69203962Y-84331362D01*
X69108724Y-84236124D01*
X69061105Y-84140886D01*
X69013486Y-83950410D01*
X69013486Y-83807552D01*
X69061105Y-83617076D01*
X69108724Y-83521838D01*
X69203962Y-83426600D01*
X69346820Y-83378981D01*
X69442058Y-83378981D01*
X69584915Y-83426600D01*
X69632534Y-83474219D01*
X70013486Y-83474219D02*
X70061105Y-83426600D01*
X70156343Y-83378981D01*
X70394439Y-83378981D01*
X70489677Y-83426600D01*
X70537296Y-83474219D01*
X70584915Y-83569457D01*
X70584915Y-83664695D01*
X70537296Y-83807552D01*
X69965867Y-84378981D01*
X70584915Y-84378981D01*
X87412534Y-29155743D02*
X87364915Y-29203362D01*
X87222058Y-29250981D01*
X87126820Y-29250981D01*
X86983962Y-29203362D01*
X86888724Y-29108124D01*
X86841105Y-29012886D01*
X86793486Y-28822410D01*
X86793486Y-28679552D01*
X86841105Y-28489076D01*
X86888724Y-28393838D01*
X86983962Y-28298600D01*
X87126820Y-28250981D01*
X87222058Y-28250981D01*
X87364915Y-28298600D01*
X87412534Y-28346219D01*
X87745867Y-28250981D02*
X88364915Y-28250981D01*
X88031581Y-28631933D01*
X88174439Y-28631933D01*
X88269677Y-28679552D01*
X88317296Y-28727171D01*
X88364915Y-28822410D01*
X88364915Y-29060505D01*
X88317296Y-29155743D01*
X88269677Y-29203362D01*
X88174439Y-29250981D01*
X87888724Y-29250981D01*
X87793486Y-29203362D01*
X87745867Y-29155743D01*
X87412534Y-84151743D02*
X87364915Y-84199362D01*
X87222058Y-84246981D01*
X87126820Y-84246981D01*
X86983962Y-84199362D01*
X86888724Y-84104124D01*
X86841105Y-84008886D01*
X86793486Y-83818410D01*
X86793486Y-83675552D01*
X86841105Y-83485076D01*
X86888724Y-83389838D01*
X86983962Y-83294600D01*
X87126820Y-83246981D01*
X87222058Y-83246981D01*
X87364915Y-83294600D01*
X87412534Y-83342219D01*
X88269677Y-83580314D02*
X88269677Y-84246981D01*
X88031581Y-83199362D02*
X87793486Y-83913648D01*
X88412534Y-83913648D01*
X57440534Y-67895743D02*
X57392915Y-67943362D01*
X57250058Y-67990981D01*
X57154820Y-67990981D01*
X57011962Y-67943362D01*
X56916724Y-67848124D01*
X56869105Y-67752886D01*
X56821486Y-67562410D01*
X56821486Y-67419552D01*
X56869105Y-67229076D01*
X56916724Y-67133838D01*
X57011962Y-67038600D01*
X57154820Y-66990981D01*
X57250058Y-66990981D01*
X57392915Y-67038600D01*
X57440534Y-67086219D01*
X58345296Y-66990981D02*
X57869105Y-66990981D01*
X57821486Y-67467171D01*
X57869105Y-67419552D01*
X57964343Y-67371933D01*
X58202439Y-67371933D01*
X58297677Y-67419552D01*
X58345296Y-67467171D01*
X58392915Y-67562410D01*
X58392915Y-67800505D01*
X58345296Y-67895743D01*
X58297677Y-67943362D01*
X58202439Y-67990981D01*
X57964343Y-67990981D01*
X57869105Y-67943362D01*
X57821486Y-67895743D01*
X57440534Y-69673743D02*
X57392915Y-69721362D01*
X57250058Y-69768981D01*
X57154820Y-69768981D01*
X57011962Y-69721362D01*
X56916724Y-69626124D01*
X56869105Y-69530886D01*
X56821486Y-69340410D01*
X56821486Y-69197552D01*
X56869105Y-69007076D01*
X56916724Y-68911838D01*
X57011962Y-68816600D01*
X57154820Y-68768981D01*
X57250058Y-68768981D01*
X57392915Y-68816600D01*
X57440534Y-68864219D01*
X58297677Y-68768981D02*
X58107200Y-68768981D01*
X58011962Y-68816600D01*
X57964343Y-68864219D01*
X57869105Y-69007076D01*
X57821486Y-69197552D01*
X57821486Y-69578505D01*
X57869105Y-69673743D01*
X57916724Y-69721362D01*
X58011962Y-69768981D01*
X58202439Y-69768981D01*
X58297677Y-69721362D01*
X58345296Y-69673743D01*
X58392915Y-69578505D01*
X58392915Y-69340410D01*
X58345296Y-69245171D01*
X58297677Y-69197552D01*
X58202439Y-69149933D01*
X58011962Y-69149933D01*
X57916724Y-69197552D01*
X57869105Y-69245171D01*
X57821486Y-69340410D01*
X62520534Y-71705743D02*
X62472915Y-71753362D01*
X62330058Y-71800981D01*
X62234820Y-71800981D01*
X62091962Y-71753362D01*
X61996724Y-71658124D01*
X61949105Y-71562886D01*
X61901486Y-71372410D01*
X61901486Y-71229552D01*
X61949105Y-71039076D01*
X61996724Y-70943838D01*
X62091962Y-70848600D01*
X62234820Y-70800981D01*
X62330058Y-70800981D01*
X62472915Y-70848600D01*
X62520534Y-70896219D01*
X62853867Y-70800981D02*
X63520534Y-70800981D01*
X63091962Y-71800981D01*
X84999534Y-68530743D02*
X84951915Y-68578362D01*
X84809058Y-68625981D01*
X84713820Y-68625981D01*
X84570962Y-68578362D01*
X84475724Y-68483124D01*
X84428105Y-68387886D01*
X84380486Y-68197410D01*
X84380486Y-68054552D01*
X84428105Y-67864076D01*
X84475724Y-67768838D01*
X84570962Y-67673600D01*
X84713820Y-67625981D01*
X84809058Y-67625981D01*
X84951915Y-67673600D01*
X84999534Y-67721219D01*
X85570962Y-68054552D02*
X85475724Y-68006933D01*
X85428105Y-67959314D01*
X85380486Y-67864076D01*
X85380486Y-67816457D01*
X85428105Y-67721219D01*
X85475724Y-67673600D01*
X85570962Y-67625981D01*
X85761439Y-67625981D01*
X85856677Y-67673600D01*
X85904296Y-67721219D01*
X85951915Y-67816457D01*
X85951915Y-67864076D01*
X85904296Y-67959314D01*
X85856677Y-68006933D01*
X85761439Y-68054552D01*
X85570962Y-68054552D01*
X85475724Y-68102171D01*
X85428105Y-68149790D01*
X85380486Y-68245029D01*
X85380486Y-68435505D01*
X85428105Y-68530743D01*
X85475724Y-68578362D01*
X85570962Y-68625981D01*
X85761439Y-68625981D01*
X85856677Y-68578362D01*
X85904296Y-68530743D01*
X85951915Y-68435505D01*
X85951915Y-68245029D01*
X85904296Y-68149790D01*
X85856677Y-68102171D01*
X85761439Y-68054552D01*
X89825534Y-72467743D02*
X89777915Y-72515362D01*
X89635058Y-72562981D01*
X89539820Y-72562981D01*
X89396962Y-72515362D01*
X89301724Y-72420124D01*
X89254105Y-72324886D01*
X89206486Y-72134410D01*
X89206486Y-71991552D01*
X89254105Y-71801076D01*
X89301724Y-71705838D01*
X89396962Y-71610600D01*
X89539820Y-71562981D01*
X89635058Y-71562981D01*
X89777915Y-71610600D01*
X89825534Y-71658219D01*
X90301724Y-72562981D02*
X90492200Y-72562981D01*
X90587439Y-72515362D01*
X90635058Y-72467743D01*
X90730296Y-72324886D01*
X90777915Y-72134410D01*
X90777915Y-71753457D01*
X90730296Y-71658219D01*
X90682677Y-71610600D01*
X90587439Y-71562981D01*
X90396962Y-71562981D01*
X90301724Y-71610600D01*
X90254105Y-71658219D01*
X90206486Y-71753457D01*
X90206486Y-71991552D01*
X90254105Y-72086790D01*
X90301724Y-72134410D01*
X90396962Y-72182029D01*
X90587439Y-72182029D01*
X90682677Y-72134410D01*
X90730296Y-72086790D01*
X90777915Y-71991552D01*
X91762343Y-79833743D02*
X91714724Y-79881362D01*
X91571867Y-79928981D01*
X91476629Y-79928981D01*
X91333771Y-79881362D01*
X91238533Y-79786124D01*
X91190914Y-79690886D01*
X91143295Y-79500410D01*
X91143295Y-79357552D01*
X91190914Y-79167076D01*
X91238533Y-79071838D01*
X91333771Y-78976600D01*
X91476629Y-78928981D01*
X91571867Y-78928981D01*
X91714724Y-78976600D01*
X91762343Y-79024219D01*
X92714724Y-79928981D02*
X92143295Y-79928981D01*
X92429009Y-79928981D02*
X92429009Y-78928981D01*
X92333771Y-79071838D01*
X92238533Y-79167076D01*
X92143295Y-79214695D01*
X93333771Y-78928981D02*
X93429010Y-78928981D01*
X93524248Y-78976600D01*
X93571867Y-79024219D01*
X93619486Y-79119457D01*
X93667105Y-79309933D01*
X93667105Y-79548029D01*
X93619486Y-79738505D01*
X93571867Y-79833743D01*
X93524248Y-79881362D01*
X93429010Y-79928981D01*
X93333771Y-79928981D01*
X93238533Y-79881362D01*
X93190914Y-79833743D01*
X93143295Y-79738505D01*
X93095676Y-79548029D01*
X93095676Y-79309933D01*
X93143295Y-79119457D01*
X93190914Y-79024219D01*
X93238533Y-78976600D01*
X93333771Y-78928981D01*
X92270343Y-75515743D02*
X92222724Y-75563362D01*
X92079867Y-75610981D01*
X91984629Y-75610981D01*
X91841771Y-75563362D01*
X91746533Y-75468124D01*
X91698914Y-75372886D01*
X91651295Y-75182410D01*
X91651295Y-75039552D01*
X91698914Y-74849076D01*
X91746533Y-74753838D01*
X91841771Y-74658600D01*
X91984629Y-74610981D01*
X92079867Y-74610981D01*
X92222724Y-74658600D01*
X92270343Y-74706219D01*
X93222724Y-75610981D02*
X92651295Y-75610981D01*
X92937009Y-75610981D02*
X92937009Y-74610981D01*
X92841771Y-74753838D01*
X92746533Y-74849076D01*
X92651295Y-74896695D01*
X94175105Y-75610981D02*
X93603676Y-75610981D01*
X93889390Y-75610981D02*
X93889390Y-74610981D01*
X93794152Y-74753838D01*
X93698914Y-74849076D01*
X93603676Y-74896695D01*
D16*
X101315157Y-48978457D02*
X101215976Y-49077638D01*
X100918433Y-49176819D01*
X100720071Y-49176819D01*
X100422529Y-49077638D01*
X100224167Y-48879276D01*
X100124986Y-48680914D01*
X100025805Y-48284190D01*
X100025805Y-47986648D01*
X100124986Y-47589924D01*
X100224167Y-47391562D01*
X100422529Y-47193200D01*
X100720071Y-47094019D01*
X100918433Y-47094019D01*
X101215976Y-47193200D01*
X101315157Y-47292381D01*
X103298776Y-49176819D02*
X102108605Y-49176819D01*
X102703691Y-49176819D02*
X102703691Y-47094019D01*
X102505329Y-47391562D01*
X102306967Y-47589924D01*
X102108605Y-47689105D01*
X104092224Y-47292381D02*
X104191405Y-47193200D01*
X104389767Y-47094019D01*
X104885671Y-47094019D01*
X105084033Y-47193200D01*
X105183214Y-47292381D01*
X105282395Y-47490743D01*
X105282395Y-47689105D01*
X105183214Y-47986648D01*
X103993043Y-49176819D01*
X105282395Y-49176819D01*
X87271933Y-56481671D02*
X87605267Y-56481671D01*
X87748124Y-57005481D02*
X87271933Y-57005481D01*
X87271933Y-56005481D01*
X87748124Y-56005481D01*
X88176695Y-56481671D02*
X88510029Y-56481671D01*
X88652886Y-57005481D02*
X88176695Y-57005481D01*
X88176695Y-56005481D01*
X88652886Y-56005481D01*
X89652886Y-56910243D02*
X89605267Y-56957862D01*
X89462410Y-57005481D01*
X89367172Y-57005481D01*
X89224314Y-56957862D01*
X89129076Y-56862624D01*
X89081457Y-56767386D01*
X89033838Y-56576910D01*
X89033838Y-56434052D01*
X89081457Y-56243576D01*
X89129076Y-56148338D01*
X89224314Y-56053100D01*
X89367172Y-56005481D01*
X89462410Y-56005481D01*
X89605267Y-56053100D01*
X89652886Y-56100719D01*
X90033838Y-56957862D02*
X90176695Y-57005481D01*
X90414791Y-57005481D01*
X90510029Y-56957862D01*
X90557648Y-56910243D01*
X90605267Y-56815005D01*
X90605267Y-56719767D01*
X90557648Y-56624529D01*
X90510029Y-56576910D01*
X90414791Y-56529290D01*
X90224314Y-56481671D01*
X90129076Y-56434052D01*
X90081457Y-56386433D01*
X90033838Y-56291195D01*
X90033838Y-56195957D01*
X90081457Y-56100719D01*
X90129076Y-56053100D01*
X90224314Y-56005481D01*
X90462410Y-56005481D01*
X90605267Y-56053100D01*
X91033838Y-56624529D02*
X91795743Y-56624529D01*
X92748124Y-56005481D02*
X92271933Y-56005481D01*
X92224314Y-56481671D01*
X92271933Y-56434052D01*
X92367171Y-56386433D01*
X92605267Y-56386433D01*
X92700505Y-56434052D01*
X92748124Y-56481671D01*
X92795743Y-56576910D01*
X92795743Y-56815005D01*
X92748124Y-56910243D01*
X92700505Y-56957862D01*
X92605267Y-57005481D01*
X92367171Y-57005481D01*
X92271933Y-56957862D01*
X92224314Y-56910243D01*
X93795743Y-57005481D02*
X93462409Y-56529290D01*
X93224314Y-57005481D02*
X93224314Y-56005481D01*
X93605267Y-56005481D01*
X93700505Y-56053100D01*
X93748124Y-56100719D01*
X93795743Y-56195957D01*
X93795743Y-56338814D01*
X93748124Y-56434052D01*
X93700505Y-56481671D01*
X93605267Y-56529290D01*
X93224314Y-56529290D01*
X94700505Y-56005481D02*
X94224314Y-56005481D01*
X94176695Y-56481671D01*
X94224314Y-56434052D01*
X94319552Y-56386433D01*
X94557648Y-56386433D01*
X94652886Y-56434052D01*
X94700505Y-56481671D01*
X94748124Y-56576910D01*
X94748124Y-56815005D01*
X94700505Y-56910243D01*
X94652886Y-56957862D01*
X94557648Y-57005481D01*
X94319552Y-57005481D01*
X94224314Y-56957862D01*
X94176695Y-56910243D01*
X95176695Y-57005481D02*
X95176695Y-56005481D01*
X95176695Y-56481671D02*
X95748124Y-56481671D01*
X95748124Y-57005481D02*
X95748124Y-56005481D01*
X96748124Y-57005481D02*
X96176695Y-57005481D01*
X96462409Y-57005481D02*
X96462409Y-56005481D01*
X96367171Y-56148338D01*
X96271933Y-56243576D01*
X96176695Y-56291195D01*
X97367171Y-56005481D02*
X97462410Y-56005481D01*
X97557648Y-56053100D01*
X97605267Y-56100719D01*
X97652886Y-56195957D01*
X97700505Y-56386433D01*
X97700505Y-56624529D01*
X97652886Y-56815005D01*
X97605267Y-56910243D01*
X97557648Y-56957862D01*
X97462410Y-57005481D01*
X97367171Y-57005481D01*
X97271933Y-56957862D01*
X97224314Y-56910243D01*
X97176695Y-56815005D01*
X97129076Y-56624529D01*
X97129076Y-56386433D01*
X97176695Y-56195957D01*
X97224314Y-56100719D01*
X97271933Y-56053100D01*
X97367171Y-56005481D01*
X98605267Y-56005481D02*
X98129076Y-56005481D01*
X98081457Y-56481671D01*
X98129076Y-56434052D01*
X98224314Y-56386433D01*
X98462410Y-56386433D01*
X98557648Y-56434052D01*
X98605267Y-56481671D01*
X98652886Y-56576910D01*
X98652886Y-56815005D01*
X98605267Y-56910243D01*
X98557648Y-56957862D01*
X98462410Y-57005481D01*
X98224314Y-57005481D01*
X98129076Y-56957862D01*
X98081457Y-56910243D01*
D13*
X83777081Y-75960266D02*
X83777081Y-76436457D01*
X82777081Y-76436457D01*
X83777081Y-75103123D02*
X83777081Y-75674552D01*
X83777081Y-75388838D02*
X82777081Y-75388838D01*
X82919938Y-75484076D01*
X83015176Y-75579314D01*
X83062795Y-75674552D01*
X103097105Y-79166981D02*
X103097105Y-78166981D01*
X103478058Y-78166981D01*
X103573296Y-78214600D01*
X103620915Y-78262219D01*
X103668534Y-78357457D01*
X103668534Y-78500314D01*
X103620915Y-78595552D01*
X103573296Y-78643171D01*
X103478058Y-78690790D01*
X103097105Y-78690790D01*
X104620915Y-79166981D02*
X104049486Y-79166981D01*
X104335200Y-79166981D02*
X104335200Y-78166981D01*
X104239962Y-78309838D01*
X104144724Y-78405076D01*
X104049486Y-78452695D01*
X103129105Y-35056981D02*
X103129105Y-34056981D01*
X103510058Y-34056981D01*
X103605296Y-34104600D01*
X103652915Y-34152219D01*
X103700534Y-34247457D01*
X103700534Y-34390314D01*
X103652915Y-34485552D01*
X103605296Y-34533171D01*
X103510058Y-34580790D01*
X103129105Y-34580790D01*
X104081486Y-34152219D02*
X104129105Y-34104600D01*
X104224343Y-34056981D01*
X104462439Y-34056981D01*
X104557677Y-34104600D01*
X104605296Y-34152219D01*
X104652915Y-34247457D01*
X104652915Y-34342695D01*
X104605296Y-34485552D01*
X104033867Y-35056981D01*
X104652915Y-35056981D01*
X53129105Y-35056981D02*
X53129105Y-34056981D01*
X53510058Y-34056981D01*
X53605296Y-34104600D01*
X53652915Y-34152219D01*
X53700534Y-34247457D01*
X53700534Y-34390314D01*
X53652915Y-34485552D01*
X53605296Y-34533171D01*
X53510058Y-34580790D01*
X53129105Y-34580790D01*
X54033867Y-34056981D02*
X54652915Y-34056981D01*
X54319581Y-34437933D01*
X54462439Y-34437933D01*
X54557677Y-34485552D01*
X54605296Y-34533171D01*
X54652915Y-34628410D01*
X54652915Y-34866505D01*
X54605296Y-34961743D01*
X54557677Y-35009362D01*
X54462439Y-35056981D01*
X54176724Y-35056981D01*
X54081486Y-35009362D01*
X54033867Y-34961743D01*
X53129105Y-75056981D02*
X53129105Y-74056981D01*
X53510058Y-74056981D01*
X53605296Y-74104600D01*
X53652915Y-74152219D01*
X53700534Y-74247457D01*
X53700534Y-74390314D01*
X53652915Y-74485552D01*
X53605296Y-74533171D01*
X53510058Y-74580790D01*
X53129105Y-74580790D01*
X54557677Y-74390314D02*
X54557677Y-75056981D01*
X54319581Y-74009362D02*
X54081486Y-74723648D01*
X54700534Y-74723648D01*
X56615105Y-38399981D02*
X56615105Y-37399981D01*
X56996058Y-37399981D01*
X57091296Y-37447600D01*
X57138915Y-37495219D01*
X57186534Y-37590457D01*
X57186534Y-37733314D01*
X57138915Y-37828552D01*
X57091296Y-37876171D01*
X56996058Y-37923790D01*
X56615105Y-37923790D01*
X58091296Y-37399981D02*
X57615105Y-37399981D01*
X57567486Y-37876171D01*
X57615105Y-37828552D01*
X57710343Y-37780933D01*
X57948439Y-37780933D01*
X58043677Y-37828552D01*
X58091296Y-37876171D01*
X58138915Y-37971410D01*
X58138915Y-38209505D01*
X58091296Y-38304743D01*
X58043677Y-38352362D01*
X57948439Y-38399981D01*
X57710343Y-38399981D01*
X57615105Y-38352362D01*
X57567486Y-38304743D01*
X70719962Y-45226219D02*
X70624724Y-45178600D01*
X70529486Y-45083362D01*
X70386629Y-44940505D01*
X70291390Y-44892886D01*
X70196152Y-44892886D01*
X70243771Y-45130981D02*
X70148533Y-45083362D01*
X70053295Y-44988124D01*
X70005676Y-44797648D01*
X70005676Y-44464314D01*
X70053295Y-44273838D01*
X70148533Y-44178600D01*
X70243771Y-44130981D01*
X70434248Y-44130981D01*
X70529486Y-44178600D01*
X70624724Y-44273838D01*
X70672343Y-44464314D01*
X70672343Y-44797648D01*
X70624724Y-44988124D01*
X70529486Y-45083362D01*
X70434248Y-45130981D01*
X70243771Y-45130981D01*
X71005676Y-44130981D02*
X71624724Y-44130981D01*
X71291390Y-44511933D01*
X71434248Y-44511933D01*
X71529486Y-44559552D01*
X71577105Y-44607171D01*
X71624724Y-44702410D01*
X71624724Y-44940505D01*
X71577105Y-45035743D01*
X71529486Y-45083362D01*
X71434248Y-45130981D01*
X71148533Y-45130981D01*
X71053295Y-45083362D01*
X71005676Y-45035743D01*
X62591962Y-44972219D02*
X62496724Y-44924600D01*
X62401486Y-44829362D01*
X62258629Y-44686505D01*
X62163390Y-44638886D01*
X62068152Y-44638886D01*
X62115771Y-44876981D02*
X62020533Y-44829362D01*
X61925295Y-44734124D01*
X61877676Y-44543648D01*
X61877676Y-44210314D01*
X61925295Y-44019838D01*
X62020533Y-43924600D01*
X62115771Y-43876981D01*
X62306248Y-43876981D01*
X62401486Y-43924600D01*
X62496724Y-44019838D01*
X62544343Y-44210314D01*
X62544343Y-44543648D01*
X62496724Y-44734124D01*
X62401486Y-44829362D01*
X62306248Y-44876981D01*
X62115771Y-44876981D01*
X63401486Y-44210314D02*
X63401486Y-44876981D01*
X63163390Y-43829362D02*
X62925295Y-44543648D01*
X63544343Y-44543648D01*
X56424534Y-77388981D02*
X56091200Y-76912790D01*
X55853105Y-77388981D02*
X55853105Y-76388981D01*
X56234058Y-76388981D01*
X56329296Y-76436600D01*
X56376915Y-76484219D01*
X56424534Y-76579457D01*
X56424534Y-76722314D01*
X56376915Y-76817552D01*
X56329296Y-76865171D01*
X56234058Y-76912790D01*
X55853105Y-76912790D01*
X57376915Y-77388981D02*
X56805486Y-77388981D01*
X57091200Y-77388981D02*
X57091200Y-76388981D01*
X56995962Y-76531838D01*
X56900724Y-76627076D01*
X56805486Y-76674695D01*
X64425534Y-70086481D02*
X64092200Y-69610290D01*
X63854105Y-70086481D02*
X63854105Y-69086481D01*
X64235058Y-69086481D01*
X64330296Y-69134100D01*
X64377915Y-69181719D01*
X64425534Y-69276957D01*
X64425534Y-69419814D01*
X64377915Y-69515052D01*
X64330296Y-69562671D01*
X64235058Y-69610290D01*
X63854105Y-69610290D01*
X64806486Y-69181719D02*
X64854105Y-69134100D01*
X64949343Y-69086481D01*
X65187439Y-69086481D01*
X65282677Y-69134100D01*
X65330296Y-69181719D01*
X65377915Y-69276957D01*
X65377915Y-69372195D01*
X65330296Y-69515052D01*
X64758867Y-70086481D01*
X65377915Y-70086481D01*
X58710534Y-79928981D02*
X58377200Y-79452790D01*
X58139105Y-79928981D02*
X58139105Y-78928981D01*
X58520058Y-78928981D01*
X58615296Y-78976600D01*
X58662915Y-79024219D01*
X58710534Y-79119457D01*
X58710534Y-79262314D01*
X58662915Y-79357552D01*
X58615296Y-79405171D01*
X58520058Y-79452790D01*
X58139105Y-79452790D01*
X59043867Y-78928981D02*
X59662915Y-78928981D01*
X59329581Y-79309933D01*
X59472439Y-79309933D01*
X59567677Y-79357552D01*
X59615296Y-79405171D01*
X59662915Y-79500410D01*
X59662915Y-79738505D01*
X59615296Y-79833743D01*
X59567677Y-79881362D01*
X59472439Y-79928981D01*
X59186724Y-79928981D01*
X59091486Y-79881362D01*
X59043867Y-79833743D01*
X76287334Y-46929381D02*
X75954000Y-46453190D01*
X75715905Y-46929381D02*
X75715905Y-45929381D01*
X76096858Y-45929381D01*
X76192096Y-45977000D01*
X76239715Y-46024619D01*
X76287334Y-46119857D01*
X76287334Y-46262714D01*
X76239715Y-46357952D01*
X76192096Y-46405571D01*
X76096858Y-46453190D01*
X75715905Y-46453190D01*
X77144477Y-46262714D02*
X77144477Y-46929381D01*
X76906381Y-45881762D02*
X76668286Y-46596048D01*
X77287334Y-46596048D01*
X103668534Y-40812981D02*
X103335200Y-40336790D01*
X103097105Y-40812981D02*
X103097105Y-39812981D01*
X103478058Y-39812981D01*
X103573296Y-39860600D01*
X103620915Y-39908219D01*
X103668534Y-40003457D01*
X103668534Y-40146314D01*
X103620915Y-40241552D01*
X103573296Y-40289171D01*
X103478058Y-40336790D01*
X103097105Y-40336790D01*
X104573296Y-39812981D02*
X104097105Y-39812981D01*
X104049486Y-40289171D01*
X104097105Y-40241552D01*
X104192343Y-40193933D01*
X104430439Y-40193933D01*
X104525677Y-40241552D01*
X104573296Y-40289171D01*
X104620915Y-40384410D01*
X104620915Y-40622505D01*
X104573296Y-40717743D01*
X104525677Y-40765362D01*
X104430439Y-40812981D01*
X104192343Y-40812981D01*
X104097105Y-40765362D01*
X104049486Y-40717743D01*
X53515534Y-40812981D02*
X53182200Y-40336790D01*
X52944105Y-40812981D02*
X52944105Y-39812981D01*
X53325058Y-39812981D01*
X53420296Y-39860600D01*
X53467915Y-39908219D01*
X53515534Y-40003457D01*
X53515534Y-40146314D01*
X53467915Y-40241552D01*
X53420296Y-40289171D01*
X53325058Y-40336790D01*
X52944105Y-40336790D01*
X54372677Y-39812981D02*
X54182200Y-39812981D01*
X54086962Y-39860600D01*
X54039343Y-39908219D01*
X53944105Y-40051076D01*
X53896486Y-40241552D01*
X53896486Y-40622505D01*
X53944105Y-40717743D01*
X53991724Y-40765362D01*
X54086962Y-40812981D01*
X54277439Y-40812981D01*
X54372677Y-40765362D01*
X54420296Y-40717743D01*
X54467915Y-40622505D01*
X54467915Y-40384410D01*
X54420296Y-40289171D01*
X54372677Y-40241552D01*
X54277439Y-40193933D01*
X54086962Y-40193933D01*
X53991724Y-40241552D01*
X53944105Y-40289171D01*
X53896486Y-40384410D01*
X53630534Y-81452981D02*
X53297200Y-80976790D01*
X53059105Y-81452981D02*
X53059105Y-80452981D01*
X53440058Y-80452981D01*
X53535296Y-80500600D01*
X53582915Y-80548219D01*
X53630534Y-80643457D01*
X53630534Y-80786314D01*
X53582915Y-80881552D01*
X53535296Y-80929171D01*
X53440058Y-80976790D01*
X53059105Y-80976790D01*
X53963867Y-80452981D02*
X54630534Y-80452981D01*
X54201962Y-81452981D01*
X65060534Y-44876981D02*
X64727200Y-44400790D01*
X64489105Y-44876981D02*
X64489105Y-43876981D01*
X64870058Y-43876981D01*
X64965296Y-43924600D01*
X65012915Y-43972219D01*
X65060534Y-44067457D01*
X65060534Y-44210314D01*
X65012915Y-44305552D01*
X64965296Y-44353171D01*
X64870058Y-44400790D01*
X64489105Y-44400790D01*
X65631962Y-44305552D02*
X65536724Y-44257933D01*
X65489105Y-44210314D01*
X65441486Y-44115076D01*
X65441486Y-44067457D01*
X65489105Y-43972219D01*
X65536724Y-43924600D01*
X65631962Y-43876981D01*
X65822439Y-43876981D01*
X65917677Y-43924600D01*
X65965296Y-43972219D01*
X66012915Y-44067457D01*
X66012915Y-44115076D01*
X65965296Y-44210314D01*
X65917677Y-44257933D01*
X65822439Y-44305552D01*
X65631962Y-44305552D01*
X65536724Y-44353171D01*
X65489105Y-44400790D01*
X65441486Y-44496029D01*
X65441486Y-44686505D01*
X65489105Y-44781743D01*
X65536724Y-44829362D01*
X65631962Y-44876981D01*
X65822439Y-44876981D01*
X65917677Y-44829362D01*
X65965296Y-44781743D01*
X66012915Y-44686505D01*
X66012915Y-44496029D01*
X65965296Y-44400790D01*
X65917677Y-44353171D01*
X65822439Y-44305552D01*
X68362534Y-45130981D02*
X68029200Y-44654790D01*
X67791105Y-45130981D02*
X67791105Y-44130981D01*
X68172058Y-44130981D01*
X68267296Y-44178600D01*
X68314915Y-44226219D01*
X68362534Y-44321457D01*
X68362534Y-44464314D01*
X68314915Y-44559552D01*
X68267296Y-44607171D01*
X68172058Y-44654790D01*
X67791105Y-44654790D01*
X68838724Y-45130981D02*
X69029200Y-45130981D01*
X69124439Y-45083362D01*
X69172058Y-45035743D01*
X69267296Y-44892886D01*
X69314915Y-44702410D01*
X69314915Y-44321457D01*
X69267296Y-44226219D01*
X69219677Y-44178600D01*
X69124439Y-44130981D01*
X68933962Y-44130981D01*
X68838724Y-44178600D01*
X68791105Y-44226219D01*
X68743486Y-44321457D01*
X68743486Y-44559552D01*
X68791105Y-44654790D01*
X68838724Y-44702410D01*
X68933962Y-44750029D01*
X69124439Y-44750029D01*
X69219677Y-44702410D01*
X69267296Y-44654790D01*
X69314915Y-44559552D01*
X100652343Y-75864981D02*
X100319009Y-75388790D01*
X100080914Y-75864981D02*
X100080914Y-74864981D01*
X100461867Y-74864981D01*
X100557105Y-74912600D01*
X100604724Y-74960219D01*
X100652343Y-75055457D01*
X100652343Y-75198314D01*
X100604724Y-75293552D01*
X100557105Y-75341171D01*
X100461867Y-75388790D01*
X100080914Y-75388790D01*
X101604724Y-75864981D02*
X101033295Y-75864981D01*
X101319009Y-75864981D02*
X101319009Y-74864981D01*
X101223771Y-75007838D01*
X101128533Y-75103076D01*
X101033295Y-75150695D01*
X102223771Y-74864981D02*
X102319010Y-74864981D01*
X102414248Y-74912600D01*
X102461867Y-74960219D01*
X102509486Y-75055457D01*
X102557105Y-75245933D01*
X102557105Y-75484029D01*
X102509486Y-75674505D01*
X102461867Y-75769743D01*
X102414248Y-75817362D01*
X102319010Y-75864981D01*
X102223771Y-75864981D01*
X102128533Y-75817362D01*
X102080914Y-75769743D01*
X102033295Y-75674505D01*
X101985676Y-75484029D01*
X101985676Y-75245933D01*
X102033295Y-75055457D01*
X102080914Y-74960219D01*
X102128533Y-74912600D01*
X102223771Y-74864981D01*
X99128343Y-77896981D02*
X98795009Y-77420790D01*
X98556914Y-77896981D02*
X98556914Y-76896981D01*
X98937867Y-76896981D01*
X99033105Y-76944600D01*
X99080724Y-76992219D01*
X99128343Y-77087457D01*
X99128343Y-77230314D01*
X99080724Y-77325552D01*
X99033105Y-77373171D01*
X98937867Y-77420790D01*
X98556914Y-77420790D01*
X100080724Y-77896981D02*
X99509295Y-77896981D01*
X99795009Y-77896981D02*
X99795009Y-76896981D01*
X99699771Y-77039838D01*
X99604533Y-77135076D01*
X99509295Y-77182695D01*
X101033105Y-77896981D02*
X100461676Y-77896981D01*
X100747390Y-77896981D02*
X100747390Y-76896981D01*
X100652152Y-77039838D01*
X100556914Y-77135076D01*
X100461676Y-77182695D01*
X101160343Y-71038981D02*
X100827009Y-70562790D01*
X100588914Y-71038981D02*
X100588914Y-70038981D01*
X100969867Y-70038981D01*
X101065105Y-70086600D01*
X101112724Y-70134219D01*
X101160343Y-70229457D01*
X101160343Y-70372314D01*
X101112724Y-70467552D01*
X101065105Y-70515171D01*
X100969867Y-70562790D01*
X100588914Y-70562790D01*
X102112724Y-71038981D02*
X101541295Y-71038981D01*
X101827009Y-71038981D02*
X101827009Y-70038981D01*
X101731771Y-70181838D01*
X101636533Y-70277076D01*
X101541295Y-70324695D01*
X102493676Y-70134219D02*
X102541295Y-70086600D01*
X102636533Y-70038981D01*
X102874629Y-70038981D01*
X102969867Y-70086600D01*
X103017486Y-70134219D01*
X103065105Y-70229457D01*
X103065105Y-70324695D01*
X103017486Y-70467552D01*
X102446057Y-71038981D01*
X103065105Y-71038981D01*
X101160343Y-69260981D02*
X100827009Y-68784790D01*
X100588914Y-69260981D02*
X100588914Y-68260981D01*
X100969867Y-68260981D01*
X101065105Y-68308600D01*
X101112724Y-68356219D01*
X101160343Y-68451457D01*
X101160343Y-68594314D01*
X101112724Y-68689552D01*
X101065105Y-68737171D01*
X100969867Y-68784790D01*
X100588914Y-68784790D01*
X102112724Y-69260981D02*
X101541295Y-69260981D01*
X101827009Y-69260981D02*
X101827009Y-68260981D01*
X101731771Y-68403838D01*
X101636533Y-68499076D01*
X101541295Y-68546695D01*
X102446057Y-68260981D02*
X103065105Y-68260981D01*
X102731771Y-68641933D01*
X102874629Y-68641933D01*
X102969867Y-68689552D01*
X103017486Y-68737171D01*
X103065105Y-68832410D01*
X103065105Y-69070505D01*
X103017486Y-69165743D01*
X102969867Y-69213362D01*
X102874629Y-69260981D01*
X102588914Y-69260981D01*
X102493676Y-69213362D01*
X102446057Y-69165743D01*
X101160343Y-67482981D02*
X100827009Y-67006790D01*
X100588914Y-67482981D02*
X100588914Y-66482981D01*
X100969867Y-66482981D01*
X101065105Y-66530600D01*
X101112724Y-66578219D01*
X101160343Y-66673457D01*
X101160343Y-66816314D01*
X101112724Y-66911552D01*
X101065105Y-66959171D01*
X100969867Y-67006790D01*
X100588914Y-67006790D01*
X102112724Y-67482981D02*
X101541295Y-67482981D01*
X101827009Y-67482981D02*
X101827009Y-66482981D01*
X101731771Y-66625838D01*
X101636533Y-66721076D01*
X101541295Y-66768695D01*
X102969867Y-66816314D02*
X102969867Y-67482981D01*
X102731771Y-66435362D02*
X102493676Y-67149648D01*
X103112724Y-67149648D01*
X59033867Y-25287362D02*
X59176724Y-25334981D01*
X59414820Y-25334981D01*
X59510058Y-25287362D01*
X59557677Y-25239743D01*
X59605296Y-25144505D01*
X59605296Y-25049267D01*
X59557677Y-24954029D01*
X59510058Y-24906410D01*
X59414820Y-24858790D01*
X59224343Y-24811171D01*
X59129105Y-24763552D01*
X59081486Y-24715933D01*
X59033867Y-24620695D01*
X59033867Y-24525457D01*
X59081486Y-24430219D01*
X59129105Y-24382600D01*
X59224343Y-24334981D01*
X59462439Y-24334981D01*
X59605296Y-24382600D01*
X59938629Y-24334981D02*
X60176724Y-25334981D01*
X60367201Y-24620695D01*
X60557677Y-25334981D01*
X60795772Y-24334981D01*
X61700534Y-25334981D02*
X61129105Y-25334981D01*
X61414819Y-25334981D02*
X61414819Y-24334981D01*
X61319581Y-24477838D01*
X61224343Y-24573076D01*
X61129105Y-24620695D01*
X65163867Y-80897362D02*
X65306724Y-80944981D01*
X65544820Y-80944981D01*
X65640058Y-80897362D01*
X65687677Y-80849743D01*
X65735296Y-80754505D01*
X65735296Y-80659267D01*
X65687677Y-80564029D01*
X65640058Y-80516410D01*
X65544820Y-80468790D01*
X65354343Y-80421171D01*
X65259105Y-80373552D01*
X65211486Y-80325933D01*
X65163867Y-80230695D01*
X65163867Y-80135457D01*
X65211486Y-80040219D01*
X65259105Y-79992600D01*
X65354343Y-79944981D01*
X65592439Y-79944981D01*
X65735296Y-79992600D01*
X66068629Y-79944981D02*
X66306724Y-80944981D01*
X66497201Y-80230695D01*
X66687677Y-80944981D01*
X66925772Y-79944981D01*
X67259105Y-80040219D02*
X67306724Y-79992600D01*
X67401962Y-79944981D01*
X67640058Y-79944981D01*
X67735296Y-79992600D01*
X67782915Y-80040219D01*
X67830534Y-80135457D01*
X67830534Y-80230695D01*
X67782915Y-80373552D01*
X67211486Y-80944981D01*
X67830534Y-80944981D01*
X94033867Y-25287362D02*
X94176724Y-25334981D01*
X94414820Y-25334981D01*
X94510058Y-25287362D01*
X94557677Y-25239743D01*
X94605296Y-25144505D01*
X94605296Y-25049267D01*
X94557677Y-24954029D01*
X94510058Y-24906410D01*
X94414820Y-24858790D01*
X94224343Y-24811171D01*
X94129105Y-24763552D01*
X94081486Y-24715933D01*
X94033867Y-24620695D01*
X94033867Y-24525457D01*
X94081486Y-24430219D01*
X94129105Y-24382600D01*
X94224343Y-24334981D01*
X94462439Y-24334981D01*
X94605296Y-24382600D01*
X94938629Y-24334981D02*
X95176724Y-25334981D01*
X95367201Y-24620695D01*
X95557677Y-25334981D01*
X95795772Y-24334981D01*
X96081486Y-24334981D02*
X96700534Y-24334981D01*
X96367200Y-24715933D01*
X96510058Y-24715933D01*
X96605296Y-24763552D01*
X96652915Y-24811171D01*
X96700534Y-24906410D01*
X96700534Y-25144505D01*
X96652915Y-25239743D01*
X96605296Y-25287362D01*
X96510058Y-25334981D01*
X96224343Y-25334981D01*
X96129105Y-25287362D01*
X96081486Y-25239743D01*
X88341367Y-81151362D02*
X88484224Y-81198981D01*
X88722320Y-81198981D01*
X88817558Y-81151362D01*
X88865177Y-81103743D01*
X88912796Y-81008505D01*
X88912796Y-80913267D01*
X88865177Y-80818029D01*
X88817558Y-80770410D01*
X88722320Y-80722790D01*
X88531843Y-80675171D01*
X88436605Y-80627552D01*
X88388986Y-80579933D01*
X88341367Y-80484695D01*
X88341367Y-80389457D01*
X88388986Y-80294219D01*
X88436605Y-80246600D01*
X88531843Y-80198981D01*
X88769939Y-80198981D01*
X88912796Y-80246600D01*
X89246129Y-80198981D02*
X89484224Y-81198981D01*
X89674701Y-80484695D01*
X89865177Y-81198981D01*
X90103272Y-80198981D01*
X90912796Y-80532314D02*
X90912796Y-81198981D01*
X90674700Y-80151362D02*
X90436605Y-80865648D01*
X91055653Y-80865648D01*
X76533867Y-25287362D02*
X76676724Y-25334981D01*
X76914820Y-25334981D01*
X77010058Y-25287362D01*
X77057677Y-25239743D01*
X77105296Y-25144505D01*
X77105296Y-25049267D01*
X77057677Y-24954029D01*
X77010058Y-24906410D01*
X76914820Y-24858790D01*
X76724343Y-24811171D01*
X76629105Y-24763552D01*
X76581486Y-24715933D01*
X76533867Y-24620695D01*
X76533867Y-24525457D01*
X76581486Y-24430219D01*
X76629105Y-24382600D01*
X76724343Y-24334981D01*
X76962439Y-24334981D01*
X77105296Y-24382600D01*
X77438629Y-24334981D02*
X77676724Y-25334981D01*
X77867201Y-24620695D01*
X78057677Y-25334981D01*
X78295772Y-24334981D01*
X79152915Y-24334981D02*
X78676724Y-24334981D01*
X78629105Y-24811171D01*
X78676724Y-24763552D01*
X78771962Y-24715933D01*
X79010058Y-24715933D01*
X79105296Y-24763552D01*
X79152915Y-24811171D01*
X79200534Y-24906410D01*
X79200534Y-25144505D01*
X79152915Y-25239743D01*
X79105296Y-25287362D01*
X79010058Y-25334981D01*
X78771962Y-25334981D01*
X78676724Y-25287362D01*
X78629105Y-25239743D01*
X76339867Y-80389362D02*
X76482724Y-80436981D01*
X76720820Y-80436981D01*
X76816058Y-80389362D01*
X76863677Y-80341743D01*
X76911296Y-80246505D01*
X76911296Y-80151267D01*
X76863677Y-80056029D01*
X76816058Y-80008410D01*
X76720820Y-79960790D01*
X76530343Y-79913171D01*
X76435105Y-79865552D01*
X76387486Y-79817933D01*
X76339867Y-79722695D01*
X76339867Y-79627457D01*
X76387486Y-79532219D01*
X76435105Y-79484600D01*
X76530343Y-79436981D01*
X76768439Y-79436981D01*
X76911296Y-79484600D01*
X77244629Y-79436981D02*
X77482724Y-80436981D01*
X77673201Y-79722695D01*
X77863677Y-80436981D01*
X78101772Y-79436981D01*
X78911296Y-79436981D02*
X78720819Y-79436981D01*
X78625581Y-79484600D01*
X78577962Y-79532219D01*
X78482724Y-79675076D01*
X78435105Y-79865552D01*
X78435105Y-80246505D01*
X78482724Y-80341743D01*
X78530343Y-80389362D01*
X78625581Y-80436981D01*
X78816058Y-80436981D01*
X78911296Y-80389362D01*
X78958915Y-80341743D01*
X79006534Y-80246505D01*
X79006534Y-80008410D01*
X78958915Y-79913171D01*
X78911296Y-79865552D01*
X78816058Y-79817933D01*
X78625581Y-79817933D01*
X78530343Y-79865552D01*
X78482724Y-79913171D01*
X78435105Y-80008410D01*
X61163295Y-75880981D02*
X61734724Y-75880981D01*
X61449009Y-76880981D02*
X61449009Y-75880981D01*
X62591867Y-76880981D02*
X62020438Y-76880981D01*
X62306152Y-76880981D02*
X62306152Y-75880981D01*
X62210914Y-76023838D01*
X62115676Y-76119076D01*
X62020438Y-76166695D01*
X62441295Y-78420981D02*
X63012724Y-78420981D01*
X62727009Y-79420981D02*
X62727009Y-78420981D01*
X63346057Y-79420981D02*
X63346057Y-78420981D01*
X63727010Y-78420981D01*
X63822248Y-78468600D01*
X63869867Y-78516219D01*
X63917486Y-78611457D01*
X63917486Y-78754314D01*
X63869867Y-78849552D01*
X63822248Y-78897171D01*
X63727010Y-78944790D01*
X63346057Y-78944790D01*
X64298438Y-78516219D02*
X64346057Y-78468600D01*
X64441295Y-78420981D01*
X64679391Y-78420981D01*
X64774629Y-78468600D01*
X64822248Y-78516219D01*
X64869867Y-78611457D01*
X64869867Y-78706695D01*
X64822248Y-78849552D01*
X64250819Y-79420981D01*
X64869867Y-79420981D01*
X95080295Y-32322521D02*
X95651724Y-32322521D01*
X95366009Y-33322521D02*
X95366009Y-32322521D01*
X95985057Y-33322521D02*
X95985057Y-32322521D01*
X96366010Y-32322521D01*
X96461248Y-32370140D01*
X96508867Y-32417759D01*
X96556486Y-32512997D01*
X96556486Y-32655854D01*
X96508867Y-32751092D01*
X96461248Y-32798711D01*
X96366010Y-32846330D01*
X95985057Y-32846330D01*
X96889819Y-32322521D02*
X97508867Y-32322521D01*
X97175533Y-32703473D01*
X97318391Y-32703473D01*
X97413629Y-32751092D01*
X97461248Y-32798711D01*
X97508867Y-32893950D01*
X97508867Y-33132045D01*
X97461248Y-33227283D01*
X97413629Y-33274902D01*
X97318391Y-33322521D01*
X97032676Y-33322521D01*
X96937438Y-33274902D01*
X96889819Y-33227283D01*
X97239295Y-79182981D02*
X97810724Y-79182981D01*
X97525009Y-80182981D02*
X97525009Y-79182981D01*
X98144057Y-80182981D02*
X98144057Y-79182981D01*
X98525010Y-79182981D01*
X98620248Y-79230600D01*
X98667867Y-79278219D01*
X98715486Y-79373457D01*
X98715486Y-79516314D01*
X98667867Y-79611552D01*
X98620248Y-79659171D01*
X98525010Y-79706790D01*
X98144057Y-79706790D01*
X99572629Y-79516314D02*
X99572629Y-80182981D01*
X99334533Y-79135362D02*
X99096438Y-79849648D01*
X99715486Y-79849648D01*
X101430295Y-71692521D02*
X102001724Y-71692521D01*
X101716009Y-72692521D02*
X101716009Y-71692521D01*
X102335057Y-72692521D02*
X102335057Y-71692521D01*
X102716010Y-71692521D01*
X102811248Y-71740140D01*
X102858867Y-71787759D01*
X102906486Y-71882997D01*
X102906486Y-72025854D01*
X102858867Y-72121092D01*
X102811248Y-72168711D01*
X102716010Y-72216330D01*
X102335057Y-72216330D01*
X103811248Y-71692521D02*
X103335057Y-71692521D01*
X103287438Y-72168711D01*
X103335057Y-72121092D01*
X103430295Y-72073473D01*
X103668391Y-72073473D01*
X103763629Y-72121092D01*
X103811248Y-72168711D01*
X103858867Y-72263950D01*
X103858867Y-72502045D01*
X103811248Y-72597283D01*
X103763629Y-72644902D01*
X103668391Y-72692521D01*
X103430295Y-72692521D01*
X103335057Y-72644902D01*
X103287438Y-72597283D01*
X81999295Y-69025521D02*
X82570724Y-69025521D01*
X82285009Y-70025521D02*
X82285009Y-69025521D01*
X82904057Y-70025521D02*
X82904057Y-69025521D01*
X83285010Y-69025521D01*
X83380248Y-69073140D01*
X83427867Y-69120759D01*
X83475486Y-69215997D01*
X83475486Y-69358854D01*
X83427867Y-69454092D01*
X83380248Y-69501711D01*
X83285010Y-69549330D01*
X82904057Y-69549330D01*
X84332629Y-69025521D02*
X84142152Y-69025521D01*
X84046914Y-69073140D01*
X83999295Y-69120759D01*
X83904057Y-69263616D01*
X83856438Y-69454092D01*
X83856438Y-69835045D01*
X83904057Y-69930283D01*
X83951676Y-69977902D01*
X84046914Y-70025521D01*
X84237391Y-70025521D01*
X84332629Y-69977902D01*
X84380248Y-69930283D01*
X84427867Y-69835045D01*
X84427867Y-69596950D01*
X84380248Y-69501711D01*
X84332629Y-69454092D01*
X84237391Y-69406473D01*
X84046914Y-69406473D01*
X83951676Y-69454092D01*
X83904057Y-69501711D01*
X83856438Y-69596950D01*
X92492581Y-68800505D02*
X92492581Y-68229076D01*
X93492581Y-68514791D02*
X92492581Y-68514791D01*
X93492581Y-67895743D02*
X92492581Y-67895743D01*
X92492581Y-67514790D01*
X92540200Y-67419552D01*
X92587819Y-67371933D01*
X92683057Y-67324314D01*
X92825914Y-67324314D01*
X92921152Y-67371933D01*
X92968771Y-67419552D01*
X93016390Y-67514790D01*
X93016390Y-67895743D01*
X92492581Y-66990981D02*
X92492581Y-66324314D01*
X93492581Y-66752886D01*
X80094295Y-43495981D02*
X80665724Y-43495981D01*
X80380009Y-44495981D02*
X80380009Y-43495981D01*
X80999057Y-44495981D02*
X80999057Y-43495981D01*
X81380010Y-43495981D01*
X81475248Y-43543600D01*
X81522867Y-43591219D01*
X81570486Y-43686457D01*
X81570486Y-43829314D01*
X81522867Y-43924552D01*
X81475248Y-43972171D01*
X81380010Y-44019790D01*
X80999057Y-44019790D01*
X82141914Y-43924552D02*
X82046676Y-43876933D01*
X81999057Y-43829314D01*
X81951438Y-43734076D01*
X81951438Y-43686457D01*
X81999057Y-43591219D01*
X82046676Y-43543600D01*
X82141914Y-43495981D01*
X82332391Y-43495981D01*
X82427629Y-43543600D01*
X82475248Y-43591219D01*
X82522867Y-43686457D01*
X82522867Y-43734076D01*
X82475248Y-43829314D01*
X82427629Y-43876933D01*
X82332391Y-43924552D01*
X82141914Y-43924552D01*
X82046676Y-43972171D01*
X81999057Y-44019790D01*
X81951438Y-44115029D01*
X81951438Y-44305505D01*
X81999057Y-44400743D01*
X82046676Y-44448362D01*
X82141914Y-44495981D01*
X82332391Y-44495981D01*
X82427629Y-44448362D01*
X82475248Y-44400743D01*
X82522867Y-44305505D01*
X82522867Y-44115029D01*
X82475248Y-44019790D01*
X82427629Y-43972171D01*
X82332391Y-43924552D01*
X61425295Y-72962521D02*
X61996724Y-72962521D01*
X61711009Y-73962521D02*
X61711009Y-72962521D01*
X62330057Y-73962521D02*
X62330057Y-72962521D01*
X62711010Y-72962521D01*
X62806248Y-73010140D01*
X62853867Y-73057759D01*
X62901486Y-73152997D01*
X62901486Y-73295854D01*
X62853867Y-73391092D01*
X62806248Y-73438711D01*
X62711010Y-73486330D01*
X62330057Y-73486330D01*
X63377676Y-73962521D02*
X63568152Y-73962521D01*
X63663391Y-73914902D01*
X63711010Y-73867283D01*
X63806248Y-73724426D01*
X63853867Y-73533950D01*
X63853867Y-73152997D01*
X63806248Y-73057759D01*
X63758629Y-73010140D01*
X63663391Y-72962521D01*
X63472914Y-72962521D01*
X63377676Y-73010140D01*
X63330057Y-73057759D01*
X63282438Y-73152997D01*
X63282438Y-73391092D01*
X63330057Y-73486330D01*
X63377676Y-73533950D01*
X63472914Y-73581569D01*
X63663391Y-73581569D01*
X63758629Y-73533950D01*
X63806248Y-73486330D01*
X63853867Y-73391092D01*
X97064581Y-72364505D02*
X97874105Y-72364505D01*
X97969343Y-72316886D01*
X98016962Y-72269267D01*
X98064581Y-72174029D01*
X98064581Y-71983552D01*
X98016962Y-71888314D01*
X97969343Y-71840695D01*
X97874105Y-71793076D01*
X97064581Y-71793076D01*
X97159819Y-71364505D02*
X97112200Y-71316886D01*
X97064581Y-71221648D01*
X97064581Y-70983552D01*
X97112200Y-70888314D01*
X97159819Y-70840695D01*
X97255057Y-70793076D01*
X97350295Y-70793076D01*
X97493152Y-70840695D01*
X98064581Y-71412124D01*
X98064581Y-70793076D01*
X71323295Y-72070981D02*
X71323295Y-72880505D01*
X71370914Y-72975743D01*
X71418533Y-73023362D01*
X71513771Y-73070981D01*
X71704248Y-73070981D01*
X71799486Y-73023362D01*
X71847105Y-72975743D01*
X71894724Y-72880505D01*
X71894724Y-72070981D01*
X72275676Y-72070981D02*
X72894724Y-72070981D01*
X72561390Y-72451933D01*
X72704248Y-72451933D01*
X72799486Y-72499552D01*
X72847105Y-72547171D01*
X72894724Y-72642410D01*
X72894724Y-72880505D01*
X72847105Y-72975743D01*
X72799486Y-73023362D01*
X72704248Y-73070981D01*
X72418533Y-73070981D01*
X72323295Y-73023362D01*
X72275676Y-72975743D01*
X79451295Y-72070981D02*
X79451295Y-72880505D01*
X79498914Y-72975743D01*
X79546533Y-73023362D01*
X79641771Y-73070981D01*
X79832248Y-73070981D01*
X79927486Y-73023362D01*
X79975105Y-72975743D01*
X80022724Y-72880505D01*
X80022724Y-72070981D01*
X80927486Y-72404314D02*
X80927486Y-73070981D01*
X80689390Y-72023362D02*
X80451295Y-72737648D01*
X81070343Y-72737648D01*
X79451295Y-78166981D02*
X79451295Y-78976505D01*
X79498914Y-79071743D01*
X79546533Y-79119362D01*
X79641771Y-79166981D01*
X79832248Y-79166981D01*
X79927486Y-79119362D01*
X79975105Y-79071743D01*
X80022724Y-78976505D01*
X80022724Y-78166981D01*
X80975105Y-78166981D02*
X80498914Y-78166981D01*
X80451295Y-78643171D01*
X80498914Y-78595552D01*
X80594152Y-78547933D01*
X80832248Y-78547933D01*
X80927486Y-78595552D01*
X80975105Y-78643171D01*
X81022724Y-78738410D01*
X81022724Y-78976505D01*
X80975105Y-79071743D01*
X80927486Y-79119362D01*
X80832248Y-79166981D01*
X80594152Y-79166981D01*
X80498914Y-79119362D01*
X80451295Y-79071743D01*
X71323295Y-78166981D02*
X71323295Y-78976505D01*
X71370914Y-79071743D01*
X71418533Y-79119362D01*
X71513771Y-79166981D01*
X71704248Y-79166981D01*
X71799486Y-79119362D01*
X71847105Y-79071743D01*
X71894724Y-78976505D01*
X71894724Y-78166981D01*
X72799486Y-78166981D02*
X72609009Y-78166981D01*
X72513771Y-78214600D01*
X72466152Y-78262219D01*
X72370914Y-78405076D01*
X72323295Y-78595552D01*
X72323295Y-78976505D01*
X72370914Y-79071743D01*
X72418533Y-79119362D01*
X72513771Y-79166981D01*
X72704248Y-79166981D01*
X72799486Y-79119362D01*
X72847105Y-79071743D01*
X72894724Y-78976505D01*
X72894724Y-78738410D01*
X72847105Y-78643171D01*
X72799486Y-78595552D01*
X72704248Y-78547933D01*
X72513771Y-78547933D01*
X72418533Y-78595552D01*
X72370914Y-78643171D01*
X72323295Y-78738410D01*
X97129105Y-40567521D02*
X97700534Y-40567521D01*
X97414819Y-41567521D02*
X97414819Y-40567521D01*
X98033867Y-41567521D02*
X98033867Y-40567521D01*
X98414820Y-40567521D01*
X98510058Y-40615140D01*
X98557677Y-40662759D01*
X98605296Y-40757997D01*
X98605296Y-40900854D01*
X98557677Y-40996092D01*
X98510058Y-41043711D01*
X98414820Y-41091330D01*
X98033867Y-41091330D01*
X99557677Y-41567521D02*
X98986248Y-41567521D01*
X99271962Y-41567521D02*
X99271962Y-40567521D01*
X99176724Y-40710378D01*
X99081486Y-40805616D01*
X98986248Y-40853235D01*
X100176724Y-40567521D02*
X100271963Y-40567521D01*
X100367201Y-40615140D01*
X100414820Y-40662759D01*
X100462439Y-40757997D01*
X100510058Y-40948473D01*
X100510058Y-41186569D01*
X100462439Y-41377045D01*
X100414820Y-41472283D01*
X100367201Y-41519902D01*
X100271963Y-41567521D01*
X100176724Y-41567521D01*
X100081486Y-41519902D01*
X100033867Y-41472283D01*
X99986248Y-41377045D01*
X99938629Y-41186569D01*
X99938629Y-40948473D01*
X99986248Y-40757997D01*
X100033867Y-40662759D01*
X100081486Y-40615140D01*
X100176724Y-40567521D01*
X70129105Y-81722981D02*
X70700534Y-81722981D01*
X70414819Y-82722981D02*
X70414819Y-81722981D01*
X71033867Y-82722981D02*
X71033867Y-81722981D01*
X71414820Y-81722981D01*
X71510058Y-81770600D01*
X71557677Y-81818219D01*
X71605296Y-81913457D01*
X71605296Y-82056314D01*
X71557677Y-82151552D01*
X71510058Y-82199171D01*
X71414820Y-82246790D01*
X71033867Y-82246790D01*
X72557677Y-82722981D02*
X71986248Y-82722981D01*
X72271962Y-82722981D02*
X72271962Y-81722981D01*
X72176724Y-81865838D01*
X72081486Y-81961076D01*
X71986248Y-82008695D01*
X73510058Y-82722981D02*
X72938629Y-82722981D01*
X73224343Y-82722981D02*
X73224343Y-81722981D01*
X73129105Y-81865838D01*
X73033867Y-81961076D01*
X72938629Y-82008695D01*
X53075105Y-71816981D02*
X53646534Y-71816981D01*
X53360819Y-72816981D02*
X53360819Y-71816981D01*
X53979867Y-72816981D02*
X53979867Y-71816981D01*
X54360820Y-71816981D01*
X54456058Y-71864600D01*
X54503677Y-71912219D01*
X54551296Y-72007457D01*
X54551296Y-72150314D01*
X54503677Y-72245552D01*
X54456058Y-72293171D01*
X54360820Y-72340790D01*
X53979867Y-72340790D01*
X55503677Y-72816981D02*
X54932248Y-72816981D01*
X55217962Y-72816981D02*
X55217962Y-71816981D01*
X55122724Y-71959838D01*
X55027486Y-72055076D01*
X54932248Y-72102695D01*
X55884629Y-71912219D02*
X55932248Y-71864600D01*
X56027486Y-71816981D01*
X56265582Y-71816981D01*
X56360820Y-71864600D01*
X56408439Y-71912219D01*
X56456058Y-72007457D01*
X56456058Y-72102695D01*
X56408439Y-72245552D01*
X55837010Y-72816981D01*
X56456058Y-72816981D01*
X97064581Y-69657695D02*
X97064581Y-69086266D01*
X98064581Y-69371981D02*
X97064581Y-69371981D01*
X98064581Y-68752933D02*
X97064581Y-68752933D01*
X97064581Y-68371980D01*
X97112200Y-68276742D01*
X97159819Y-68229123D01*
X97255057Y-68181504D01*
X97397914Y-68181504D01*
X97493152Y-68229123D01*
X97540771Y-68276742D01*
X97588390Y-68371980D01*
X97588390Y-68752933D01*
X98064581Y-67229123D02*
X98064581Y-67800552D01*
X98064581Y-67514838D02*
X97064581Y-67514838D01*
X97207438Y-67610076D01*
X97302676Y-67705314D01*
X97350295Y-67800552D01*
X97064581Y-66895790D02*
X97064581Y-66276742D01*
X97445533Y-66610076D01*
X97445533Y-66467218D01*
X97493152Y-66371980D01*
X97540771Y-66324361D01*
X97636010Y-66276742D01*
X97874105Y-66276742D01*
X97969343Y-66324361D01*
X98016962Y-66371980D01*
X98064581Y-66467218D01*
X98064581Y-66752933D01*
X98016962Y-66848171D01*
X97969343Y-66895790D01*
X59711409Y-63632080D02*
X58187409Y-63632080D01*
X58913123Y-63632080D02*
X58913123Y-62761223D01*
X59711409Y-62761223D02*
X58187409Y-62761223D01*
X59711409Y-62035509D02*
X58187409Y-62035509D01*
X59275980Y-61527509D01*
X58187409Y-61019509D01*
X59711409Y-61019509D01*
X59130837Y-60293795D02*
X59130837Y-59132652D01*
X59711409Y-57608652D02*
X59711409Y-58479509D01*
X59711409Y-58044081D02*
X58187409Y-58044081D01*
X58405123Y-58189224D01*
X58550266Y-58334366D01*
X58622837Y-58479509D01*
X58187409Y-56665223D02*
X58187409Y-56520080D01*
X58259980Y-56374937D01*
X58332551Y-56302366D01*
X58477694Y-56229795D01*
X58767980Y-56157223D01*
X59130837Y-56157223D01*
X59421123Y-56229795D01*
X59566266Y-56302366D01*
X59638837Y-56374937D01*
X59711409Y-56520080D01*
X59711409Y-56665223D01*
X59638837Y-56810366D01*
X59566266Y-56882937D01*
X59421123Y-56955509D01*
X59130837Y-57028080D01*
X58767980Y-57028080D01*
X58477694Y-56955509D01*
X58332551Y-56882937D01*
X58259980Y-56810366D01*
X58187409Y-56665223D01*
X59130837Y-55504080D02*
X59130837Y-54342937D01*
X58913123Y-53109223D02*
X58985694Y-52891509D01*
X59058266Y-52818937D01*
X59203409Y-52746366D01*
X59421123Y-52746366D01*
X59566266Y-52818937D01*
X59638837Y-52891509D01*
X59711409Y-53036651D01*
X59711409Y-53617223D01*
X58187409Y-53617223D01*
X58187409Y-53109223D01*
X58259980Y-52964080D01*
X58332551Y-52891509D01*
X58477694Y-52818937D01*
X58622837Y-52818937D01*
X58767980Y-52891509D01*
X58840551Y-52964080D01*
X58913123Y-53109223D01*
X58913123Y-53617223D01*
X58187409Y-51802937D02*
X58187409Y-51512651D01*
X58259980Y-51367509D01*
X58405123Y-51222366D01*
X58695409Y-51149794D01*
X59203409Y-51149794D01*
X59493694Y-51222366D01*
X59638837Y-51367509D01*
X59711409Y-51512651D01*
X59711409Y-51802937D01*
X59638837Y-51948080D01*
X59493694Y-52093223D01*
X59203409Y-52165794D01*
X58695409Y-52165794D01*
X58405123Y-52093223D01*
X58259980Y-51948080D01*
X58187409Y-51802937D01*
X59275980Y-50569223D02*
X59275980Y-49843509D01*
X59711409Y-50714366D02*
X58187409Y-50206366D01*
X59711409Y-49698366D01*
X59711409Y-48319509D02*
X58985694Y-48827509D01*
X59711409Y-49190366D02*
X58187409Y-49190366D01*
X58187409Y-48609794D01*
X58259980Y-48464652D01*
X58332551Y-48392080D01*
X58477694Y-48319509D01*
X58695409Y-48319509D01*
X58840551Y-48392080D01*
X58913123Y-48464652D01*
X58985694Y-48609794D01*
X58985694Y-49190366D01*
X59711409Y-47666366D02*
X58187409Y-47666366D01*
X58187409Y-47303509D01*
X58259980Y-47085794D01*
X58405123Y-46940652D01*
X58550266Y-46868080D01*
X58840551Y-46795509D01*
X59058266Y-46795509D01*
X59348551Y-46868080D01*
X59493694Y-46940652D01*
X59638837Y-47085794D01*
X59711409Y-47303509D01*
X59711409Y-47666366D01*
M02*
