G04 #@! TF.FileFunction,Copper,L1,Top,Signal*
%FSLAX46Y46*%
G04 Gerber Fmt 4.6, Leading zero omitted, Abs format (unit mm)*
G04 Created by KiCad (PCBNEW 4.0.6) date 11/06/17 12:40:06*
%MOMM*%
%LPD*%
G01*
G04 APERTURE LIST*
%ADD10C,0.100000*%
%ADD11O,0.900000X2.500000*%
%ADD12O,2.500000X0.900000*%
%ADD13O,0.600000X2.500000*%
%ADD14R,6.000000X6.000000*%
%ADD15C,1.143000*%
%ADD16C,3.556000*%
%ADD17C,2.540000*%
%ADD18C,2.159000*%
%ADD19R,0.800000X0.750000*%
%ADD20R,1.000000X1.250000*%
%ADD21R,1.250000X1.000000*%
%ADD22R,0.750000X0.800000*%
%ADD23R,2.400300X2.400300*%
%ADD24C,2.400300*%
%ADD25R,5.499100X2.148840*%
%ADD26R,0.965200X1.270000*%
%ADD27R,1.727200X2.032000*%
%ADD28O,1.727200X2.032000*%
%ADD29R,0.800000X0.900000*%
%ADD30R,0.900000X0.500000*%
%ADD31R,0.500000X0.900000*%
%ADD32R,3.200000X1.000000*%
%ADD33R,0.398780X0.749300*%
%ADD34R,0.300000X0.730000*%
%ADD35R,0.730000X0.300000*%
%ADD36R,1.250000X1.250000*%
%ADD37O,1.473200X0.609600*%
%ADD38R,0.635000X1.498600*%
%ADD39R,0.100000X1.498600*%
%ADD40R,0.200000X1.498600*%
%ADD41R,1.498600X0.635000*%
%ADD42C,0.700000*%
%ADD43C,0.250000*%
%ADD44C,0.889000*%
%ADD45C,0.635000*%
%ADD46C,0.762000*%
%ADD47C,0.381000*%
%ADD48C,0.508000*%
%ADD49C,0.254000*%
G04 APERTURE END LIST*
D10*
D11*
X63195200Y-46964600D03*
X64465200Y-46964600D03*
X65735200Y-46964600D03*
X67005200Y-46964600D03*
X68275200Y-46964600D03*
X69545200Y-46964600D03*
X70815200Y-46964600D03*
X72085200Y-46964600D03*
X73355200Y-46964600D03*
X74625200Y-46964600D03*
X75895200Y-46964600D03*
X77165200Y-46964600D03*
X78435200Y-46964600D03*
X79705200Y-46964600D03*
D12*
X81195200Y-50249600D03*
X81195200Y-51519600D03*
X81195200Y-52789600D03*
X81195200Y-54059600D03*
X81195200Y-55329600D03*
X81195200Y-56599600D03*
X81195200Y-57869600D03*
X81195200Y-59139600D03*
X81195200Y-60409600D03*
X81195200Y-61679600D03*
D11*
X79705200Y-64964600D03*
X78435200Y-64964600D03*
X77165200Y-64964600D03*
X75895200Y-64964600D03*
X74625200Y-64964600D03*
X73355200Y-64964600D03*
X72085200Y-64964600D03*
X70815200Y-64964600D03*
D13*
X69545200Y-64964600D03*
X68275200Y-64964600D03*
X67005200Y-64964600D03*
D11*
X65735200Y-64964600D03*
X64465200Y-64964600D03*
X63195200Y-64964600D03*
D14*
X70895200Y-56264600D03*
D15*
X61417200Y-33502600D03*
D16*
X78054200Y-38328600D03*
D17*
X87579200Y-38328600D03*
D18*
X87579200Y-43408600D03*
X92024200Y-35788600D03*
X83134200Y-35788600D03*
D19*
X69557200Y-26898600D03*
X71057200Y-26898600D03*
X69049200Y-85826600D03*
X70549200Y-85826600D03*
X88329200Y-26898600D03*
X86829200Y-26898600D03*
X88329200Y-85826600D03*
X86829200Y-85826600D03*
X60770200Y-67538600D03*
X59270200Y-67538600D03*
X60770200Y-69189600D03*
X59270200Y-69189600D03*
D20*
X60893200Y-71348600D03*
X58893200Y-71348600D03*
D21*
X87325200Y-70951600D03*
X87325200Y-68951600D03*
D22*
X90119200Y-70447600D03*
X90119200Y-68947600D03*
D20*
X91532200Y-77444600D03*
X93532200Y-77444600D03*
D19*
X94957200Y-75285600D03*
X96457200Y-75285600D03*
D23*
X84101940Y-56362600D03*
D24*
X104089200Y-56362600D03*
D25*
X87071200Y-77724000D03*
X87071200Y-73863200D03*
D26*
X103232200Y-76382600D03*
X104502200Y-76382600D03*
X103232200Y-36382600D03*
X104502200Y-36382600D03*
X53232200Y-36382600D03*
X54502200Y-36382600D03*
X53232200Y-76382600D03*
X54502200Y-76382600D03*
D27*
X60147200Y-37947600D03*
D28*
X62687200Y-37947600D03*
X65227200Y-37947600D03*
X67767200Y-37947600D03*
X70307200Y-37947600D03*
X72847200Y-37947600D03*
D29*
X69992200Y-42757600D03*
X71892200Y-42757600D03*
X70942200Y-40757600D03*
X61737200Y-42757600D03*
X63637200Y-42757600D03*
X62687200Y-40757600D03*
D30*
X57480200Y-74345100D03*
X57480200Y-75845100D03*
D31*
X63691200Y-68237100D03*
X62191200Y-68237100D03*
X59627200Y-77889100D03*
X58127200Y-77889100D03*
X77204000Y-44577000D03*
X75704000Y-44577000D03*
X103212200Y-38582600D03*
X104712200Y-38582600D03*
X52932200Y-38582600D03*
X54432200Y-38582600D03*
X53047200Y-79222600D03*
X54547200Y-79222600D03*
D30*
X65227200Y-42507600D03*
X65227200Y-41007600D03*
X68402200Y-42507600D03*
X68402200Y-41007600D03*
D31*
X99505200Y-75793600D03*
X98005200Y-75793600D03*
X97473200Y-77063600D03*
X95973200Y-77063600D03*
D30*
X99263200Y-74384600D03*
X99263200Y-72884600D03*
X99263200Y-71729600D03*
X99263200Y-70229600D03*
X99263200Y-68554600D03*
X99263200Y-67054600D03*
D32*
X64767200Y-26882600D03*
X57967200Y-26882600D03*
X57967200Y-30882600D03*
X64767200Y-30882600D03*
X64767200Y-81882600D03*
X57967200Y-81882600D03*
X57967200Y-85882600D03*
X64767200Y-85882600D03*
X99767200Y-26882600D03*
X92967200Y-26882600D03*
X92967200Y-30882600D03*
X99767200Y-30882600D03*
X99767200Y-81882600D03*
X92967200Y-81882600D03*
X92967200Y-85882600D03*
X99767200Y-85882600D03*
X82267200Y-26882600D03*
X75467200Y-26882600D03*
X75467200Y-30882600D03*
X82267200Y-30882600D03*
X75467200Y-85882600D03*
X82267200Y-85882600D03*
X82267200Y-81882600D03*
X75467200Y-81882600D03*
D33*
X60416440Y-74081640D03*
X59766200Y-74081640D03*
X59115960Y-74081640D03*
X59115960Y-75981560D03*
X59766200Y-75981560D03*
X60416440Y-75981560D03*
D15*
X61417200Y-79222600D03*
X96342200Y-34137600D03*
X96342200Y-79222600D03*
X102692200Y-73507600D03*
X83261200Y-70840600D03*
X91262200Y-67157600D03*
X82626200Y-45440600D03*
X62687200Y-74777600D03*
D34*
X93300200Y-73577600D03*
X93800200Y-73577600D03*
X94300200Y-73577600D03*
X94800200Y-73577600D03*
X95300200Y-73577600D03*
D35*
X96265200Y-72612600D03*
X96265200Y-72112600D03*
X96265200Y-71612600D03*
X96265200Y-71112600D03*
X96265200Y-70612600D03*
D34*
X95300200Y-69647600D03*
X94800200Y-69647600D03*
X94300200Y-69647600D03*
X93800200Y-69647600D03*
X93300200Y-69647600D03*
D35*
X92335200Y-70612600D03*
X92335200Y-71112600D03*
X92335200Y-71612600D03*
X92335200Y-72112600D03*
X92335200Y-72612600D03*
D36*
X94925200Y-70987600D03*
X93675200Y-70987600D03*
X94925200Y-72237600D03*
X93675200Y-72237600D03*
D37*
X66243200Y-67538600D03*
X66243200Y-68808600D03*
X66243200Y-70078600D03*
X66243200Y-71348600D03*
X71831200Y-71348600D03*
X71831200Y-70078600D03*
X71831200Y-68808600D03*
X71831200Y-67538600D03*
X79959200Y-71348600D03*
X79959200Y-70078600D03*
X79959200Y-68808600D03*
X79959200Y-67538600D03*
X74371200Y-67538600D03*
X74371200Y-68808600D03*
X74371200Y-70078600D03*
X74371200Y-71348600D03*
X79959200Y-77571600D03*
X79959200Y-76301600D03*
X79959200Y-75031600D03*
X79959200Y-73761600D03*
X74371200Y-73761600D03*
X74371200Y-75031600D03*
X74371200Y-76301600D03*
X74371200Y-77571600D03*
X66243200Y-73761600D03*
X66243200Y-75031600D03*
X66243200Y-76301600D03*
X66243200Y-77571600D03*
X71831200Y-77571600D03*
X71831200Y-76301600D03*
X71831200Y-75031600D03*
X71831200Y-73761600D03*
D15*
X98867200Y-42382600D03*
X71867200Y-80382600D03*
X57734200Y-72872600D03*
X95072200Y-67157600D03*
D38*
X68021200Y-62748160D03*
X59021980Y-62748160D03*
X60520580Y-62748160D03*
X62021720Y-62748160D03*
X63520320Y-62748160D03*
X65021460Y-62748160D03*
X66520060Y-62748160D03*
X69519800Y-62748160D03*
D39*
X71020940Y-62748160D03*
D40*
X72519540Y-62748160D03*
D38*
X74020680Y-62748160D03*
X75521820Y-62748160D03*
X77020420Y-62748160D03*
D41*
X78894940Y-61249560D03*
X78894940Y-59748420D03*
X78894940Y-58249820D03*
X78894940Y-56748680D03*
X78894940Y-55250080D03*
X78894940Y-53751480D03*
X78894940Y-52250340D03*
X78894940Y-50751740D03*
D38*
X77020420Y-49250600D03*
X75521820Y-49250600D03*
X74020680Y-49250600D03*
X72519540Y-49250600D03*
X71020940Y-49250600D03*
X69519800Y-49250600D03*
X68021200Y-49250600D03*
X66520060Y-49250600D03*
X65021460Y-49250600D03*
X63520320Y-49250600D03*
X62021720Y-49250600D03*
X60520580Y-49250600D03*
X59021980Y-49250600D03*
D42*
X93040200Y-65633600D03*
X83007200Y-74396600D03*
X84785200Y-64617600D03*
X84785200Y-63411100D03*
X104089200Y-51727100D03*
X104089200Y-52806600D03*
X104089200Y-53949600D03*
X104089200Y-53949600D03*
X61671200Y-59791600D03*
X61671200Y-64427100D03*
X84785200Y-62204600D03*
X87579200Y-30454600D03*
X87579200Y-34137600D03*
X66878200Y-53949600D03*
X66878200Y-56235600D03*
X71069200Y-59918600D03*
X74879200Y-56362600D03*
X73355200Y-52298600D03*
X71069200Y-52298600D03*
X80467200Y-44932600D03*
X80467200Y-48996600D03*
X66878200Y-58648600D03*
X68402200Y-59918600D03*
X73355200Y-59982100D03*
X74879200Y-58648600D03*
X74879200Y-53822600D03*
X68402200Y-52298600D03*
X99771200Y-50774600D03*
X99771200Y-52044600D03*
X99771200Y-53314600D03*
X93675200Y-72237600D03*
X94925200Y-72237600D03*
X94925200Y-70987600D03*
X93675200Y-70987600D03*
X75768200Y-68173600D03*
X68402200Y-68046600D03*
X92659200Y-74269600D03*
X81610200Y-78841600D03*
X64782700Y-68237100D03*
X58242200Y-68300600D03*
X83134200Y-68046600D03*
X92659200Y-68935600D03*
X95961200Y-74333100D03*
X61226700Y-47536100D03*
X61671200Y-44234100D03*
X64592200Y-51981100D03*
X76466700Y-67036100D03*
X76022200Y-72682100D03*
X76022200Y-71221600D03*
X69799200Y-82905600D03*
X70307200Y-77508100D03*
X64338200Y-50584100D03*
X81102200Y-66268600D03*
X81483200Y-69062600D03*
X81991200Y-76555600D03*
X75165570Y-61007610D03*
X74244200Y-44297600D03*
X69291200Y-44170600D03*
X67767200Y-30962600D03*
X91897200Y-29438600D03*
X90373200Y-72110600D03*
X93865700Y-75158600D03*
X91532200Y-76057600D03*
X91135200Y-71285100D03*
X55075199Y-72864601D03*
X57035700Y-38582600D03*
X73333866Y-61942600D03*
X64020700Y-41567100D03*
X60749402Y-66047398D03*
X63957200Y-44742100D03*
X67640200Y-66649600D03*
X66243200Y-44805600D03*
X62115700Y-66459100D03*
X62687200Y-44424600D03*
X68910200Y-66967100D03*
X67259200Y-44805600D03*
X70942200Y-41884600D03*
X71831200Y-61887100D03*
X72910700Y-43281600D03*
X73418700Y-50520600D03*
X72783700Y-66776600D03*
X69989700Y-71285100D03*
X57353200Y-76555600D03*
X62433200Y-72618600D03*
X56400700Y-75476100D03*
X58686700Y-34772600D03*
X77800200Y-66967100D03*
X97615061Y-70730992D03*
X83896200Y-72110600D03*
X96977200Y-70078600D03*
D43*
X84150200Y-66395600D02*
X84023200Y-66522600D01*
X84658200Y-67030600D02*
X84277200Y-67411600D01*
D44*
X85420200Y-41122600D02*
X85420200Y-45440600D01*
X85420200Y-45440600D02*
X85420200Y-49123600D01*
X82626200Y-45440600D02*
X85420200Y-45440600D01*
D43*
X93800200Y-68808600D02*
X93800200Y-68623954D01*
X93800200Y-68425600D02*
X93675200Y-68300600D01*
X93800200Y-69647600D02*
X93800200Y-68808600D01*
X93800200Y-68808600D02*
X93800200Y-68425600D01*
D44*
X93040200Y-67665600D02*
X93675200Y-68300600D01*
X93675200Y-68300600D02*
X93728539Y-68300600D01*
X93040200Y-65633600D02*
X93040200Y-67665600D01*
X87325200Y-59918600D02*
X93040200Y-65633600D01*
X87325200Y-58267600D02*
X87325200Y-59918600D01*
X87325200Y-51028600D02*
X87325200Y-58267600D01*
X85420200Y-49123600D02*
X87325200Y-51028600D01*
X84785200Y-40487600D02*
X85420200Y-41122600D01*
X83642200Y-39344600D02*
X84785200Y-40487600D01*
X82626200Y-38328600D02*
X83642200Y-39344600D01*
X78054200Y-38328600D02*
X82626200Y-38328600D01*
D43*
X93800200Y-68623954D02*
X93800200Y-68425600D01*
D45*
X79959200Y-75031600D02*
X82372200Y-75031600D01*
X82372200Y-75031600D02*
X83007200Y-74396600D01*
D43*
X79959200Y-76301600D02*
X79959200Y-75031600D01*
X79959200Y-77571600D02*
X79959200Y-76301600D01*
X95707200Y-74535600D02*
X95885700Y-74714100D01*
X95885700Y-74714100D02*
X96457200Y-75285600D01*
X95961200Y-74333100D02*
X95961200Y-74638600D01*
X95961200Y-74638600D02*
X95885700Y-74714100D01*
D46*
X84785200Y-64617600D02*
X85280174Y-64617600D01*
X84785200Y-62204600D02*
X84785200Y-63411100D01*
D45*
X76657200Y-59537600D02*
X77020420Y-59900820D01*
X77020420Y-59900820D02*
X77020420Y-61363860D01*
X74879200Y-59537600D02*
X76657200Y-59537600D01*
D46*
X62021720Y-62748160D02*
X62021720Y-64076580D01*
X62021720Y-64076580D02*
X61671200Y-64427100D01*
D45*
X72847200Y-37947600D02*
X72847200Y-37795200D01*
X58496200Y-36931600D02*
X58496200Y-39725600D01*
X60020200Y-44424600D02*
X61544200Y-45948600D01*
X72847200Y-37795200D02*
X71094600Y-36042600D01*
X71094600Y-36042600D02*
X59385200Y-36042600D01*
X59385200Y-36042600D02*
X58496200Y-36931600D01*
X58496200Y-39725600D02*
X60020200Y-41249600D01*
X60020200Y-41249600D02*
X60020200Y-44424600D01*
X61544200Y-45948600D02*
X62179200Y-45948600D01*
X62179200Y-45948600D02*
X63195200Y-46964600D01*
D43*
X104089200Y-52806600D02*
X104089200Y-51727100D01*
X104089200Y-53949600D02*
X104089200Y-52806600D01*
X105486200Y-54267100D02*
X105168700Y-53949600D01*
X105168700Y-53949600D02*
X104089200Y-53949600D01*
X105486200Y-54965600D02*
X105486200Y-54267100D01*
X105359200Y-55092600D02*
X105486200Y-54965600D01*
X104089200Y-56362600D02*
X105359200Y-55092600D01*
X60416440Y-74081640D02*
X62056338Y-74081640D01*
X62056338Y-74081640D02*
X62503378Y-73634600D01*
X62503378Y-73634600D02*
X63195200Y-73634600D01*
X63195200Y-73634600D02*
X63703200Y-73126600D01*
X64782700Y-69189600D02*
X64782700Y-68046600D01*
X63703200Y-73126600D02*
X63703200Y-69888100D01*
X63703200Y-69888100D02*
X64211200Y-69380100D01*
X64211200Y-69380100D02*
X64592200Y-69380100D01*
X64592200Y-69380100D02*
X64782700Y-69189600D01*
D46*
X81195200Y-61679600D02*
X84260200Y-61679600D01*
X84260200Y-61679600D02*
X84785200Y-62204600D01*
X80196200Y-61679600D02*
X79766160Y-61249560D01*
X79766160Y-61249560D02*
X78894940Y-61249560D01*
X81195200Y-61679600D02*
X80196200Y-61679600D01*
D45*
X78894940Y-61249560D02*
X79148160Y-61249560D01*
D44*
X87579200Y-38328600D02*
X87579200Y-34137600D01*
D45*
X59270200Y-68300600D02*
X59270200Y-69189600D01*
X59270200Y-67538600D02*
X59270200Y-68300600D01*
X59270200Y-68300600D02*
X58259709Y-68300600D01*
X63195200Y-46964600D02*
X63195200Y-46164600D01*
X74244200Y-52298600D02*
X73355200Y-52298600D01*
X66878200Y-56235600D02*
X66878200Y-53949600D01*
X66878200Y-58648600D02*
X66878200Y-56235600D01*
X70942200Y-60172600D02*
X68402200Y-60172600D01*
X73355200Y-60172600D02*
X70942200Y-60172600D01*
X74879200Y-56362600D02*
X74879200Y-58648600D01*
X74879200Y-53822600D02*
X74879200Y-56362600D01*
X70942200Y-52298600D02*
X73355200Y-52298600D01*
X68402200Y-52298600D02*
X70942200Y-52298600D01*
X80975200Y-45440600D02*
X80467200Y-44932600D01*
X80975200Y-48488600D02*
X80975200Y-45440600D01*
X80767199Y-48696601D02*
X80975200Y-48488600D01*
X80467200Y-48996600D02*
X80767199Y-48696601D01*
X79697580Y-48996600D02*
X80467200Y-48996600D01*
X78894940Y-50751740D02*
X78894940Y-49799240D01*
X78894940Y-49799240D02*
X79697580Y-48996600D01*
X78894940Y-61249560D02*
X77134720Y-61249560D01*
X77134720Y-61249560D02*
X77020420Y-61363860D01*
X77020420Y-62748160D02*
X77020420Y-61363860D01*
X77020420Y-61363860D02*
X77038200Y-61346080D01*
X77020420Y-49250600D02*
X77020420Y-50634900D01*
X77020420Y-50634900D02*
X77137260Y-50751740D01*
X77137260Y-50751740D02*
X77188060Y-50751740D01*
X74879200Y-52298600D02*
X74244200Y-52298600D01*
X74879200Y-53822600D02*
X74879200Y-52933600D01*
X74879200Y-52933600D02*
X74244200Y-52298600D01*
X74879200Y-59537600D02*
X74879200Y-58648600D01*
X74244200Y-60172600D02*
X74879200Y-59537600D01*
X73355200Y-60172600D02*
X74244200Y-60172600D01*
X67386200Y-60172600D02*
X68402200Y-60172600D01*
X66878200Y-59664600D02*
X67386200Y-60172600D01*
X66878200Y-58648600D02*
X66878200Y-59664600D01*
X76426060Y-50751740D02*
X74879200Y-52298600D01*
X77188060Y-50751740D02*
X76426060Y-50751740D01*
X78894940Y-50751740D02*
X77188060Y-50751740D01*
D44*
X99771200Y-51028600D02*
X99771200Y-52044600D01*
X99771200Y-50520600D02*
X99771200Y-51028600D01*
X99771200Y-52044600D02*
X99771200Y-53314600D01*
X96469200Y-47218600D02*
X99771200Y-50520600D01*
X92659200Y-43408600D02*
X96469200Y-47218600D01*
X87579200Y-38328600D02*
X92659200Y-43408600D01*
D47*
X81610200Y-78841600D02*
X82626200Y-78841600D01*
X82626200Y-78841600D02*
X84531200Y-80746600D01*
D43*
X93300200Y-73577600D02*
X93300200Y-72612600D01*
X93300200Y-72612600D02*
X93675200Y-72237600D01*
X95300200Y-72612600D02*
X94925200Y-72237600D01*
X92335200Y-71112600D02*
X93550200Y-71112600D01*
X93550200Y-71112600D02*
X93675200Y-70987600D01*
X93300200Y-69647600D02*
X93300200Y-70612600D01*
X94925200Y-72237600D02*
X93675200Y-72237600D01*
X94925200Y-70987600D02*
X94925200Y-72237600D01*
X93675200Y-70987600D02*
X94925200Y-70987600D01*
X92335200Y-70612600D02*
X93300200Y-70612600D01*
X93300200Y-70612600D02*
X93675200Y-70987600D01*
D48*
X75467200Y-26882600D02*
X72466200Y-26882600D01*
X72466200Y-26882600D02*
X71073200Y-26882600D01*
X72847200Y-27263600D02*
X72466200Y-26882600D01*
D43*
X93300200Y-73577600D02*
X93300200Y-73628600D01*
X93300200Y-73628600D02*
X92659200Y-74269600D01*
D48*
X71073200Y-26882600D02*
X71057200Y-26898600D01*
X82267200Y-26882600D02*
X80159200Y-26882600D01*
X80159200Y-26882600D02*
X75467200Y-26882600D01*
X86829200Y-26898600D02*
X82283200Y-26898600D01*
X82283200Y-26898600D02*
X82267200Y-26882600D01*
D47*
X75467200Y-26882600D02*
X81762710Y-26882600D01*
D43*
X99963200Y-67054600D02*
X101420800Y-67054600D01*
D44*
X101777800Y-67411600D02*
X101777800Y-70866000D01*
D43*
X101420800Y-67054600D02*
X101777800Y-67411600D01*
D44*
X101041200Y-71602600D02*
X101041200Y-77181099D01*
X101041200Y-77181099D02*
X100080201Y-78142098D01*
X101777800Y-70866000D02*
X101041200Y-71602600D01*
D47*
X84531200Y-85882600D02*
X86773200Y-85882600D01*
X82267200Y-85882600D02*
X84531200Y-85882600D01*
X84531200Y-85882600D02*
X84531200Y-80746600D01*
D48*
X101285699Y-78197099D02*
X100025200Y-78197099D01*
D43*
X99263200Y-67054600D02*
X99963200Y-67054600D01*
D48*
X100025200Y-78197099D02*
X96406699Y-78197099D01*
D43*
X100080201Y-78142098D02*
X100025200Y-78197099D01*
D48*
X95973200Y-77063600D02*
X95973200Y-77763600D01*
X54547200Y-79222600D02*
X54547200Y-85379802D01*
X102184200Y-87096600D02*
X102692200Y-86588600D01*
X54547200Y-85379802D02*
X56263998Y-87096600D01*
X67541933Y-87550610D02*
X92332190Y-87550610D01*
X102692200Y-86588600D02*
X102692200Y-79603600D01*
X96406699Y-78197099D02*
X96048201Y-77838601D01*
X56263998Y-87096600D02*
X67087924Y-87096600D01*
X67087924Y-87096600D02*
X67541933Y-87550610D01*
X92332190Y-87550610D02*
X92786200Y-87096600D01*
X92786200Y-87096600D02*
X102184200Y-87096600D01*
X102692200Y-79603600D02*
X101285699Y-78197099D01*
X54502200Y-76382600D02*
X54502200Y-79177600D01*
X54502200Y-79177600D02*
X54547200Y-79222600D01*
D45*
X59270200Y-69189600D02*
X59270200Y-70971600D01*
X59270200Y-70971600D02*
X58893200Y-71348600D01*
X86049200Y-68935600D02*
X84023200Y-68935600D01*
X84023200Y-68935600D02*
X83134200Y-68046600D01*
X87325200Y-68951600D02*
X86065200Y-68951600D01*
X86065200Y-68951600D02*
X86049200Y-68935600D01*
X87325200Y-68951600D02*
X90115200Y-68951600D01*
X90115200Y-68951600D02*
X90119200Y-68947600D01*
D43*
X92659200Y-68935600D02*
X91389200Y-68935600D01*
X93203200Y-68935600D02*
X92659200Y-68935600D01*
X96048201Y-77838601D02*
X95973200Y-77763600D01*
D45*
X95973200Y-77063600D02*
X93913200Y-77063600D01*
X93913200Y-77063600D02*
X93532200Y-77444600D01*
X95973200Y-76670600D02*
X96082200Y-76670600D01*
X96082200Y-76670600D02*
X96457200Y-76295600D01*
X96457200Y-76295600D02*
X96457200Y-75285600D01*
X95973200Y-77063600D02*
X95973200Y-76670600D01*
D43*
X95300200Y-74128600D02*
X95707200Y-74535600D01*
X96265200Y-72612600D02*
X96265200Y-73977600D01*
X96265200Y-73977600D02*
X95707200Y-74535600D01*
X95300200Y-73577600D02*
X95300200Y-74128600D01*
X93300200Y-69647600D02*
X93300200Y-69032600D01*
X93300200Y-69032600D02*
X93203200Y-68935600D01*
X91389200Y-68935600D02*
X91135200Y-69189600D01*
D47*
X91135200Y-69189600D02*
X90893200Y-68947600D01*
X90893200Y-68947600D02*
X90119200Y-68947600D01*
X91135200Y-70158600D02*
X91135200Y-69189600D01*
X92335200Y-70612600D02*
X91589200Y-70612600D01*
X91589200Y-70612600D02*
X91135200Y-70158600D01*
X86773200Y-85882600D02*
X86829200Y-85826600D01*
X75467200Y-85882600D02*
X82267200Y-85882600D01*
X70549200Y-85826600D02*
X75411200Y-85826600D01*
X75411200Y-85826600D02*
X75467200Y-85882600D01*
D43*
X59356180Y-47917100D02*
X60845700Y-47917100D01*
X60845700Y-47917100D02*
X61226700Y-47536100D01*
X59021980Y-49250600D02*
X59021980Y-48251300D01*
X59021980Y-48251300D02*
X59356180Y-47917100D01*
X64441200Y-45440600D02*
X63476698Y-45440600D01*
X63476698Y-45440600D02*
X63222699Y-45186601D01*
X63222699Y-45186601D02*
X61861701Y-45186601D01*
X64465200Y-46964600D02*
X64465200Y-45464600D01*
X64465200Y-45464600D02*
X64441200Y-45440600D01*
X61861701Y-45186601D02*
X61671200Y-44996100D01*
X61671200Y-44996100D02*
X61671200Y-44234100D01*
D48*
X55702200Y-31851600D02*
X55702200Y-30155600D01*
X57967200Y-27890600D02*
X57967200Y-26882600D01*
X55702200Y-30155600D02*
X57967200Y-27890600D01*
X57353200Y-33502600D02*
X55702200Y-31851600D01*
X61417200Y-33502600D02*
X57353200Y-33502600D01*
X64767200Y-26882600D02*
X69541200Y-26882600D01*
X69541200Y-26882600D02*
X69557200Y-26898600D01*
X57967200Y-26882600D02*
X60075200Y-26882600D01*
X60075200Y-26882600D02*
X64767200Y-26882600D01*
D43*
X70307200Y-76809600D02*
X70307200Y-77698600D01*
X70307200Y-73507600D02*
X70307200Y-76809600D01*
X70307200Y-76809600D02*
X70307200Y-77508100D01*
X63195200Y-51981100D02*
X63385700Y-51981100D01*
X62115700Y-51981100D02*
X63195200Y-51981100D01*
X63195200Y-51981100D02*
X64592200Y-51981100D01*
X60520580Y-49250600D02*
X60520580Y-50385980D01*
X60520580Y-50385980D02*
X62115700Y-51981100D01*
X75895200Y-66464600D02*
X76466700Y-67036100D01*
X76466700Y-67036100D02*
X76588191Y-67157591D01*
X76022200Y-72682100D02*
X71132700Y-72682100D01*
X71132700Y-72682100D02*
X70307200Y-73507600D01*
X76588191Y-67157591D02*
X76588191Y-70655609D01*
X76588191Y-70655609D02*
X76022200Y-71221600D01*
X75895200Y-64964600D02*
X75895200Y-66464600D01*
X75895200Y-64964600D02*
X75895200Y-66077465D01*
D47*
X65867200Y-81882600D02*
X68275200Y-84290600D01*
X68275200Y-84290600D02*
X69049200Y-85064600D01*
D43*
X69799200Y-82905600D02*
X69049200Y-83655600D01*
X69049200Y-83655600D02*
X68910200Y-83655600D01*
X68910200Y-83655600D02*
X68275200Y-84290600D01*
D47*
X57967200Y-81882600D02*
X61417200Y-81882600D01*
X61417200Y-81882600D02*
X64767200Y-81882600D01*
X61417200Y-79222600D02*
X61417200Y-81882600D01*
X64767200Y-81882600D02*
X65867200Y-81882600D01*
X69049200Y-85064600D02*
X69049200Y-85070600D01*
X69049200Y-85070600D02*
X69049200Y-85826600D01*
D43*
X75942200Y-65062600D02*
X75942200Y-65862600D01*
X65735200Y-46964600D02*
X65735200Y-50330100D01*
X62867701Y-51272601D02*
X62021720Y-50426620D01*
X65735200Y-50330100D02*
X64792699Y-51272601D01*
X64792699Y-51272601D02*
X62867701Y-51272601D01*
X62021720Y-50426620D02*
X62021720Y-49250600D01*
X62021720Y-49250600D02*
X62021720Y-47025118D01*
X76560741Y-32232600D02*
X89992200Y-32232600D01*
X62021720Y-47025118D02*
X61590201Y-46593599D01*
X57853690Y-40099090D02*
X57853690Y-36665464D01*
X61590201Y-46593599D02*
X60157199Y-46593599D01*
X59377690Y-41623090D02*
X57853690Y-40099090D01*
X60157199Y-46593599D02*
X59377691Y-45814091D01*
X59377691Y-45814091D02*
X59377690Y-41623090D01*
X89992200Y-32232600D02*
X90627200Y-31597600D01*
X57853690Y-36665464D02*
X59119064Y-35400090D01*
X59119064Y-35400090D02*
X73393251Y-35400090D01*
X73393251Y-35400090D02*
X76560741Y-32232600D01*
X62052200Y-49220120D02*
X62021720Y-49250600D01*
D48*
X93167200Y-34137600D02*
X90627200Y-31597600D01*
X90627200Y-31597600D02*
X90119200Y-31089600D01*
X92967200Y-26882600D02*
X90119200Y-26882600D01*
X90119200Y-26882600D02*
X88345200Y-26882600D01*
X96342200Y-34137600D02*
X93167200Y-34137600D01*
X90119200Y-31089600D02*
X90119200Y-26882600D01*
X88345200Y-26882600D02*
X88329200Y-26898600D01*
X99767200Y-26882600D02*
X92967200Y-26882600D01*
D43*
X63520320Y-49250600D02*
X63520320Y-49766220D01*
X63520320Y-49766220D02*
X64338200Y-50584100D01*
X80594200Y-66776600D02*
X81161381Y-66776600D01*
X78747200Y-66776600D02*
X78435200Y-66464600D01*
X63576200Y-49306480D02*
X63520320Y-49250600D01*
X81161381Y-67343781D02*
X81161381Y-66776600D01*
X81161381Y-66776600D02*
X81161381Y-66327781D01*
X81161381Y-66327781D02*
X81102200Y-66268600D01*
X81483200Y-69062600D02*
X81161381Y-68740781D01*
X81161381Y-68740781D02*
X81161381Y-67343781D01*
X80594200Y-66776600D02*
X78747200Y-66776600D01*
X78435200Y-66464600D02*
X78435200Y-64964600D01*
X81991200Y-77477560D02*
X81991200Y-76555600D01*
X92967200Y-81882600D02*
X86396240Y-81882600D01*
X86396240Y-81882600D02*
X81991200Y-77477560D01*
D47*
X92967200Y-81882600D02*
X96342200Y-81882600D01*
X96342200Y-81882600D02*
X99767200Y-81882600D01*
X96342200Y-79222600D02*
X96342200Y-80030823D01*
X96342200Y-80030823D02*
X96342200Y-81882600D01*
X88329200Y-85826600D02*
X88354200Y-85826600D01*
X88354200Y-85826600D02*
X92298200Y-81882600D01*
X92298200Y-81882600D02*
X92967200Y-81882600D01*
D45*
X75165570Y-61007610D02*
X65377710Y-61007610D01*
X65021460Y-61935360D02*
X65021460Y-62748160D01*
X65377710Y-61007610D02*
X65021460Y-61363860D01*
X65021460Y-61363860D02*
X65021460Y-61935360D01*
D46*
X62860199Y-67322299D02*
X62860199Y-68237100D01*
X62860199Y-68237100D02*
X62860199Y-69207101D01*
D47*
X62191200Y-68237100D02*
X62822200Y-68237100D01*
X62822200Y-68237100D02*
X62860199Y-68237100D01*
D45*
X60770200Y-69189600D02*
X60770200Y-71225600D01*
X60770200Y-71225600D02*
X60893200Y-71348600D01*
X60893200Y-71348600D02*
X60893200Y-69951600D01*
X60893200Y-69951600D02*
X60893200Y-69312600D01*
D46*
X62976399Y-67206099D02*
X62860199Y-67322299D01*
X64465200Y-64964600D02*
X64465200Y-66332100D01*
X64465200Y-66332100D02*
X64081711Y-66715589D01*
X64081711Y-66715589D02*
X63872761Y-66715589D01*
X63872761Y-66715589D02*
X63494250Y-67094100D01*
X63449200Y-67094100D02*
X63337201Y-67206099D01*
X63337201Y-67206099D02*
X62976399Y-67206099D01*
X63494250Y-67094100D02*
X63449200Y-67094100D01*
X62860199Y-69207101D02*
X62115700Y-69951600D01*
X62115700Y-69951600D02*
X60893200Y-69951600D01*
D45*
X75521820Y-62748160D02*
X75521820Y-61363860D01*
X75521820Y-61363860D02*
X75165570Y-61007610D01*
D47*
X73990200Y-44297600D02*
X69418200Y-44297600D01*
X74532270Y-44297600D02*
X73990200Y-44297600D01*
D46*
X64903632Y-63538100D02*
X64903632Y-62865988D01*
X64465200Y-64964600D02*
X64465200Y-63976532D01*
X64465200Y-63976532D02*
X64903632Y-63538100D01*
D47*
X74532270Y-44297600D02*
X74811670Y-44577000D01*
X74811670Y-44577000D02*
X75704000Y-44577000D01*
D48*
X57734200Y-72872600D02*
X58542423Y-72872600D01*
X58837551Y-72577472D02*
X58837551Y-72531249D01*
X58542423Y-72872600D02*
X58837551Y-72577472D01*
X57480200Y-73460100D02*
X57480200Y-73126600D01*
X57480200Y-73126600D02*
X57734200Y-72872600D01*
D47*
X69418200Y-44297600D02*
X69291200Y-44170600D01*
D48*
X64767200Y-30882600D02*
X67687200Y-30882600D01*
X67687200Y-30882600D02*
X67767200Y-30962600D01*
X92967200Y-30882600D02*
X92967200Y-30508600D01*
X92967200Y-30508600D02*
X91897200Y-29438600D01*
D47*
X99767200Y-30882600D02*
X92967200Y-30882600D01*
X57967200Y-30882600D02*
X64767200Y-30882600D01*
X55448200Y-75031600D02*
X56134700Y-74345100D01*
X56134700Y-74345100D02*
X57480200Y-74345100D01*
X55448200Y-84463600D02*
X55448200Y-75031600D01*
X57967200Y-85882600D02*
X56867200Y-85882600D01*
X56867200Y-85882600D02*
X55448200Y-84463600D01*
D48*
X67835200Y-86842600D02*
X89899200Y-86842600D01*
X89899200Y-86842600D02*
X90859200Y-85882600D01*
X90859200Y-85882600D02*
X92967200Y-85882600D01*
X64767200Y-85882600D02*
X66875200Y-85882600D01*
X66875200Y-85882600D02*
X67835200Y-86842600D01*
D45*
X58496200Y-72872600D02*
X58496200Y-73253600D01*
X58568590Y-73325990D02*
X58496200Y-73253600D01*
X58496200Y-73253600D02*
X58496200Y-73380600D01*
X59115960Y-73325990D02*
X58568590Y-73325990D01*
X57559700Y-73380600D02*
X58496200Y-73380600D01*
X58496200Y-73380600D02*
X59061350Y-73380600D01*
X60893200Y-71348600D02*
X60893200Y-72253600D01*
X60893200Y-72253600D02*
X60615551Y-72531249D01*
X60615551Y-72531249D02*
X58837551Y-72531249D01*
X58837551Y-72531249D02*
X58496200Y-72872600D01*
X57480200Y-74345100D02*
X57480200Y-73460100D01*
X57480200Y-73460100D02*
X57559700Y-73380600D01*
X60897200Y-67665600D02*
X60770200Y-67538600D01*
X60770200Y-69189600D02*
X60770200Y-67538600D01*
X60893200Y-69312600D02*
X60770200Y-69189600D01*
D47*
X59115960Y-74081640D02*
X59115960Y-73325990D01*
X59115960Y-73325990D02*
X59043570Y-73253600D01*
X64767200Y-85882600D02*
X57967200Y-85882600D01*
X99767200Y-85882600D02*
X97786200Y-85882600D01*
X97786200Y-85882600D02*
X92967200Y-85882600D01*
D43*
X91718200Y-72110600D02*
X90868174Y-72110600D01*
X90868174Y-72110600D02*
X90881200Y-72110600D01*
D45*
X90373200Y-72110600D02*
X90868174Y-72110600D01*
D48*
X90119200Y-70447600D02*
X90119200Y-71983600D01*
X90119200Y-71983600D02*
X90246200Y-72110600D01*
X90246200Y-72110600D02*
X90373200Y-72110600D01*
D43*
X94300200Y-74259600D02*
X94300200Y-74329010D01*
X94300200Y-74329010D02*
X94215699Y-74413511D01*
X94215699Y-74413511D02*
X94215699Y-74808601D01*
X94215699Y-74808601D02*
X93865700Y-75158600D01*
X94300200Y-73577600D02*
X94300200Y-74259600D01*
X79959200Y-70078600D02*
X79959200Y-70713600D01*
X79959200Y-70713600D02*
X79959200Y-71348600D01*
D48*
X80721200Y-70713600D02*
X79959200Y-70713600D01*
X80848200Y-70840600D02*
X80721200Y-70713600D01*
X83261200Y-70840600D02*
X80848200Y-70840600D01*
X87325200Y-70951600D02*
X83372200Y-70951600D01*
X83372200Y-70951600D02*
X83261200Y-70840600D01*
X90119200Y-70447600D02*
X87829200Y-70447600D01*
X87829200Y-70447600D02*
X87325200Y-70951600D01*
D43*
X92335200Y-72112600D02*
X91720200Y-72112600D01*
X91720200Y-72112600D02*
X91718200Y-72110600D01*
X79959200Y-68808600D02*
X79959200Y-70078600D01*
D48*
X103232200Y-76382600D02*
X103232200Y-74047600D01*
X103232200Y-74047600D02*
X102692200Y-73507600D01*
D43*
X92834200Y-75158600D02*
X92431200Y-75158600D01*
X92431200Y-75158600D02*
X91923200Y-75666600D01*
X93800200Y-73577600D02*
X93800200Y-74192600D01*
X93800200Y-74192600D02*
X92834200Y-75158600D01*
D46*
X91532200Y-77444600D02*
X91532200Y-76057600D01*
X91532200Y-76057600D02*
X91923200Y-75666600D01*
X87071200Y-77724000D02*
X91252800Y-77724000D01*
X91252800Y-77724000D02*
X91532200Y-77444600D01*
D43*
X94800200Y-73577600D02*
X94800200Y-75128600D01*
X94800200Y-75128600D02*
X94957200Y-75285600D01*
X92335200Y-71612600D02*
X91462700Y-71612600D01*
X91462700Y-71612600D02*
X91135200Y-71285100D01*
D44*
X85293200Y-58140600D02*
X84101940Y-56949340D01*
X84101940Y-56949340D02*
X84101940Y-56362600D01*
X85293200Y-59918600D02*
X85293200Y-58140600D01*
X91262200Y-65887600D02*
X85293200Y-59918600D01*
X91262200Y-67157600D02*
X91262200Y-65887600D01*
D43*
X91643200Y-72872600D02*
X91643200Y-72689600D01*
X91643200Y-72689600D02*
X91720200Y-72612600D01*
X91720200Y-72612600D02*
X92335200Y-72612600D01*
D48*
X91319350Y-72872600D02*
X91643200Y-72872600D01*
X87071200Y-73863200D02*
X90328750Y-73863200D01*
X90328750Y-73863200D02*
X91319350Y-72872600D01*
X104502200Y-76382600D02*
X104502200Y-61093600D01*
X104502200Y-61093600D02*
X101041200Y-57632600D01*
X101041200Y-57632600D02*
X101041200Y-42797600D01*
X101041200Y-42797600D02*
X103212200Y-40626600D01*
X103212200Y-38582600D02*
X103212200Y-36402600D01*
X103212200Y-36402600D02*
X103232200Y-36382600D01*
X103212200Y-40626600D02*
X103212200Y-38582600D01*
D43*
X103232200Y-36382600D02*
X103232200Y-38562600D01*
X103232200Y-38562600D02*
X103212200Y-38582600D01*
D48*
X56176998Y-25755600D02*
X54051200Y-27881398D01*
X54051200Y-27881398D02*
X54051200Y-34137600D01*
X54051200Y-34137600D02*
X53232200Y-34956600D01*
X52932200Y-38582600D02*
X52932200Y-36682600D01*
X52932200Y-36682600D02*
X53232200Y-36382600D01*
X53232200Y-34956600D02*
X53232200Y-36382600D01*
X102819200Y-25755600D02*
X56176998Y-25755600D01*
X104502200Y-27438600D02*
X102819200Y-25755600D01*
X104502200Y-36382600D02*
X104502200Y-27438600D01*
D43*
X104502200Y-36382600D02*
X104502200Y-38372600D01*
X104502200Y-38372600D02*
X104712200Y-38582600D01*
D48*
X54432200Y-38582600D02*
X57035700Y-38582600D01*
X54502200Y-37947600D02*
X54502200Y-38548074D01*
X55075199Y-72864601D02*
X54432200Y-73507600D01*
X54502200Y-37947600D02*
X54502200Y-38512600D01*
X54502200Y-36382600D02*
X54502200Y-37947600D01*
X53232200Y-76382600D02*
X53232200Y-79037600D01*
X53232200Y-79037600D02*
X53047200Y-79222600D01*
X54432200Y-73507600D02*
X53232200Y-74707600D01*
X53232200Y-74707600D02*
X53232200Y-76382600D01*
X54432200Y-38582600D02*
X54432200Y-38782600D01*
D43*
X54502200Y-38512600D02*
X54432200Y-38582600D01*
X64020700Y-41567100D02*
X64667700Y-41567100D01*
X64667700Y-41567100D02*
X65227200Y-41007600D01*
X63637200Y-42757600D02*
X63637200Y-41950600D01*
X63637200Y-41950600D02*
X64020700Y-41567100D01*
X74020680Y-62748160D02*
X74020680Y-62629414D01*
X74020680Y-62629414D02*
X73333866Y-61942600D01*
X65227200Y-41007600D02*
X65027200Y-41007600D01*
X63637200Y-42397600D02*
X63637200Y-42757600D01*
X63957200Y-44742100D02*
X66179700Y-44742100D01*
X66179700Y-44742100D02*
X66243200Y-44805600D01*
X59021980Y-62748160D02*
X59021980Y-64319976D01*
X59021980Y-64319976D02*
X60749402Y-66047398D01*
X66116200Y-44678600D02*
X66243200Y-44805600D01*
X68021200Y-62748160D02*
X67650190Y-63119170D01*
X67650190Y-63119170D02*
X67614630Y-63119170D01*
X67614630Y-63119170D02*
X67513200Y-63220600D01*
X67513200Y-63220600D02*
X67513200Y-63638703D01*
X67513200Y-63638703D02*
X67630210Y-63755713D01*
X67630210Y-63755713D02*
X67630210Y-66639610D01*
X67630210Y-66639610D02*
X67640200Y-66649600D01*
X59004200Y-62765940D02*
X59021980Y-62748160D01*
X67005200Y-45567600D02*
X66243200Y-44805600D01*
X67005200Y-46164600D02*
X67005200Y-45567600D01*
X67005200Y-46964600D02*
X67005200Y-46164600D01*
X60520580Y-62748160D02*
X60520580Y-64863980D01*
X60520580Y-64863980D02*
X62115700Y-66459100D01*
X67259200Y-44805600D02*
X66507199Y-44053599D01*
X66507199Y-44053599D02*
X63058201Y-44053599D01*
X63058201Y-44053599D02*
X62987199Y-44124601D01*
X62987199Y-44124601D02*
X62687200Y-44424600D01*
X68920190Y-66576110D02*
X68910200Y-66586100D01*
X68910200Y-66586100D02*
X68910200Y-66967100D01*
X69519800Y-62865000D02*
X68920190Y-63464610D01*
X68920190Y-63464610D02*
X68920190Y-66576110D01*
X69519800Y-62748160D02*
X69519800Y-62865000D01*
X68124200Y-45313600D02*
X67767200Y-45313600D01*
X67767200Y-45313600D02*
X67259200Y-44805600D01*
X68275200Y-46964600D02*
X68275200Y-45464600D01*
X68275200Y-45464600D02*
X68124200Y-45313600D01*
X70497700Y-41630600D02*
X71196200Y-41630600D01*
X71196200Y-41630600D02*
X71465200Y-41630600D01*
X70942200Y-41884600D02*
X71196200Y-41630600D01*
X71465200Y-41630600D02*
X71892200Y-42057600D01*
X69874700Y-41007600D02*
X70497700Y-41630600D01*
X71892200Y-42757600D02*
X71892200Y-42057600D01*
X71892200Y-42057600D02*
X71846200Y-42011600D01*
X68402200Y-41007600D02*
X69545200Y-41007600D01*
X69545200Y-41007600D02*
X69874700Y-41007600D01*
X70942200Y-38582600D02*
X70307200Y-37947600D01*
D45*
X65100200Y-74777600D02*
X65100200Y-72638246D01*
X65100200Y-72638246D02*
X65107710Y-72630736D01*
X65107710Y-72630736D02*
X65107710Y-71807831D01*
X65107710Y-71807831D02*
X64989090Y-71689211D01*
X64989090Y-71689211D02*
X64989090Y-70443710D01*
X64989090Y-70443710D02*
X65354200Y-70078600D01*
X65354200Y-70078600D02*
X66243200Y-70078600D01*
X65100200Y-74777600D02*
X65989200Y-74777600D01*
X62687200Y-74777600D02*
X65100200Y-74777600D01*
X65989200Y-74777600D02*
X66243200Y-75031600D01*
X59310270Y-75031600D02*
X61624977Y-75031600D01*
X61624977Y-75031600D02*
X61878977Y-74777600D01*
X61878977Y-74777600D02*
X62687200Y-74777600D01*
D47*
X59115960Y-75981560D02*
X59115960Y-75225910D01*
X59115960Y-75225910D02*
X59310270Y-75031600D01*
D43*
X58115200Y-77157580D02*
X58127200Y-77169580D01*
X58127200Y-77169580D02*
X58127200Y-77889100D01*
X59115960Y-75981560D02*
X59115960Y-76156820D01*
X59115960Y-76156820D02*
X58115200Y-77157580D01*
X66243200Y-76301600D02*
X66243200Y-75031600D01*
X66243200Y-73761600D02*
X66243200Y-75031600D01*
X66243200Y-68808600D02*
X66243200Y-70078600D01*
X66243200Y-67538600D02*
X66243200Y-68808600D01*
X68691200Y-43408600D02*
X67387610Y-43408600D01*
X65927200Y-42507600D02*
X65227200Y-42507600D01*
X67387610Y-43408600D02*
X66486610Y-42507600D01*
X66486610Y-42507600D02*
X65927200Y-42507600D01*
X69992200Y-42757600D02*
X69342200Y-42757600D01*
X69342200Y-42757600D02*
X68691200Y-43408600D01*
X65227200Y-42507600D02*
X65683700Y-42507600D01*
X69992200Y-42757600D02*
X69992200Y-42898100D01*
X65735200Y-64964600D02*
X65735200Y-62141100D01*
X71831200Y-61887100D02*
X71617959Y-61673859D01*
X71617959Y-61673859D02*
X65942559Y-61673859D01*
X65942559Y-61673859D02*
X65735200Y-61881218D01*
X65735200Y-61881218D02*
X65735200Y-62141100D01*
X65735200Y-64964600D02*
X65735200Y-66522600D01*
X65735200Y-66522600D02*
X65100200Y-67157600D01*
X65100200Y-67157600D02*
X64973200Y-67157600D01*
X64973200Y-67157600D02*
X64709201Y-67421599D01*
X64709201Y-67421599D02*
X64165199Y-67421599D01*
X64165199Y-67421599D02*
X63691200Y-67895598D01*
X63691200Y-67895598D02*
X63691200Y-68237100D01*
X70942200Y-40757600D02*
X71656700Y-40757600D01*
X71656700Y-40757600D02*
X72847200Y-41948100D01*
X72847200Y-41948100D02*
X72847200Y-43218100D01*
X72847200Y-43218100D02*
X72910700Y-43281600D01*
X61737200Y-42757600D02*
X61737200Y-40167600D01*
X61737200Y-40167600D02*
X62169201Y-39735599D01*
X62169201Y-39735599D02*
X65430199Y-39735599D01*
X65430199Y-39735599D02*
X68202200Y-42507600D01*
X68202200Y-42507600D02*
X68402200Y-42507600D01*
X61737200Y-42807600D02*
X61737200Y-42757600D01*
X68402200Y-42507600D02*
X68263200Y-42507600D01*
X77165200Y-45352001D02*
X74857630Y-45352001D01*
X74857630Y-45352001D02*
X74501729Y-44996100D01*
X74501729Y-44996100D02*
X68783200Y-44996100D01*
X68783200Y-44996100D02*
X67645710Y-43858610D01*
X67645710Y-43858610D02*
X67201210Y-43858610D01*
X67201210Y-43858610D02*
X66875201Y-43532601D01*
X66875201Y-43532601D02*
X62977199Y-43532601D01*
X62977199Y-43532601D02*
X62687200Y-43242602D01*
X62687200Y-43242602D02*
X62687200Y-40757600D01*
X77204000Y-45313201D02*
X77165200Y-45352001D01*
X77165200Y-45352001D02*
X78892601Y-45352001D01*
X77204000Y-44577000D02*
X77204000Y-45313201D01*
X78892601Y-45352001D02*
X79705200Y-46164600D01*
X79705200Y-46164600D02*
X79705200Y-46964600D01*
X77204000Y-44777000D02*
X77204000Y-44577000D01*
X62687200Y-40707600D02*
X62687200Y-40757600D01*
X72529700Y-50182864D02*
X72529700Y-49260760D01*
X72529700Y-49260760D02*
X72519540Y-49250600D01*
X73291700Y-50520600D02*
X72867436Y-50520600D01*
X72867436Y-50520600D02*
X72529700Y-50182864D01*
X72529700Y-66776600D02*
X72339200Y-66586100D01*
X72783700Y-66776600D02*
X72529700Y-66776600D01*
X71963700Y-66586100D02*
X72339200Y-66586100D01*
X69989700Y-67411600D02*
X69989700Y-71285100D01*
X70815200Y-66586100D02*
X69989700Y-67411600D01*
X71963700Y-66586100D02*
X70815200Y-66586100D01*
X72085200Y-64964600D02*
X72085200Y-66464600D01*
X72085200Y-66464600D02*
X71963700Y-66586100D01*
X57353200Y-76555600D02*
X57353200Y-75972100D01*
X57353200Y-75972100D02*
X57480200Y-75845100D01*
X61925200Y-73253600D02*
X62433200Y-72745600D01*
X62433200Y-72745600D02*
X62433200Y-72618600D01*
X59969590Y-73253600D02*
X61925200Y-73253600D01*
X59766200Y-74081640D02*
X59766200Y-73456990D01*
X59766200Y-73456990D02*
X59969590Y-73253600D01*
X59001700Y-78714600D02*
X57667698Y-78714600D01*
X56400700Y-77447602D02*
X56400700Y-75476100D01*
X57667698Y-78714600D02*
X56400700Y-77447602D01*
X59627200Y-77889100D02*
X59627200Y-78089100D01*
X59627200Y-78089100D02*
X59001700Y-78714600D01*
X72327200Y-34772600D02*
X58686700Y-34772600D01*
X75467200Y-30882600D02*
X75467200Y-31632600D01*
X75467200Y-31632600D02*
X72327200Y-34772600D01*
D48*
X82267200Y-30882600D02*
X75467200Y-30882600D01*
D47*
X60528200Y-77889100D02*
X59627200Y-77889100D01*
X62623700Y-77889100D02*
X60528200Y-77889100D01*
X60528200Y-76870750D02*
X60340050Y-76682600D01*
X60528200Y-77889100D02*
X60528200Y-76870750D01*
D43*
X59766200Y-75981560D02*
X59766200Y-76606210D01*
X59766200Y-76606210D02*
X59842590Y-76682600D01*
X59842590Y-76682600D02*
X60340050Y-76682600D01*
X60340050Y-76682600D02*
X60416440Y-76606210D01*
X60416440Y-76606210D02*
X60416440Y-75981560D01*
D47*
X64211200Y-79476600D02*
X62623700Y-77889100D01*
X65735200Y-79476600D02*
X64211200Y-79476600D01*
X68148200Y-81889600D02*
X65735200Y-79476600D01*
X73479200Y-81889600D02*
X68148200Y-81889600D01*
X75467200Y-81882600D02*
X73486200Y-81882600D01*
X73486200Y-81882600D02*
X73479200Y-81889600D01*
X82267200Y-81882600D02*
X80286200Y-81882600D01*
X80286200Y-81882600D02*
X75467200Y-81882600D01*
D43*
X99263200Y-74384600D02*
X98563200Y-74384600D01*
X98563200Y-74384600D02*
X97993200Y-73814600D01*
X97993200Y-73814600D02*
X97993200Y-71856600D01*
X97993200Y-71856600D02*
X97749200Y-71612600D01*
X97749200Y-71612600D02*
X96265200Y-71612600D01*
X99505200Y-75793600D02*
X99505200Y-74626600D01*
X99505200Y-74626600D02*
X99263200Y-74384600D01*
X97106200Y-72112600D02*
X97543190Y-72549590D01*
X97543190Y-72549590D02*
X97543190Y-74631590D01*
X97543190Y-74631590D02*
X98005200Y-75093600D01*
X98005200Y-75093600D02*
X98005200Y-75793600D01*
X96265200Y-72112600D02*
X97106200Y-72112600D01*
X97473200Y-77063600D02*
X97473200Y-76325600D01*
X97473200Y-76325600D02*
X98005200Y-75793600D01*
X99263200Y-71729600D02*
X99263200Y-72884600D01*
X95300200Y-69647600D02*
X95700200Y-69647600D01*
X95700200Y-69647600D02*
X96031200Y-69316600D01*
X96031200Y-69316600D02*
X97866200Y-69316600D01*
X97866200Y-69316600D02*
X98488199Y-69938599D01*
X98488199Y-69938599D02*
X98488199Y-71654599D01*
X98488199Y-71654599D02*
X98563200Y-71729600D01*
X98563200Y-71729600D02*
X99263200Y-71729600D01*
X99263200Y-70229600D02*
X99263200Y-68554600D01*
X94800200Y-68953600D02*
X95199200Y-68554600D01*
X95199200Y-68554600D02*
X99263200Y-68554600D01*
X94800200Y-69647600D02*
X94800200Y-68953600D01*
X77800200Y-66967100D02*
X78371700Y-67538600D01*
X78371700Y-67538600D02*
X78435200Y-67538600D01*
X77038200Y-68935600D02*
X77800200Y-68173600D01*
X77800200Y-68173600D02*
X78435200Y-67538600D01*
X96265200Y-71112600D02*
X97233453Y-71112600D01*
X97233453Y-71112600D02*
X97615061Y-70730992D01*
X66243200Y-71348600D02*
X67229800Y-71348600D01*
X76276200Y-71983600D02*
X77038200Y-71221600D01*
X77038200Y-71221600D02*
X77038200Y-68935600D01*
X67229800Y-71348600D02*
X67864800Y-71983600D01*
X67864800Y-71983600D02*
X76276200Y-71983600D01*
X78435200Y-67538600D02*
X79959200Y-67538600D01*
X79959200Y-73761600D02*
X82499200Y-73761600D01*
X82499200Y-73761600D02*
X83843641Y-72417159D01*
X83843641Y-72417159D02*
X83843641Y-72163159D01*
X83843641Y-72163159D02*
X83896200Y-72110600D01*
X96265200Y-70612600D02*
X96265200Y-70155600D01*
X96342200Y-70078600D02*
X96977200Y-70078600D01*
X96265200Y-70155600D02*
X96342200Y-70078600D01*
X76403200Y-78333600D02*
X67991800Y-78333600D01*
X67991800Y-78333600D02*
X67229800Y-77571600D01*
X67229800Y-77571600D02*
X66243200Y-77571600D01*
X77165200Y-77571600D02*
X76403200Y-78333600D01*
X77165200Y-75569000D02*
X77165200Y-77571600D01*
X79959200Y-73761600D02*
X78972600Y-73761600D01*
X78972600Y-73761600D02*
X77165200Y-75569000D01*
X74371200Y-71348600D02*
X73101200Y-71348600D01*
X73101200Y-71348600D02*
X71831200Y-71348600D01*
X73101200Y-70078600D02*
X73101200Y-71348600D01*
X71831200Y-70078600D02*
X73101200Y-70078600D01*
X73101200Y-70078600D02*
X74371200Y-70078600D01*
X73101200Y-68808600D02*
X73101200Y-70078600D01*
X73101200Y-67538600D02*
X74371200Y-67538600D01*
X72817800Y-67538600D02*
X73101200Y-67538600D01*
X74371200Y-68808600D02*
X73101200Y-68808600D01*
X73101200Y-68808600D02*
X72546400Y-68808600D01*
X73101200Y-67538600D02*
X73101200Y-68808600D01*
X71831200Y-67538600D02*
X72817800Y-67538600D01*
X72546400Y-68808600D02*
X71831200Y-68808600D01*
X74371200Y-77571600D02*
X73101200Y-77571600D01*
X73101200Y-77571600D02*
X71831200Y-77571600D01*
X73101200Y-76301600D02*
X73101200Y-77571600D01*
X72817800Y-76301600D02*
X73101200Y-76301600D01*
X73101200Y-76301600D02*
X74371200Y-76301600D01*
X73101200Y-75031600D02*
X73101200Y-76301600D01*
X73101200Y-73761600D02*
X74371200Y-73761600D01*
X71831200Y-73761600D02*
X73101200Y-73761600D01*
X73384600Y-75031600D02*
X73101200Y-75031600D01*
X73101200Y-73761600D02*
X73101200Y-75031600D01*
X73101200Y-75031600D02*
X71831200Y-75031600D01*
X71831200Y-76301600D02*
X72817800Y-76301600D01*
X74371200Y-75031600D02*
X73384600Y-75031600D01*
X95072200Y-66776600D02*
X95072200Y-68045190D01*
X95072200Y-68045190D02*
X94350191Y-68767199D01*
X94350191Y-68767199D02*
X94350191Y-68982609D01*
X94350191Y-68982609D02*
X94300200Y-69032600D01*
X94300200Y-69032600D02*
X94300200Y-69647600D01*
D49*
G36*
X103613200Y-32507240D02*
X103613200Y-35100160D01*
X102749600Y-35100160D01*
X102514283Y-35144438D01*
X102298159Y-35283510D01*
X102153169Y-35495710D01*
X102102160Y-35747600D01*
X102102160Y-37017600D01*
X102146438Y-37252917D01*
X102285510Y-37469041D01*
X102323200Y-37494793D01*
X102323200Y-38090922D01*
X102314760Y-38132600D01*
X102314760Y-39032600D01*
X102323200Y-39077455D01*
X102323200Y-40258364D01*
X100412582Y-42168982D01*
X100219871Y-42457394D01*
X100152200Y-42797600D01*
X100152200Y-57632600D01*
X100219871Y-57972806D01*
X100376659Y-58207456D01*
X100412582Y-58261218D01*
X103613200Y-61461836D01*
X103613200Y-72722468D01*
X103376520Y-72485375D01*
X102933241Y-72301310D01*
X102453265Y-72300891D01*
X102009665Y-72484182D01*
X101669975Y-72823280D01*
X101485910Y-73266559D01*
X101485491Y-73746535D01*
X101668782Y-74190135D01*
X102007880Y-74529825D01*
X102343200Y-74669062D01*
X102343200Y-75254527D01*
X102298159Y-75283510D01*
X102153169Y-75495710D01*
X102102160Y-75747600D01*
X102102160Y-77017600D01*
X102146438Y-77252917D01*
X102285510Y-77469041D01*
X102497710Y-77614031D01*
X102749600Y-77665040D01*
X103714800Y-77665040D01*
X103872795Y-77635311D01*
X104019600Y-77665040D01*
X104984800Y-77665040D01*
X105220117Y-77620762D01*
X105436241Y-77481690D01*
X105581231Y-77269490D01*
X105632240Y-77017600D01*
X105632240Y-75747600D01*
X105587962Y-75512283D01*
X105448890Y-75296159D01*
X105391200Y-75256741D01*
X105391200Y-61093600D01*
X105323529Y-60753394D01*
X105130818Y-60464982D01*
X102325720Y-57659884D01*
X102971521Y-57659884D01*
X103094674Y-57947512D01*
X103776897Y-58207456D01*
X104506666Y-58186538D01*
X105083726Y-57947512D01*
X105206879Y-57659884D01*
X104089200Y-56542205D01*
X102971521Y-57659884D01*
X102325720Y-57659884D01*
X101930200Y-57264364D01*
X101930200Y-56050297D01*
X102244344Y-56050297D01*
X102265262Y-56780066D01*
X102504288Y-57357126D01*
X102791916Y-57480279D01*
X103909595Y-56362600D01*
X102791916Y-55244921D01*
X102504288Y-55368074D01*
X102244344Y-56050297D01*
X101930200Y-56050297D01*
X101930200Y-55065316D01*
X102971521Y-55065316D01*
X104089200Y-56182995D01*
X105206879Y-55065316D01*
X105083726Y-54777688D01*
X104401503Y-54517744D01*
X103671734Y-54538662D01*
X103094674Y-54777688D01*
X102971521Y-55065316D01*
X101930200Y-55065316D01*
X101930200Y-43165836D01*
X103840818Y-41255218D01*
X104033530Y-40966805D01*
X104101200Y-40626600D01*
X104101200Y-39554479D01*
X104210310Y-39629031D01*
X104462200Y-39680040D01*
X104962200Y-39680040D01*
X105197517Y-39635762D01*
X105413641Y-39496690D01*
X105558631Y-39284490D01*
X105609640Y-39032600D01*
X105609640Y-38132600D01*
X105565362Y-37897283D01*
X105426290Y-37681159D01*
X105280773Y-37581731D01*
X105436241Y-37481690D01*
X105581231Y-37269490D01*
X105632240Y-37017600D01*
X105632240Y-35747600D01*
X105587962Y-35512283D01*
X105448890Y-35296159D01*
X105391200Y-35256741D01*
X105391200Y-32509102D01*
X105657200Y-32509380D01*
X105657200Y-55360833D01*
X105386484Y-55244921D01*
X104268805Y-56362600D01*
X105386484Y-57480279D01*
X105657200Y-57364367D01*
X105657200Y-80255600D01*
X97167700Y-80255600D01*
X97167700Y-80103302D01*
X97364425Y-79906920D01*
X97548490Y-79463641D01*
X97548909Y-78983665D01*
X97365618Y-78540065D01*
X97026520Y-78200375D01*
X96608166Y-78026660D01*
X96724136Y-77910690D01*
X96759110Y-77965041D01*
X96971310Y-78110031D01*
X97223200Y-78161040D01*
X97723200Y-78161040D01*
X97958517Y-78116762D01*
X98174641Y-77977690D01*
X98319631Y-77765490D01*
X98370640Y-77513600D01*
X98370640Y-76869318D01*
X98490517Y-76846762D01*
X98706641Y-76707690D01*
X98754334Y-76637889D01*
X98791110Y-76695041D01*
X99003310Y-76840031D01*
X99255200Y-76891040D01*
X99755200Y-76891040D01*
X99990517Y-76846762D01*
X100206641Y-76707690D01*
X100351631Y-76495490D01*
X100402640Y-76243600D01*
X100402640Y-75343600D01*
X100358362Y-75108283D01*
X100265200Y-74963505D01*
X100265200Y-74951517D01*
X100309631Y-74886490D01*
X100360640Y-74634600D01*
X100360640Y-74134600D01*
X100316362Y-73899283D01*
X100177290Y-73683159D01*
X100107489Y-73635466D01*
X100164641Y-73598690D01*
X100309631Y-73386490D01*
X100360640Y-73134600D01*
X100360640Y-72634600D01*
X100316362Y-72399283D01*
X100257493Y-72307797D01*
X100309631Y-72231490D01*
X100360640Y-71979600D01*
X100360640Y-71479600D01*
X100316362Y-71244283D01*
X100177290Y-71028159D01*
X100107489Y-70980466D01*
X100164641Y-70943690D01*
X100309631Y-70731490D01*
X100360640Y-70479600D01*
X100360640Y-69979600D01*
X100316362Y-69744283D01*
X100177290Y-69528159D01*
X100023200Y-69422874D01*
X100023200Y-69359705D01*
X100164641Y-69268690D01*
X100309631Y-69056490D01*
X100360640Y-68804600D01*
X100360640Y-68304600D01*
X100316362Y-68069283D01*
X100177290Y-67853159D01*
X100109194Y-67806631D01*
X100251527Y-67664298D01*
X100348200Y-67430909D01*
X100348200Y-67338350D01*
X100189450Y-67179600D01*
X99390200Y-67179600D01*
X99390200Y-67201600D01*
X99136200Y-67201600D01*
X99136200Y-67179600D01*
X98336950Y-67179600D01*
X98178200Y-67338350D01*
X98178200Y-67430909D01*
X98274873Y-67664298D01*
X98405174Y-67794600D01*
X96114074Y-67794600D01*
X96278490Y-67398641D01*
X96278909Y-66918665D01*
X96179589Y-66678291D01*
X98178200Y-66678291D01*
X98178200Y-66770850D01*
X98336950Y-66929600D01*
X99136200Y-66929600D01*
X99136200Y-66328350D01*
X99390200Y-66328350D01*
X99390200Y-66929600D01*
X100189450Y-66929600D01*
X100348200Y-66770850D01*
X100348200Y-66678291D01*
X100251527Y-66444902D01*
X100072899Y-66266273D01*
X99839510Y-66169600D01*
X99548950Y-66169600D01*
X99390200Y-66328350D01*
X99136200Y-66328350D01*
X98977450Y-66169600D01*
X98686890Y-66169600D01*
X98453501Y-66266273D01*
X98274873Y-66444902D01*
X98178200Y-66678291D01*
X96179589Y-66678291D01*
X96095618Y-66475065D01*
X95756520Y-66135375D01*
X95313241Y-65951310D01*
X94833265Y-65950891D01*
X94389665Y-66134182D01*
X94119700Y-66403677D01*
X94119700Y-65633605D01*
X94119701Y-65633600D01*
X94037529Y-65220494D01*
X93940255Y-65074914D01*
X93803522Y-64870278D01*
X93803519Y-64870276D01*
X88404700Y-59471456D01*
X88404700Y-51028600D01*
X88322528Y-50615493D01*
X88088522Y-50265278D01*
X86499700Y-48676456D01*
X86499700Y-44754002D01*
X86606746Y-44861235D01*
X87236669Y-45122802D01*
X87918739Y-45123397D01*
X88549117Y-44862930D01*
X89031835Y-44381054D01*
X89293402Y-43751131D01*
X89293861Y-43224646D01*
X98204759Y-43224646D01*
X98250752Y-43447133D01*
X98705055Y-43602005D01*
X99184044Y-43571233D01*
X99483648Y-43447133D01*
X99529641Y-43224646D01*
X98867200Y-42562205D01*
X98204759Y-43224646D01*
X89293861Y-43224646D01*
X89293997Y-43069061D01*
X89033530Y-42438683D01*
X88815683Y-42220455D01*
X97647795Y-42220455D01*
X97678567Y-42699444D01*
X97802667Y-42999048D01*
X98025154Y-43045041D01*
X98687595Y-42382600D01*
X99046805Y-42382600D01*
X99709246Y-43045041D01*
X99931733Y-42999048D01*
X100086605Y-42544745D01*
X100055833Y-42065756D01*
X99931733Y-41766152D01*
X99709246Y-41720159D01*
X99046805Y-42382600D01*
X98687595Y-42382600D01*
X98025154Y-41720159D01*
X97802667Y-41766152D01*
X97647795Y-42220455D01*
X88815683Y-42220455D01*
X88551654Y-41955965D01*
X87921731Y-41694398D01*
X87239661Y-41693803D01*
X86609283Y-41954270D01*
X86499700Y-42063662D01*
X86499700Y-41540554D01*
X98204759Y-41540554D01*
X98867200Y-42202995D01*
X99529641Y-41540554D01*
X99483648Y-41318067D01*
X99029345Y-41163195D01*
X98550356Y-41193967D01*
X98250752Y-41318067D01*
X98204759Y-41540554D01*
X86499700Y-41540554D01*
X86499700Y-41122605D01*
X86499701Y-41122600D01*
X86417528Y-40709494D01*
X86417528Y-40709493D01*
X86183522Y-40359278D01*
X86183519Y-40359276D01*
X85548522Y-39724278D01*
X85500621Y-39676377D01*
X86411028Y-39676377D01*
X86542720Y-39971257D01*
X87250236Y-40242861D01*
X88007832Y-40223036D01*
X88615680Y-39971257D01*
X88747372Y-39676377D01*
X87579200Y-38508205D01*
X86411028Y-39676377D01*
X85500621Y-39676377D01*
X84018076Y-38193832D01*
X84018246Y-37999636D01*
X85664939Y-37999636D01*
X85684764Y-38757232D01*
X85936543Y-39365080D01*
X86231423Y-39496772D01*
X87399595Y-38328600D01*
X87758805Y-38328600D01*
X88926977Y-39496772D01*
X89221857Y-39365080D01*
X89493461Y-38657564D01*
X89473636Y-37899968D01*
X89221857Y-37292120D01*
X88926977Y-37160428D01*
X87758805Y-38328600D01*
X87399595Y-38328600D01*
X86231423Y-37160428D01*
X85936543Y-37292120D01*
X85664939Y-37999636D01*
X84018246Y-37999636D01*
X84018880Y-37278149D01*
X84104117Y-37242930D01*
X84366681Y-36980823D01*
X86411028Y-36980823D01*
X87579200Y-38148995D01*
X88747372Y-36980823D01*
X88615680Y-36685943D01*
X87908164Y-36414339D01*
X87150568Y-36434164D01*
X86542720Y-36685943D01*
X86411028Y-36980823D01*
X84366681Y-36980823D01*
X84586835Y-36761054D01*
X84848402Y-36131131D01*
X84848997Y-35449061D01*
X84588530Y-34818683D01*
X84106654Y-34335965D01*
X84021495Y-34300604D01*
X84022644Y-32992600D01*
X89992200Y-32992600D01*
X90283039Y-32934748D01*
X90529601Y-32770001D01*
X90535983Y-32763619D01*
X91846308Y-34073944D01*
X91684661Y-34073803D01*
X91054283Y-34334270D01*
X90571565Y-34816146D01*
X90309998Y-35446069D01*
X90309403Y-36128139D01*
X90569870Y-36758517D01*
X91051746Y-37241235D01*
X91681669Y-37502802D01*
X92363739Y-37503397D01*
X92994117Y-37242930D01*
X93476835Y-36761054D01*
X93738402Y-36131131D01*
X93738997Y-35449061D01*
X93564440Y-35026600D01*
X95524887Y-35026600D01*
X95657880Y-35159825D01*
X96101159Y-35343890D01*
X96581135Y-35344309D01*
X97024735Y-35161018D01*
X97364425Y-34821920D01*
X97548490Y-34378641D01*
X97548909Y-33898665D01*
X97365618Y-33455065D01*
X97026520Y-33115375D01*
X96583241Y-32931310D01*
X96103265Y-32930891D01*
X95659665Y-33114182D01*
X95525012Y-33248600D01*
X93535436Y-33248600D01*
X92782739Y-32495903D01*
X103613200Y-32507240D01*
X103613200Y-32507240D01*
G37*
X103613200Y-32507240D02*
X103613200Y-35100160D01*
X102749600Y-35100160D01*
X102514283Y-35144438D01*
X102298159Y-35283510D01*
X102153169Y-35495710D01*
X102102160Y-35747600D01*
X102102160Y-37017600D01*
X102146438Y-37252917D01*
X102285510Y-37469041D01*
X102323200Y-37494793D01*
X102323200Y-38090922D01*
X102314760Y-38132600D01*
X102314760Y-39032600D01*
X102323200Y-39077455D01*
X102323200Y-40258364D01*
X100412582Y-42168982D01*
X100219871Y-42457394D01*
X100152200Y-42797600D01*
X100152200Y-57632600D01*
X100219871Y-57972806D01*
X100376659Y-58207456D01*
X100412582Y-58261218D01*
X103613200Y-61461836D01*
X103613200Y-72722468D01*
X103376520Y-72485375D01*
X102933241Y-72301310D01*
X102453265Y-72300891D01*
X102009665Y-72484182D01*
X101669975Y-72823280D01*
X101485910Y-73266559D01*
X101485491Y-73746535D01*
X101668782Y-74190135D01*
X102007880Y-74529825D01*
X102343200Y-74669062D01*
X102343200Y-75254527D01*
X102298159Y-75283510D01*
X102153169Y-75495710D01*
X102102160Y-75747600D01*
X102102160Y-77017600D01*
X102146438Y-77252917D01*
X102285510Y-77469041D01*
X102497710Y-77614031D01*
X102749600Y-77665040D01*
X103714800Y-77665040D01*
X103872795Y-77635311D01*
X104019600Y-77665040D01*
X104984800Y-77665040D01*
X105220117Y-77620762D01*
X105436241Y-77481690D01*
X105581231Y-77269490D01*
X105632240Y-77017600D01*
X105632240Y-75747600D01*
X105587962Y-75512283D01*
X105448890Y-75296159D01*
X105391200Y-75256741D01*
X105391200Y-61093600D01*
X105323529Y-60753394D01*
X105130818Y-60464982D01*
X102325720Y-57659884D01*
X102971521Y-57659884D01*
X103094674Y-57947512D01*
X103776897Y-58207456D01*
X104506666Y-58186538D01*
X105083726Y-57947512D01*
X105206879Y-57659884D01*
X104089200Y-56542205D01*
X102971521Y-57659884D01*
X102325720Y-57659884D01*
X101930200Y-57264364D01*
X101930200Y-56050297D01*
X102244344Y-56050297D01*
X102265262Y-56780066D01*
X102504288Y-57357126D01*
X102791916Y-57480279D01*
X103909595Y-56362600D01*
X102791916Y-55244921D01*
X102504288Y-55368074D01*
X102244344Y-56050297D01*
X101930200Y-56050297D01*
X101930200Y-55065316D01*
X102971521Y-55065316D01*
X104089200Y-56182995D01*
X105206879Y-55065316D01*
X105083726Y-54777688D01*
X104401503Y-54517744D01*
X103671734Y-54538662D01*
X103094674Y-54777688D01*
X102971521Y-55065316D01*
X101930200Y-55065316D01*
X101930200Y-43165836D01*
X103840818Y-41255218D01*
X104033530Y-40966805D01*
X104101200Y-40626600D01*
X104101200Y-39554479D01*
X104210310Y-39629031D01*
X104462200Y-39680040D01*
X104962200Y-39680040D01*
X105197517Y-39635762D01*
X105413641Y-39496690D01*
X105558631Y-39284490D01*
X105609640Y-39032600D01*
X105609640Y-38132600D01*
X105565362Y-37897283D01*
X105426290Y-37681159D01*
X105280773Y-37581731D01*
X105436241Y-37481690D01*
X105581231Y-37269490D01*
X105632240Y-37017600D01*
X105632240Y-35747600D01*
X105587962Y-35512283D01*
X105448890Y-35296159D01*
X105391200Y-35256741D01*
X105391200Y-32509102D01*
X105657200Y-32509380D01*
X105657200Y-55360833D01*
X105386484Y-55244921D01*
X104268805Y-56362600D01*
X105386484Y-57480279D01*
X105657200Y-57364367D01*
X105657200Y-80255600D01*
X97167700Y-80255600D01*
X97167700Y-80103302D01*
X97364425Y-79906920D01*
X97548490Y-79463641D01*
X97548909Y-78983665D01*
X97365618Y-78540065D01*
X97026520Y-78200375D01*
X96608166Y-78026660D01*
X96724136Y-77910690D01*
X96759110Y-77965041D01*
X96971310Y-78110031D01*
X97223200Y-78161040D01*
X97723200Y-78161040D01*
X97958517Y-78116762D01*
X98174641Y-77977690D01*
X98319631Y-77765490D01*
X98370640Y-77513600D01*
X98370640Y-76869318D01*
X98490517Y-76846762D01*
X98706641Y-76707690D01*
X98754334Y-76637889D01*
X98791110Y-76695041D01*
X99003310Y-76840031D01*
X99255200Y-76891040D01*
X99755200Y-76891040D01*
X99990517Y-76846762D01*
X100206641Y-76707690D01*
X100351631Y-76495490D01*
X100402640Y-76243600D01*
X100402640Y-75343600D01*
X100358362Y-75108283D01*
X100265200Y-74963505D01*
X100265200Y-74951517D01*
X100309631Y-74886490D01*
X100360640Y-74634600D01*
X100360640Y-74134600D01*
X100316362Y-73899283D01*
X100177290Y-73683159D01*
X100107489Y-73635466D01*
X100164641Y-73598690D01*
X100309631Y-73386490D01*
X100360640Y-73134600D01*
X100360640Y-72634600D01*
X100316362Y-72399283D01*
X100257493Y-72307797D01*
X100309631Y-72231490D01*
X100360640Y-71979600D01*
X100360640Y-71479600D01*
X100316362Y-71244283D01*
X100177290Y-71028159D01*
X100107489Y-70980466D01*
X100164641Y-70943690D01*
X100309631Y-70731490D01*
X100360640Y-70479600D01*
X100360640Y-69979600D01*
X100316362Y-69744283D01*
X100177290Y-69528159D01*
X100023200Y-69422874D01*
X100023200Y-69359705D01*
X100164641Y-69268690D01*
X100309631Y-69056490D01*
X100360640Y-68804600D01*
X100360640Y-68304600D01*
X100316362Y-68069283D01*
X100177290Y-67853159D01*
X100109194Y-67806631D01*
X100251527Y-67664298D01*
X100348200Y-67430909D01*
X100348200Y-67338350D01*
X100189450Y-67179600D01*
X99390200Y-67179600D01*
X99390200Y-67201600D01*
X99136200Y-67201600D01*
X99136200Y-67179600D01*
X98336950Y-67179600D01*
X98178200Y-67338350D01*
X98178200Y-67430909D01*
X98274873Y-67664298D01*
X98405174Y-67794600D01*
X96114074Y-67794600D01*
X96278490Y-67398641D01*
X96278909Y-66918665D01*
X96179589Y-66678291D01*
X98178200Y-66678291D01*
X98178200Y-66770850D01*
X98336950Y-66929600D01*
X99136200Y-66929600D01*
X99136200Y-66328350D01*
X99390200Y-66328350D01*
X99390200Y-66929600D01*
X100189450Y-66929600D01*
X100348200Y-66770850D01*
X100348200Y-66678291D01*
X100251527Y-66444902D01*
X100072899Y-66266273D01*
X99839510Y-66169600D01*
X99548950Y-66169600D01*
X99390200Y-66328350D01*
X99136200Y-66328350D01*
X98977450Y-66169600D01*
X98686890Y-66169600D01*
X98453501Y-66266273D01*
X98274873Y-66444902D01*
X98178200Y-66678291D01*
X96179589Y-66678291D01*
X96095618Y-66475065D01*
X95756520Y-66135375D01*
X95313241Y-65951310D01*
X94833265Y-65950891D01*
X94389665Y-66134182D01*
X94119700Y-66403677D01*
X94119700Y-65633605D01*
X94119701Y-65633600D01*
X94037529Y-65220494D01*
X93940255Y-65074914D01*
X93803522Y-64870278D01*
X93803519Y-64870276D01*
X88404700Y-59471456D01*
X88404700Y-51028600D01*
X88322528Y-50615493D01*
X88088522Y-50265278D01*
X86499700Y-48676456D01*
X86499700Y-44754002D01*
X86606746Y-44861235D01*
X87236669Y-45122802D01*
X87918739Y-45123397D01*
X88549117Y-44862930D01*
X89031835Y-44381054D01*
X89293402Y-43751131D01*
X89293861Y-43224646D01*
X98204759Y-43224646D01*
X98250752Y-43447133D01*
X98705055Y-43602005D01*
X99184044Y-43571233D01*
X99483648Y-43447133D01*
X99529641Y-43224646D01*
X98867200Y-42562205D01*
X98204759Y-43224646D01*
X89293861Y-43224646D01*
X89293997Y-43069061D01*
X89033530Y-42438683D01*
X88815683Y-42220455D01*
X97647795Y-42220455D01*
X97678567Y-42699444D01*
X97802667Y-42999048D01*
X98025154Y-43045041D01*
X98687595Y-42382600D01*
X99046805Y-42382600D01*
X99709246Y-43045041D01*
X99931733Y-42999048D01*
X100086605Y-42544745D01*
X100055833Y-42065756D01*
X99931733Y-41766152D01*
X99709246Y-41720159D01*
X99046805Y-42382600D01*
X98687595Y-42382600D01*
X98025154Y-41720159D01*
X97802667Y-41766152D01*
X97647795Y-42220455D01*
X88815683Y-42220455D01*
X88551654Y-41955965D01*
X87921731Y-41694398D01*
X87239661Y-41693803D01*
X86609283Y-41954270D01*
X86499700Y-42063662D01*
X86499700Y-41540554D01*
X98204759Y-41540554D01*
X98867200Y-42202995D01*
X99529641Y-41540554D01*
X99483648Y-41318067D01*
X99029345Y-41163195D01*
X98550356Y-41193967D01*
X98250752Y-41318067D01*
X98204759Y-41540554D01*
X86499700Y-41540554D01*
X86499700Y-41122605D01*
X86499701Y-41122600D01*
X86417528Y-40709494D01*
X86417528Y-40709493D01*
X86183522Y-40359278D01*
X86183519Y-40359276D01*
X85548522Y-39724278D01*
X85500621Y-39676377D01*
X86411028Y-39676377D01*
X86542720Y-39971257D01*
X87250236Y-40242861D01*
X88007832Y-40223036D01*
X88615680Y-39971257D01*
X88747372Y-39676377D01*
X87579200Y-38508205D01*
X86411028Y-39676377D01*
X85500621Y-39676377D01*
X84018076Y-38193832D01*
X84018246Y-37999636D01*
X85664939Y-37999636D01*
X85684764Y-38757232D01*
X85936543Y-39365080D01*
X86231423Y-39496772D01*
X87399595Y-38328600D01*
X87758805Y-38328600D01*
X88926977Y-39496772D01*
X89221857Y-39365080D01*
X89493461Y-38657564D01*
X89473636Y-37899968D01*
X89221857Y-37292120D01*
X88926977Y-37160428D01*
X87758805Y-38328600D01*
X87399595Y-38328600D01*
X86231423Y-37160428D01*
X85936543Y-37292120D01*
X85664939Y-37999636D01*
X84018246Y-37999636D01*
X84018880Y-37278149D01*
X84104117Y-37242930D01*
X84366681Y-36980823D01*
X86411028Y-36980823D01*
X87579200Y-38148995D01*
X88747372Y-36980823D01*
X88615680Y-36685943D01*
X87908164Y-36414339D01*
X87150568Y-36434164D01*
X86542720Y-36685943D01*
X86411028Y-36980823D01*
X84366681Y-36980823D01*
X84586835Y-36761054D01*
X84848402Y-36131131D01*
X84848997Y-35449061D01*
X84588530Y-34818683D01*
X84106654Y-34335965D01*
X84021495Y-34300604D01*
X84022644Y-32992600D01*
X89992200Y-32992600D01*
X90283039Y-32934748D01*
X90529601Y-32770001D01*
X90535983Y-32763619D01*
X91846308Y-34073944D01*
X91684661Y-34073803D01*
X91054283Y-34334270D01*
X90571565Y-34816146D01*
X90309998Y-35446069D01*
X90309403Y-36128139D01*
X90569870Y-36758517D01*
X91051746Y-37241235D01*
X91681669Y-37502802D01*
X92363739Y-37503397D01*
X92994117Y-37242930D01*
X93476835Y-36761054D01*
X93738402Y-36131131D01*
X93738997Y-35449061D01*
X93564440Y-35026600D01*
X95524887Y-35026600D01*
X95657880Y-35159825D01*
X96101159Y-35343890D01*
X96581135Y-35344309D01*
X97024735Y-35161018D01*
X97364425Y-34821920D01*
X97548490Y-34378641D01*
X97548909Y-33898665D01*
X97365618Y-33455065D01*
X97026520Y-33115375D01*
X96583241Y-32931310D01*
X96103265Y-32930891D01*
X95659665Y-33114182D01*
X95525012Y-33248600D01*
X93535436Y-33248600D01*
X92782739Y-32495903D01*
X103613200Y-32507240D01*
G36*
X93307014Y-75993155D02*
X93668912Y-76143428D01*
X94060769Y-76143770D01*
X94109860Y-76123486D01*
X94262107Y-76227512D01*
X94158509Y-76184600D01*
X93817950Y-76184600D01*
X93659200Y-76343350D01*
X93659200Y-77317600D01*
X94508450Y-77317600D01*
X94667200Y-77158850D01*
X94667200Y-76693290D01*
X94570527Y-76459901D01*
X94391898Y-76281273D01*
X94360215Y-76268150D01*
X94557200Y-76308040D01*
X95162448Y-76308040D01*
X95088200Y-76487290D01*
X95088200Y-76777850D01*
X95246950Y-76936600D01*
X95848200Y-76936600D01*
X95848200Y-76916600D01*
X96098200Y-76916600D01*
X96098200Y-76936600D01*
X96120200Y-76936600D01*
X96120200Y-77190600D01*
X96098200Y-77190600D01*
X96098200Y-77210600D01*
X95848200Y-77210600D01*
X95848200Y-77190600D01*
X95246950Y-77190600D01*
X95088200Y-77349350D01*
X95088200Y-77639910D01*
X95184873Y-77873299D01*
X95363502Y-78051927D01*
X95596891Y-78148600D01*
X95689450Y-78148600D01*
X95846198Y-77991852D01*
X95846198Y-78122108D01*
X95659665Y-78199182D01*
X95319975Y-78538280D01*
X95135910Y-78981559D01*
X95135491Y-79461535D01*
X95318782Y-79905135D01*
X95516700Y-80103399D01*
X95516700Y-80255600D01*
X85844042Y-80255600D01*
X85034302Y-79445860D01*
X89820750Y-79445860D01*
X90056067Y-79401582D01*
X90272191Y-79262510D01*
X90417181Y-79050310D01*
X90468190Y-78798420D01*
X90468190Y-78740000D01*
X91252800Y-78740000D01*
X91368228Y-78717040D01*
X92032200Y-78717040D01*
X92267517Y-78672762D01*
X92483641Y-78533690D01*
X92530169Y-78465594D01*
X92672502Y-78607927D01*
X92905891Y-78704600D01*
X93246450Y-78704600D01*
X93405200Y-78545850D01*
X93405200Y-77571600D01*
X93659200Y-77571600D01*
X93659200Y-78545850D01*
X93817950Y-78704600D01*
X94158509Y-78704600D01*
X94391898Y-78607927D01*
X94570527Y-78429299D01*
X94667200Y-78195910D01*
X94667200Y-77730350D01*
X94508450Y-77571600D01*
X93659200Y-77571600D01*
X93405200Y-77571600D01*
X93385200Y-77571600D01*
X93385200Y-77317600D01*
X93405200Y-77317600D01*
X93405200Y-76343350D01*
X93246450Y-76184600D01*
X92905891Y-76184600D01*
X92725653Y-76259257D01*
X92861862Y-76055407D01*
X92891335Y-75907235D01*
X93125039Y-75860748D01*
X93154912Y-75840788D01*
X93307014Y-75993155D01*
X93307014Y-75993155D01*
G37*
X93307014Y-75993155D02*
X93668912Y-76143428D01*
X94060769Y-76143770D01*
X94109860Y-76123486D01*
X94262107Y-76227512D01*
X94158509Y-76184600D01*
X93817950Y-76184600D01*
X93659200Y-76343350D01*
X93659200Y-77317600D01*
X94508450Y-77317600D01*
X94667200Y-77158850D01*
X94667200Y-76693290D01*
X94570527Y-76459901D01*
X94391898Y-76281273D01*
X94360215Y-76268150D01*
X94557200Y-76308040D01*
X95162448Y-76308040D01*
X95088200Y-76487290D01*
X95088200Y-76777850D01*
X95246950Y-76936600D01*
X95848200Y-76936600D01*
X95848200Y-76916600D01*
X96098200Y-76916600D01*
X96098200Y-76936600D01*
X96120200Y-76936600D01*
X96120200Y-77190600D01*
X96098200Y-77190600D01*
X96098200Y-77210600D01*
X95848200Y-77210600D01*
X95848200Y-77190600D01*
X95246950Y-77190600D01*
X95088200Y-77349350D01*
X95088200Y-77639910D01*
X95184873Y-77873299D01*
X95363502Y-78051927D01*
X95596891Y-78148600D01*
X95689450Y-78148600D01*
X95846198Y-77991852D01*
X95846198Y-78122108D01*
X95659665Y-78199182D01*
X95319975Y-78538280D01*
X95135910Y-78981559D01*
X95135491Y-79461535D01*
X95318782Y-79905135D01*
X95516700Y-80103399D01*
X95516700Y-80255600D01*
X85844042Y-80255600D01*
X85034302Y-79445860D01*
X89820750Y-79445860D01*
X90056067Y-79401582D01*
X90272191Y-79262510D01*
X90417181Y-79050310D01*
X90468190Y-78798420D01*
X90468190Y-78740000D01*
X91252800Y-78740000D01*
X91368228Y-78717040D01*
X92032200Y-78717040D01*
X92267517Y-78672762D01*
X92483641Y-78533690D01*
X92530169Y-78465594D01*
X92672502Y-78607927D01*
X92905891Y-78704600D01*
X93246450Y-78704600D01*
X93405200Y-78545850D01*
X93405200Y-77571600D01*
X93659200Y-77571600D01*
X93659200Y-78545850D01*
X93817950Y-78704600D01*
X94158509Y-78704600D01*
X94391898Y-78607927D01*
X94570527Y-78429299D01*
X94667200Y-78195910D01*
X94667200Y-77730350D01*
X94508450Y-77571600D01*
X93659200Y-77571600D01*
X93405200Y-77571600D01*
X93385200Y-77571600D01*
X93385200Y-77317600D01*
X93405200Y-77317600D01*
X93405200Y-76343350D01*
X93246450Y-76184600D01*
X92905891Y-76184600D01*
X92725653Y-76259257D01*
X92861862Y-76055407D01*
X92891335Y-75907235D01*
X93125039Y-75860748D01*
X93154912Y-75840788D01*
X93307014Y-75993155D01*
G36*
X96392200Y-73238850D02*
X96550950Y-73397600D01*
X96756509Y-73397600D01*
X96783190Y-73386548D01*
X96783190Y-74275600D01*
X96742950Y-74275600D01*
X96584200Y-74434350D01*
X96584200Y-75158600D01*
X96604200Y-75158600D01*
X96604200Y-75412600D01*
X96584200Y-75412600D01*
X96584200Y-75432600D01*
X96330200Y-75432600D01*
X96330200Y-75412600D01*
X96310200Y-75412600D01*
X96310200Y-75158600D01*
X96330200Y-75158600D01*
X96330200Y-74434350D01*
X96171450Y-74275600D01*
X95999586Y-74275600D01*
X96085200Y-74068909D01*
X96085200Y-73863350D01*
X95926450Y-73704600D01*
X95597640Y-73704600D01*
X95597640Y-73497600D01*
X95676510Y-73497600D01*
X95789978Y-73450600D01*
X95926450Y-73450600D01*
X96138200Y-73238850D01*
X96138200Y-73102377D01*
X96185200Y-72988909D01*
X96185200Y-72910040D01*
X96392200Y-72910040D01*
X96392200Y-73238850D01*
X96392200Y-73238850D01*
G37*
X96392200Y-73238850D02*
X96550950Y-73397600D01*
X96756509Y-73397600D01*
X96783190Y-73386548D01*
X96783190Y-74275600D01*
X96742950Y-74275600D01*
X96584200Y-74434350D01*
X96584200Y-75158600D01*
X96604200Y-75158600D01*
X96604200Y-75412600D01*
X96584200Y-75412600D01*
X96584200Y-75432600D01*
X96330200Y-75432600D01*
X96330200Y-75412600D01*
X96310200Y-75412600D01*
X96310200Y-75158600D01*
X96330200Y-75158600D01*
X96330200Y-74434350D01*
X96171450Y-74275600D01*
X95999586Y-74275600D01*
X96085200Y-74068909D01*
X96085200Y-73863350D01*
X95926450Y-73704600D01*
X95597640Y-73704600D01*
X95597640Y-73497600D01*
X95676510Y-73497600D01*
X95789978Y-73450600D01*
X95926450Y-73450600D01*
X96138200Y-73238850D01*
X96138200Y-73102377D01*
X96185200Y-72988909D01*
X96185200Y-72910040D01*
X96392200Y-72910040D01*
X96392200Y-73238850D01*
G36*
X93802200Y-70860600D02*
X94798200Y-70860600D01*
X94798200Y-70840600D01*
X95052200Y-70840600D01*
X95052200Y-70860600D01*
X95072200Y-70860600D01*
X95072200Y-71114600D01*
X95052200Y-71114600D01*
X95052200Y-72110600D01*
X95072200Y-72110600D01*
X95072200Y-72364600D01*
X95052200Y-72364600D01*
X95052200Y-72384600D01*
X94798200Y-72384600D01*
X94798200Y-72364600D01*
X93802200Y-72364600D01*
X93802200Y-72384600D01*
X93548200Y-72384600D01*
X93548200Y-72364600D01*
X93528200Y-72364600D01*
X93528200Y-72110600D01*
X93548200Y-72110600D01*
X93548200Y-71273350D01*
X93665200Y-71273350D01*
X93665200Y-71951850D01*
X93802200Y-72088850D01*
X93802200Y-72110600D01*
X93823950Y-72110600D01*
X93960950Y-72247600D01*
X94639450Y-72247600D01*
X94776450Y-72110600D01*
X94798200Y-72110600D01*
X94798200Y-72088850D01*
X94935200Y-71951850D01*
X94935200Y-71273350D01*
X94798200Y-71136350D01*
X94798200Y-71114600D01*
X94776450Y-71114600D01*
X94639450Y-70977600D01*
X93960950Y-70977600D01*
X93823950Y-71114600D01*
X93802200Y-71114600D01*
X93802200Y-71136350D01*
X93665200Y-71273350D01*
X93548200Y-71273350D01*
X93548200Y-71114600D01*
X93528200Y-71114600D01*
X93528200Y-70860600D01*
X93548200Y-70860600D01*
X93548200Y-70840600D01*
X93802200Y-70840600D01*
X93802200Y-70860600D01*
X93802200Y-70860600D01*
G37*
X93802200Y-70860600D02*
X94798200Y-70860600D01*
X94798200Y-70840600D01*
X95052200Y-70840600D01*
X95052200Y-70860600D01*
X95072200Y-70860600D01*
X95072200Y-71114600D01*
X95052200Y-71114600D01*
X95052200Y-72110600D01*
X95072200Y-72110600D01*
X95072200Y-72364600D01*
X95052200Y-72364600D01*
X95052200Y-72384600D01*
X94798200Y-72384600D01*
X94798200Y-72364600D01*
X93802200Y-72364600D01*
X93802200Y-72384600D01*
X93548200Y-72384600D01*
X93548200Y-72364600D01*
X93528200Y-72364600D01*
X93528200Y-72110600D01*
X93548200Y-72110600D01*
X93548200Y-71273350D01*
X93665200Y-71273350D01*
X93665200Y-71951850D01*
X93802200Y-72088850D01*
X93802200Y-72110600D01*
X93823950Y-72110600D01*
X93960950Y-72247600D01*
X94639450Y-72247600D01*
X94776450Y-72110600D01*
X94798200Y-72110600D01*
X94798200Y-72088850D01*
X94935200Y-71951850D01*
X94935200Y-71273350D01*
X94798200Y-71136350D01*
X94798200Y-71114600D01*
X94776450Y-71114600D01*
X94639450Y-70977600D01*
X93960950Y-70977600D01*
X93823950Y-71114600D01*
X93802200Y-71114600D01*
X93802200Y-71136350D01*
X93665200Y-71273350D01*
X93548200Y-71273350D01*
X93548200Y-71114600D01*
X93528200Y-71114600D01*
X93528200Y-70860600D01*
X93548200Y-70860600D01*
X93548200Y-70840600D01*
X93802200Y-70840600D01*
X93802200Y-70860600D01*
G36*
X84213700Y-58587744D02*
X84213700Y-59918600D01*
X84295872Y-60331707D01*
X84529878Y-60681922D01*
X90182700Y-66334744D01*
X90182700Y-66611214D01*
X90055910Y-66916559D01*
X90055491Y-67396535D01*
X90238782Y-67840135D01*
X90357994Y-67959556D01*
X90246200Y-68071350D01*
X90246200Y-68820600D01*
X90970450Y-68820600D01*
X91129200Y-68661850D01*
X91129200Y-68421291D01*
X91105454Y-68363964D01*
X91501135Y-68364309D01*
X91944735Y-68181018D01*
X92044614Y-68081313D01*
X92276878Y-68428922D01*
X92691366Y-68843409D01*
X92611873Y-68922902D01*
X92515200Y-69156291D01*
X92515200Y-69361850D01*
X92673950Y-69520600D01*
X93002760Y-69520600D01*
X93002760Y-69727600D01*
X92923890Y-69727600D01*
X92810422Y-69774600D01*
X92673950Y-69774600D01*
X92462200Y-69986350D01*
X92462200Y-70122823D01*
X92415200Y-70236291D01*
X92415200Y-70701850D01*
X92462200Y-70748850D01*
X92462200Y-70759600D01*
X92208200Y-70759600D01*
X92208200Y-69986350D01*
X92049450Y-69827600D01*
X91843891Y-69827600D01*
X91610502Y-69924273D01*
X91431873Y-70102901D01*
X91347458Y-70306696D01*
X91331988Y-70300272D01*
X91141640Y-70300106D01*
X91141640Y-70047600D01*
X91097362Y-69812283D01*
X91030871Y-69708954D01*
X91032527Y-69707298D01*
X91129200Y-69473909D01*
X91129200Y-69233350D01*
X90970450Y-69074600D01*
X90246200Y-69074600D01*
X90246200Y-69094600D01*
X89992200Y-69094600D01*
X89992200Y-69074600D01*
X89267950Y-69074600D01*
X89109200Y-69233350D01*
X89109200Y-69473909D01*
X89144280Y-69558600D01*
X88585200Y-69558600D01*
X88585200Y-69237350D01*
X88426450Y-69078600D01*
X87452200Y-69078600D01*
X87452200Y-69098600D01*
X87198200Y-69098600D01*
X87198200Y-69078600D01*
X86223950Y-69078600D01*
X86065200Y-69237350D01*
X86065200Y-69577909D01*
X86161873Y-69811298D01*
X86303110Y-69952536D01*
X86248759Y-69987510D01*
X86197452Y-70062600D01*
X84189319Y-70062600D01*
X83994200Y-69867140D01*
X83994200Y-68325291D01*
X86065200Y-68325291D01*
X86065200Y-68665850D01*
X86223950Y-68824600D01*
X87198200Y-68824600D01*
X87198200Y-67975350D01*
X87452200Y-67975350D01*
X87452200Y-68824600D01*
X88426450Y-68824600D01*
X88585200Y-68665850D01*
X88585200Y-68421291D01*
X89109200Y-68421291D01*
X89109200Y-68661850D01*
X89267950Y-68820600D01*
X89992200Y-68820600D01*
X89992200Y-68071350D01*
X89833450Y-67912600D01*
X89617890Y-67912600D01*
X89384501Y-68009273D01*
X89205873Y-68187902D01*
X89109200Y-68421291D01*
X88585200Y-68421291D01*
X88585200Y-68325291D01*
X88488527Y-68091902D01*
X88309899Y-67913273D01*
X88076510Y-67816600D01*
X87610950Y-67816600D01*
X87452200Y-67975350D01*
X87198200Y-67975350D01*
X87039450Y-67816600D01*
X86573890Y-67816600D01*
X86340501Y-67913273D01*
X86161873Y-68091902D01*
X86065200Y-68325291D01*
X83994200Y-68325291D01*
X83994200Y-68115307D01*
X84277200Y-68171600D01*
X84568039Y-68113748D01*
X84814601Y-67949001D01*
X85195601Y-67568001D01*
X85360348Y-67321440D01*
X85418200Y-67030600D01*
X85360348Y-66739761D01*
X85195601Y-66493199D01*
X84949039Y-66328452D01*
X84894693Y-66317642D01*
X84852348Y-66104761D01*
X84687601Y-65858199D01*
X84441039Y-65693452D01*
X84150200Y-65635600D01*
X83994200Y-65666631D01*
X83994200Y-65382712D01*
X84000354Y-58374398D01*
X84213700Y-58587744D01*
X84213700Y-58587744D01*
G37*
X84213700Y-58587744D02*
X84213700Y-59918600D01*
X84295872Y-60331707D01*
X84529878Y-60681922D01*
X90182700Y-66334744D01*
X90182700Y-66611214D01*
X90055910Y-66916559D01*
X90055491Y-67396535D01*
X90238782Y-67840135D01*
X90357994Y-67959556D01*
X90246200Y-68071350D01*
X90246200Y-68820600D01*
X90970450Y-68820600D01*
X91129200Y-68661850D01*
X91129200Y-68421291D01*
X91105454Y-68363964D01*
X91501135Y-68364309D01*
X91944735Y-68181018D01*
X92044614Y-68081313D01*
X92276878Y-68428922D01*
X92691366Y-68843409D01*
X92611873Y-68922902D01*
X92515200Y-69156291D01*
X92515200Y-69361850D01*
X92673950Y-69520600D01*
X93002760Y-69520600D01*
X93002760Y-69727600D01*
X92923890Y-69727600D01*
X92810422Y-69774600D01*
X92673950Y-69774600D01*
X92462200Y-69986350D01*
X92462200Y-70122823D01*
X92415200Y-70236291D01*
X92415200Y-70701850D01*
X92462200Y-70748850D01*
X92462200Y-70759600D01*
X92208200Y-70759600D01*
X92208200Y-69986350D01*
X92049450Y-69827600D01*
X91843891Y-69827600D01*
X91610502Y-69924273D01*
X91431873Y-70102901D01*
X91347458Y-70306696D01*
X91331988Y-70300272D01*
X91141640Y-70300106D01*
X91141640Y-70047600D01*
X91097362Y-69812283D01*
X91030871Y-69708954D01*
X91032527Y-69707298D01*
X91129200Y-69473909D01*
X91129200Y-69233350D01*
X90970450Y-69074600D01*
X90246200Y-69074600D01*
X90246200Y-69094600D01*
X89992200Y-69094600D01*
X89992200Y-69074600D01*
X89267950Y-69074600D01*
X89109200Y-69233350D01*
X89109200Y-69473909D01*
X89144280Y-69558600D01*
X88585200Y-69558600D01*
X88585200Y-69237350D01*
X88426450Y-69078600D01*
X87452200Y-69078600D01*
X87452200Y-69098600D01*
X87198200Y-69098600D01*
X87198200Y-69078600D01*
X86223950Y-69078600D01*
X86065200Y-69237350D01*
X86065200Y-69577909D01*
X86161873Y-69811298D01*
X86303110Y-69952536D01*
X86248759Y-69987510D01*
X86197452Y-70062600D01*
X84189319Y-70062600D01*
X83994200Y-69867140D01*
X83994200Y-68325291D01*
X86065200Y-68325291D01*
X86065200Y-68665850D01*
X86223950Y-68824600D01*
X87198200Y-68824600D01*
X87198200Y-67975350D01*
X87452200Y-67975350D01*
X87452200Y-68824600D01*
X88426450Y-68824600D01*
X88585200Y-68665850D01*
X88585200Y-68421291D01*
X89109200Y-68421291D01*
X89109200Y-68661850D01*
X89267950Y-68820600D01*
X89992200Y-68820600D01*
X89992200Y-68071350D01*
X89833450Y-67912600D01*
X89617890Y-67912600D01*
X89384501Y-68009273D01*
X89205873Y-68187902D01*
X89109200Y-68421291D01*
X88585200Y-68421291D01*
X88585200Y-68325291D01*
X88488527Y-68091902D01*
X88309899Y-67913273D01*
X88076510Y-67816600D01*
X87610950Y-67816600D01*
X87452200Y-67975350D01*
X87198200Y-67975350D01*
X87039450Y-67816600D01*
X86573890Y-67816600D01*
X86340501Y-67913273D01*
X86161873Y-68091902D01*
X86065200Y-68325291D01*
X83994200Y-68325291D01*
X83994200Y-68115307D01*
X84277200Y-68171600D01*
X84568039Y-68113748D01*
X84814601Y-67949001D01*
X85195601Y-67568001D01*
X85360348Y-67321440D01*
X85418200Y-67030600D01*
X85360348Y-66739761D01*
X85195601Y-66493199D01*
X84949039Y-66328452D01*
X84894693Y-66317642D01*
X84852348Y-66104761D01*
X84687601Y-65858199D01*
X84441039Y-65693452D01*
X84150200Y-65635600D01*
X83994200Y-65666631D01*
X83994200Y-65382712D01*
X84000354Y-58374398D01*
X84213700Y-58587744D01*
G36*
X57758200Y-70597290D02*
X57758200Y-71062850D01*
X57916950Y-71221600D01*
X58766200Y-71221600D01*
X58766200Y-71201600D01*
X59020200Y-71201600D01*
X59020200Y-71221600D01*
X59040200Y-71221600D01*
X59040200Y-71475600D01*
X59020200Y-71475600D01*
X59020200Y-71495600D01*
X58766200Y-71495600D01*
X58766200Y-71475600D01*
X57916950Y-71475600D01*
X57758200Y-71634350D01*
X57758200Y-71666121D01*
X57495265Y-71665891D01*
X57051665Y-71849182D01*
X56711975Y-72188280D01*
X56527910Y-72631559D01*
X56527491Y-73111535D01*
X56574435Y-73225148D01*
X56527700Y-73460100D01*
X56527700Y-73519600D01*
X56134705Y-73519600D01*
X56134700Y-73519599D01*
X55857450Y-73574748D01*
X55818795Y-73582437D01*
X55550983Y-73761383D01*
X55550981Y-73761386D01*
X54864483Y-74447883D01*
X54685537Y-74715694D01*
X54637880Y-74955286D01*
X54622700Y-75031600D01*
X54622700Y-84463600D01*
X54685537Y-84779506D01*
X54864483Y-85047317D01*
X55719760Y-85902594D01*
X55719760Y-86382600D01*
X55764038Y-86617917D01*
X55903110Y-86834041D01*
X56115310Y-86979031D01*
X56367200Y-87030040D01*
X59567200Y-87030040D01*
X59802517Y-86985762D01*
X60018641Y-86846690D01*
X60113335Y-86708100D01*
X62622069Y-86708100D01*
X62703110Y-86834041D01*
X62915310Y-86979031D01*
X63167200Y-87030040D01*
X66367200Y-87030040D01*
X66602517Y-86985762D01*
X66674686Y-86939322D01*
X67206582Y-87471218D01*
X67494994Y-87663929D01*
X67835200Y-87731600D01*
X82740200Y-87731600D01*
X82740200Y-88172600D01*
X53449881Y-88172600D01*
X53449376Y-88170060D01*
X53411640Y-88078957D01*
X53343363Y-87914120D01*
X53018203Y-87427485D01*
X52822315Y-87231597D01*
X52335680Y-86906438D01*
X52335678Y-86906437D01*
X52079740Y-86800424D01*
X52077200Y-86799919D01*
X52077200Y-75747600D01*
X52102160Y-75747600D01*
X52102160Y-77017600D01*
X52146438Y-77252917D01*
X52285510Y-77469041D01*
X52343200Y-77508459D01*
X52343200Y-78312255D01*
X52200769Y-78520710D01*
X52149760Y-78772600D01*
X52149760Y-79672600D01*
X52194038Y-79907917D01*
X52333110Y-80124041D01*
X52545310Y-80269031D01*
X52797200Y-80320040D01*
X53297200Y-80320040D01*
X53532517Y-80275762D01*
X53748641Y-80136690D01*
X53795169Y-80068594D01*
X53937502Y-80210927D01*
X54170891Y-80307600D01*
X54263450Y-80307600D01*
X54422200Y-80148850D01*
X54422200Y-79349600D01*
X54400200Y-79349600D01*
X54400200Y-79095600D01*
X54422200Y-79095600D01*
X54422200Y-78296350D01*
X54263450Y-78137600D01*
X54170891Y-78137600D01*
X54121200Y-78158183D01*
X54121200Y-77652600D01*
X54216450Y-77652600D01*
X54375200Y-77493850D01*
X54375200Y-76509600D01*
X54362240Y-76509600D01*
X54362240Y-76255600D01*
X54375200Y-76255600D01*
X54375200Y-75271350D01*
X54216450Y-75112600D01*
X54121200Y-75112600D01*
X54121200Y-75075836D01*
X55401481Y-73795555D01*
X55632428Y-73700130D01*
X55909754Y-73423287D01*
X56060027Y-73061389D01*
X56060369Y-72669532D01*
X55910728Y-72307372D01*
X55633885Y-72030046D01*
X55271987Y-71879773D01*
X54880130Y-71879431D01*
X54517970Y-72029072D01*
X54240644Y-72305915D01*
X54144068Y-72538496D01*
X52603582Y-74078982D01*
X52410871Y-74367394D01*
X52343200Y-74707600D01*
X52343200Y-75254527D01*
X52298159Y-75283510D01*
X52153169Y-75495710D01*
X52102160Y-75747600D01*
X52077200Y-75747600D01*
X52077200Y-70508495D01*
X57807491Y-70478292D01*
X57758200Y-70597290D01*
X57758200Y-70597290D01*
G37*
X57758200Y-70597290D02*
X57758200Y-71062850D01*
X57916950Y-71221600D01*
X58766200Y-71221600D01*
X58766200Y-71201600D01*
X59020200Y-71201600D01*
X59020200Y-71221600D01*
X59040200Y-71221600D01*
X59040200Y-71475600D01*
X59020200Y-71475600D01*
X59020200Y-71495600D01*
X58766200Y-71495600D01*
X58766200Y-71475600D01*
X57916950Y-71475600D01*
X57758200Y-71634350D01*
X57758200Y-71666121D01*
X57495265Y-71665891D01*
X57051665Y-71849182D01*
X56711975Y-72188280D01*
X56527910Y-72631559D01*
X56527491Y-73111535D01*
X56574435Y-73225148D01*
X56527700Y-73460100D01*
X56527700Y-73519600D01*
X56134705Y-73519600D01*
X56134700Y-73519599D01*
X55857450Y-73574748D01*
X55818795Y-73582437D01*
X55550983Y-73761383D01*
X55550981Y-73761386D01*
X54864483Y-74447883D01*
X54685537Y-74715694D01*
X54637880Y-74955286D01*
X54622700Y-75031600D01*
X54622700Y-84463600D01*
X54685537Y-84779506D01*
X54864483Y-85047317D01*
X55719760Y-85902594D01*
X55719760Y-86382600D01*
X55764038Y-86617917D01*
X55903110Y-86834041D01*
X56115310Y-86979031D01*
X56367200Y-87030040D01*
X59567200Y-87030040D01*
X59802517Y-86985762D01*
X60018641Y-86846690D01*
X60113335Y-86708100D01*
X62622069Y-86708100D01*
X62703110Y-86834041D01*
X62915310Y-86979031D01*
X63167200Y-87030040D01*
X66367200Y-87030040D01*
X66602517Y-86985762D01*
X66674686Y-86939322D01*
X67206582Y-87471218D01*
X67494994Y-87663929D01*
X67835200Y-87731600D01*
X82740200Y-87731600D01*
X82740200Y-88172600D01*
X53449881Y-88172600D01*
X53449376Y-88170060D01*
X53411640Y-88078957D01*
X53343363Y-87914120D01*
X53018203Y-87427485D01*
X52822315Y-87231597D01*
X52335680Y-86906438D01*
X52335678Y-86906437D01*
X52079740Y-86800424D01*
X52077200Y-86799919D01*
X52077200Y-75747600D01*
X52102160Y-75747600D01*
X52102160Y-77017600D01*
X52146438Y-77252917D01*
X52285510Y-77469041D01*
X52343200Y-77508459D01*
X52343200Y-78312255D01*
X52200769Y-78520710D01*
X52149760Y-78772600D01*
X52149760Y-79672600D01*
X52194038Y-79907917D01*
X52333110Y-80124041D01*
X52545310Y-80269031D01*
X52797200Y-80320040D01*
X53297200Y-80320040D01*
X53532517Y-80275762D01*
X53748641Y-80136690D01*
X53795169Y-80068594D01*
X53937502Y-80210927D01*
X54170891Y-80307600D01*
X54263450Y-80307600D01*
X54422200Y-80148850D01*
X54422200Y-79349600D01*
X54400200Y-79349600D01*
X54400200Y-79095600D01*
X54422200Y-79095600D01*
X54422200Y-78296350D01*
X54263450Y-78137600D01*
X54170891Y-78137600D01*
X54121200Y-78158183D01*
X54121200Y-77652600D01*
X54216450Y-77652600D01*
X54375200Y-77493850D01*
X54375200Y-76509600D01*
X54362240Y-76509600D01*
X54362240Y-76255600D01*
X54375200Y-76255600D01*
X54375200Y-75271350D01*
X54216450Y-75112600D01*
X54121200Y-75112600D01*
X54121200Y-75075836D01*
X55401481Y-73795555D01*
X55632428Y-73700130D01*
X55909754Y-73423287D01*
X56060027Y-73061389D01*
X56060369Y-72669532D01*
X55910728Y-72307372D01*
X55633885Y-72030046D01*
X55271987Y-71879773D01*
X54880130Y-71879431D01*
X54517970Y-72029072D01*
X54240644Y-72305915D01*
X54144068Y-72538496D01*
X52603582Y-74078982D01*
X52410871Y-74367394D01*
X52343200Y-74707600D01*
X52343200Y-75254527D01*
X52298159Y-75283510D01*
X52153169Y-75495710D01*
X52102160Y-75747600D01*
X52077200Y-75747600D01*
X52077200Y-70508495D01*
X57807491Y-70478292D01*
X57758200Y-70597290D01*
G36*
X80203110Y-82834041D02*
X80415310Y-82979031D01*
X80667200Y-83030040D01*
X82740200Y-83030040D01*
X82740200Y-84747600D01*
X82552950Y-84747600D01*
X82394200Y-84906350D01*
X82394200Y-85755600D01*
X82414200Y-85755600D01*
X82414200Y-85953600D01*
X70402200Y-85953600D01*
X70402200Y-85699600D01*
X70422200Y-85699600D01*
X70422200Y-84975350D01*
X70676200Y-84975350D01*
X70676200Y-85699600D01*
X71425450Y-85699600D01*
X71584200Y-85540850D01*
X71584200Y-85325290D01*
X71555620Y-85256290D01*
X73232200Y-85256290D01*
X73232200Y-85596850D01*
X73390950Y-85755600D01*
X75340200Y-85755600D01*
X75340200Y-84906350D01*
X75594200Y-84906350D01*
X75594200Y-85755600D01*
X77543450Y-85755600D01*
X77702200Y-85596850D01*
X77702200Y-85256290D01*
X80032200Y-85256290D01*
X80032200Y-85596850D01*
X80190950Y-85755600D01*
X82140200Y-85755600D01*
X82140200Y-84906350D01*
X81981450Y-84747600D01*
X80540891Y-84747600D01*
X80307502Y-84844273D01*
X80128873Y-85022901D01*
X80032200Y-85256290D01*
X77702200Y-85256290D01*
X77605527Y-85022901D01*
X77426898Y-84844273D01*
X77193509Y-84747600D01*
X75752950Y-84747600D01*
X75594200Y-84906350D01*
X75340200Y-84906350D01*
X75181450Y-84747600D01*
X73740891Y-84747600D01*
X73507502Y-84844273D01*
X73328873Y-85022901D01*
X73232200Y-85256290D01*
X71555620Y-85256290D01*
X71487527Y-85091901D01*
X71308898Y-84913273D01*
X71075509Y-84816600D01*
X70834950Y-84816600D01*
X70676200Y-84975350D01*
X70422200Y-84975350D01*
X70263450Y-84816600D01*
X70022891Y-84816600D01*
X69840405Y-84892188D01*
X69836851Y-84874317D01*
X69811863Y-84748694D01*
X69700106Y-84581439D01*
X69632917Y-84480883D01*
X69632914Y-84480881D01*
X69441792Y-84289759D01*
X69586601Y-84193001D01*
X69888924Y-83890678D01*
X69994269Y-83890770D01*
X70356429Y-83741129D01*
X70633755Y-83464286D01*
X70784028Y-83102388D01*
X70784366Y-82715100D01*
X73326574Y-82715100D01*
X73403110Y-82834041D01*
X73615310Y-82979031D01*
X73867200Y-83030040D01*
X77067200Y-83030040D01*
X77302517Y-82985762D01*
X77518641Y-82846690D01*
X77613335Y-82708100D01*
X80122069Y-82708100D01*
X80203110Y-82834041D01*
X80203110Y-82834041D01*
G37*
X80203110Y-82834041D02*
X80415310Y-82979031D01*
X80667200Y-83030040D01*
X82740200Y-83030040D01*
X82740200Y-84747600D01*
X82552950Y-84747600D01*
X82394200Y-84906350D01*
X82394200Y-85755600D01*
X82414200Y-85755600D01*
X82414200Y-85953600D01*
X70402200Y-85953600D01*
X70402200Y-85699600D01*
X70422200Y-85699600D01*
X70422200Y-84975350D01*
X70676200Y-84975350D01*
X70676200Y-85699600D01*
X71425450Y-85699600D01*
X71584200Y-85540850D01*
X71584200Y-85325290D01*
X71555620Y-85256290D01*
X73232200Y-85256290D01*
X73232200Y-85596850D01*
X73390950Y-85755600D01*
X75340200Y-85755600D01*
X75340200Y-84906350D01*
X75594200Y-84906350D01*
X75594200Y-85755600D01*
X77543450Y-85755600D01*
X77702200Y-85596850D01*
X77702200Y-85256290D01*
X80032200Y-85256290D01*
X80032200Y-85596850D01*
X80190950Y-85755600D01*
X82140200Y-85755600D01*
X82140200Y-84906350D01*
X81981450Y-84747600D01*
X80540891Y-84747600D01*
X80307502Y-84844273D01*
X80128873Y-85022901D01*
X80032200Y-85256290D01*
X77702200Y-85256290D01*
X77605527Y-85022901D01*
X77426898Y-84844273D01*
X77193509Y-84747600D01*
X75752950Y-84747600D01*
X75594200Y-84906350D01*
X75340200Y-84906350D01*
X75181450Y-84747600D01*
X73740891Y-84747600D01*
X73507502Y-84844273D01*
X73328873Y-85022901D01*
X73232200Y-85256290D01*
X71555620Y-85256290D01*
X71487527Y-85091901D01*
X71308898Y-84913273D01*
X71075509Y-84816600D01*
X70834950Y-84816600D01*
X70676200Y-84975350D01*
X70422200Y-84975350D01*
X70263450Y-84816600D01*
X70022891Y-84816600D01*
X69840405Y-84892188D01*
X69836851Y-84874317D01*
X69811863Y-84748694D01*
X69700106Y-84581439D01*
X69632917Y-84480883D01*
X69632914Y-84480881D01*
X69441792Y-84289759D01*
X69586601Y-84193001D01*
X69888924Y-83890678D01*
X69994269Y-83890770D01*
X70356429Y-83741129D01*
X70633755Y-83464286D01*
X70784028Y-83102388D01*
X70784366Y-82715100D01*
X73326574Y-82715100D01*
X73403110Y-82834041D01*
X73615310Y-82979031D01*
X73867200Y-83030040D01*
X77067200Y-83030040D01*
X77302517Y-82985762D01*
X77518641Y-82846690D01*
X77613335Y-82708100D01*
X80122069Y-82708100D01*
X80203110Y-82834041D01*
G36*
X78632267Y-75391246D02*
X78816253Y-75666600D01*
X78632267Y-75941954D01*
X78560729Y-76301600D01*
X78632267Y-76661246D01*
X78816253Y-76936600D01*
X78632267Y-77211954D01*
X78560729Y-77571600D01*
X78632267Y-77931246D01*
X78835990Y-78236139D01*
X79140883Y-78439862D01*
X79500529Y-78511400D01*
X80417871Y-78511400D01*
X80777517Y-78439862D01*
X81082410Y-78236139D01*
X81286133Y-77931246D01*
X81311764Y-77802390D01*
X81453799Y-78014961D01*
X82740200Y-79301362D01*
X82740200Y-80735160D01*
X80667200Y-80735160D01*
X80431883Y-80779438D01*
X80215759Y-80918510D01*
X80121065Y-81057100D01*
X77612331Y-81057100D01*
X77531290Y-80931159D01*
X77319090Y-80786169D01*
X77067200Y-80735160D01*
X73867200Y-80735160D01*
X73631883Y-80779438D01*
X73415759Y-80918510D01*
X73316282Y-81064100D01*
X72728308Y-81064100D01*
X72709248Y-81045040D01*
X72931733Y-80999048D01*
X73086605Y-80544745D01*
X73055833Y-80065756D01*
X72931733Y-79766152D01*
X72709246Y-79720159D01*
X72046805Y-80382600D01*
X72060948Y-80396743D01*
X71881343Y-80576348D01*
X71867200Y-80562205D01*
X71853058Y-80576348D01*
X71673453Y-80396743D01*
X71687595Y-80382600D01*
X71025154Y-79720159D01*
X70802667Y-79766152D01*
X70647795Y-80220455D01*
X70678567Y-80699444D01*
X70802667Y-80999048D01*
X71025152Y-81045040D01*
X71006092Y-81064100D01*
X68490133Y-81064100D01*
X66966588Y-79540554D01*
X71204759Y-79540554D01*
X71867200Y-80202995D01*
X72529641Y-79540554D01*
X72483648Y-79318067D01*
X72029345Y-79163195D01*
X71550356Y-79193967D01*
X71250752Y-79318067D01*
X71204759Y-79540554D01*
X66966588Y-79540554D01*
X66318917Y-78892883D01*
X66051106Y-78713937D01*
X65735200Y-78651100D01*
X64553134Y-78651100D01*
X63207417Y-77305383D01*
X62939606Y-77126437D01*
X62623700Y-77063600D01*
X61353700Y-77063600D01*
X61353700Y-76870750D01*
X61334736Y-76775412D01*
X61290863Y-76554844D01*
X61238819Y-76476955D01*
X61263270Y-76356210D01*
X61263270Y-75984100D01*
X61624977Y-75984100D01*
X61989483Y-75911595D01*
X62097782Y-75839232D01*
X62446159Y-75983890D01*
X62926135Y-75984309D01*
X63369735Y-75801018D01*
X63440777Y-75730100D01*
X65057823Y-75730100D01*
X64916267Y-75941954D01*
X64844729Y-76301600D01*
X64916267Y-76661246D01*
X65100253Y-76936600D01*
X64916267Y-77211954D01*
X64844729Y-77571600D01*
X64916267Y-77931246D01*
X65119990Y-78236139D01*
X65424883Y-78439862D01*
X65784529Y-78511400D01*
X66701871Y-78511400D01*
X67029607Y-78446209D01*
X67454399Y-78871001D01*
X67700961Y-79035748D01*
X67991800Y-79093600D01*
X76403200Y-79093600D01*
X76694039Y-79035748D01*
X76940601Y-78871001D01*
X77702601Y-78109001D01*
X77867348Y-77862439D01*
X77925200Y-77571600D01*
X77925200Y-75883802D01*
X78596677Y-75212325D01*
X78632267Y-75391246D01*
X78632267Y-75391246D01*
G37*
X78632267Y-75391246D02*
X78816253Y-75666600D01*
X78632267Y-75941954D01*
X78560729Y-76301600D01*
X78632267Y-76661246D01*
X78816253Y-76936600D01*
X78632267Y-77211954D01*
X78560729Y-77571600D01*
X78632267Y-77931246D01*
X78835990Y-78236139D01*
X79140883Y-78439862D01*
X79500529Y-78511400D01*
X80417871Y-78511400D01*
X80777517Y-78439862D01*
X81082410Y-78236139D01*
X81286133Y-77931246D01*
X81311764Y-77802390D01*
X81453799Y-78014961D01*
X82740200Y-79301362D01*
X82740200Y-80735160D01*
X80667200Y-80735160D01*
X80431883Y-80779438D01*
X80215759Y-80918510D01*
X80121065Y-81057100D01*
X77612331Y-81057100D01*
X77531290Y-80931159D01*
X77319090Y-80786169D01*
X77067200Y-80735160D01*
X73867200Y-80735160D01*
X73631883Y-80779438D01*
X73415759Y-80918510D01*
X73316282Y-81064100D01*
X72728308Y-81064100D01*
X72709248Y-81045040D01*
X72931733Y-80999048D01*
X73086605Y-80544745D01*
X73055833Y-80065756D01*
X72931733Y-79766152D01*
X72709246Y-79720159D01*
X72046805Y-80382600D01*
X72060948Y-80396743D01*
X71881343Y-80576348D01*
X71867200Y-80562205D01*
X71853058Y-80576348D01*
X71673453Y-80396743D01*
X71687595Y-80382600D01*
X71025154Y-79720159D01*
X70802667Y-79766152D01*
X70647795Y-80220455D01*
X70678567Y-80699444D01*
X70802667Y-80999048D01*
X71025152Y-81045040D01*
X71006092Y-81064100D01*
X68490133Y-81064100D01*
X66966588Y-79540554D01*
X71204759Y-79540554D01*
X71867200Y-80202995D01*
X72529641Y-79540554D01*
X72483648Y-79318067D01*
X72029345Y-79163195D01*
X71550356Y-79193967D01*
X71250752Y-79318067D01*
X71204759Y-79540554D01*
X66966588Y-79540554D01*
X66318917Y-78892883D01*
X66051106Y-78713937D01*
X65735200Y-78651100D01*
X64553134Y-78651100D01*
X63207417Y-77305383D01*
X62939606Y-77126437D01*
X62623700Y-77063600D01*
X61353700Y-77063600D01*
X61353700Y-76870750D01*
X61334736Y-76775412D01*
X61290863Y-76554844D01*
X61238819Y-76476955D01*
X61263270Y-76356210D01*
X61263270Y-75984100D01*
X61624977Y-75984100D01*
X61989483Y-75911595D01*
X62097782Y-75839232D01*
X62446159Y-75983890D01*
X62926135Y-75984309D01*
X63369735Y-75801018D01*
X63440777Y-75730100D01*
X65057823Y-75730100D01*
X64916267Y-75941954D01*
X64844729Y-76301600D01*
X64916267Y-76661246D01*
X65100253Y-76936600D01*
X64916267Y-77211954D01*
X64844729Y-77571600D01*
X64916267Y-77931246D01*
X65119990Y-78236139D01*
X65424883Y-78439862D01*
X65784529Y-78511400D01*
X66701871Y-78511400D01*
X67029607Y-78446209D01*
X67454399Y-78871001D01*
X67700961Y-79035748D01*
X67991800Y-79093600D01*
X76403200Y-79093600D01*
X76694039Y-79035748D01*
X76940601Y-78871001D01*
X77702601Y-78109001D01*
X77867348Y-77862439D01*
X77925200Y-77571600D01*
X77925200Y-75883802D01*
X78596677Y-75212325D01*
X78632267Y-75391246D01*
G36*
X65100253Y-68173600D02*
X64916267Y-68448954D01*
X64844729Y-68808600D01*
X64916267Y-69168246D01*
X64952955Y-69223153D01*
X64877684Y-69273448D01*
X64680681Y-69405080D01*
X64315571Y-69770191D01*
X64109095Y-70079204D01*
X64036590Y-70443710D01*
X64036590Y-71689211D01*
X64109095Y-72053717D01*
X64155210Y-72122733D01*
X64155210Y-72600491D01*
X64147700Y-72638246D01*
X64147700Y-73825100D01*
X63441123Y-73825100D01*
X63371520Y-73755375D01*
X62928241Y-73571310D01*
X62707295Y-73571117D01*
X62990429Y-73454129D01*
X63267755Y-73177286D01*
X63418028Y-72815388D01*
X63418370Y-72423531D01*
X63268729Y-72061371D01*
X62991886Y-71784045D01*
X62629988Y-71633772D01*
X62238131Y-71633430D01*
X62040640Y-71715031D01*
X62040640Y-70967600D01*
X62115700Y-70967600D01*
X62440000Y-70903093D01*
X62504507Y-70890262D01*
X62834120Y-70670020D01*
X63578620Y-69925521D01*
X63798861Y-69595908D01*
X63850850Y-69334540D01*
X63941200Y-69334540D01*
X64176517Y-69290262D01*
X64392641Y-69151190D01*
X64537631Y-68938990D01*
X64588640Y-68687100D01*
X64588640Y-68181599D01*
X64709201Y-68181599D01*
X65000040Y-68123747D01*
X65046292Y-68092842D01*
X65100253Y-68173600D01*
X65100253Y-68173600D01*
G37*
X65100253Y-68173600D02*
X64916267Y-68448954D01*
X64844729Y-68808600D01*
X64916267Y-69168246D01*
X64952955Y-69223153D01*
X64877684Y-69273448D01*
X64680681Y-69405080D01*
X64315571Y-69770191D01*
X64109095Y-70079204D01*
X64036590Y-70443710D01*
X64036590Y-71689211D01*
X64109095Y-72053717D01*
X64155210Y-72122733D01*
X64155210Y-72600491D01*
X64147700Y-72638246D01*
X64147700Y-73825100D01*
X63441123Y-73825100D01*
X63371520Y-73755375D01*
X62928241Y-73571310D01*
X62707295Y-73571117D01*
X62990429Y-73454129D01*
X63267755Y-73177286D01*
X63418028Y-72815388D01*
X63418370Y-72423531D01*
X63268729Y-72061371D01*
X62991886Y-71784045D01*
X62629988Y-71633772D01*
X62238131Y-71633430D01*
X62040640Y-71715031D01*
X62040640Y-70967600D01*
X62115700Y-70967600D01*
X62440000Y-70903093D01*
X62504507Y-70890262D01*
X62834120Y-70670020D01*
X63578620Y-69925521D01*
X63798861Y-69595908D01*
X63850850Y-69334540D01*
X63941200Y-69334540D01*
X64176517Y-69290262D01*
X64392641Y-69151190D01*
X64537631Y-68938990D01*
X64588640Y-68687100D01*
X64588640Y-68181599D01*
X64709201Y-68181599D01*
X65000040Y-68123747D01*
X65046292Y-68092842D01*
X65100253Y-68173600D01*
G36*
X68351514Y-67801655D02*
X68713412Y-67951928D01*
X69105269Y-67952270D01*
X69229700Y-67900856D01*
X69229700Y-70651989D01*
X69155145Y-70726414D01*
X69004872Y-71088312D01*
X69004754Y-71223600D01*
X68179602Y-71223600D01*
X67767201Y-70811199D01*
X67520639Y-70646452D01*
X67441529Y-70630716D01*
X67570133Y-70438246D01*
X67641671Y-70078600D01*
X67570133Y-69718954D01*
X67386147Y-69443600D01*
X67570133Y-69168246D01*
X67641671Y-68808600D01*
X67570133Y-68448954D01*
X67386147Y-68173600D01*
X67570133Y-67898246D01*
X67622579Y-67634584D01*
X67835269Y-67634770D01*
X68082814Y-67532487D01*
X68351514Y-67801655D01*
X68351514Y-67801655D01*
G37*
X68351514Y-67801655D02*
X68713412Y-67951928D01*
X69105269Y-67952270D01*
X69229700Y-67900856D01*
X69229700Y-70651989D01*
X69155145Y-70726414D01*
X69004872Y-71088312D01*
X69004754Y-71223600D01*
X68179602Y-71223600D01*
X67767201Y-70811199D01*
X67520639Y-70646452D01*
X67441529Y-70630716D01*
X67570133Y-70438246D01*
X67641671Y-70078600D01*
X67570133Y-69718954D01*
X67386147Y-69443600D01*
X67570133Y-69168246D01*
X67641671Y-68808600D01*
X67570133Y-68448954D01*
X67386147Y-68173600D01*
X67570133Y-67898246D01*
X67622579Y-67634584D01*
X67835269Y-67634770D01*
X68082814Y-67532487D01*
X68351514Y-67801655D01*
G36*
X75828191Y-67790693D02*
X75828191Y-70236431D01*
X75827131Y-70236430D01*
X75730320Y-70276431D01*
X75769671Y-70078600D01*
X75698133Y-69718954D01*
X75514147Y-69443600D01*
X75698133Y-69168246D01*
X75769671Y-68808600D01*
X75698133Y-68448954D01*
X75514147Y-68173600D01*
X75698133Y-67898246D01*
X75737581Y-67699925D01*
X75828191Y-67790693D01*
X75828191Y-67790693D01*
G37*
X75828191Y-67790693D02*
X75828191Y-70236431D01*
X75827131Y-70236430D01*
X75730320Y-70276431D01*
X75769671Y-70078600D01*
X75698133Y-69718954D01*
X75514147Y-69443600D01*
X75698133Y-69168246D01*
X75769671Y-68808600D01*
X75698133Y-68448954D01*
X75514147Y-68173600D01*
X75698133Y-67898246D01*
X75737581Y-67699925D01*
X75828191Y-67790693D01*
G36*
X80740200Y-49164600D02*
X80358271Y-49164600D01*
X79943059Y-49247191D01*
X79591060Y-49482389D01*
X79379347Y-49799240D01*
X79180690Y-49799240D01*
X79021940Y-49957990D01*
X79021940Y-50624740D01*
X79041940Y-50624740D01*
X79041940Y-50878740D01*
X79021940Y-50878740D01*
X79021940Y-50898740D01*
X78767940Y-50898740D01*
X78767940Y-50878740D01*
X77669390Y-50878740D01*
X77510640Y-51037490D01*
X77510640Y-51195550D01*
X77607313Y-51428939D01*
X77675091Y-51496716D01*
X77549209Y-51680950D01*
X77498200Y-51932840D01*
X77498200Y-52567840D01*
X77542478Y-52803157D01*
X77671317Y-53003379D01*
X77549209Y-53182090D01*
X77498200Y-53433980D01*
X77498200Y-54068980D01*
X77542478Y-54304297D01*
X77670475Y-54503211D01*
X77549209Y-54680690D01*
X77498200Y-54932580D01*
X77498200Y-55567580D01*
X77542478Y-55802897D01*
X77670475Y-56001811D01*
X77549209Y-56179290D01*
X77498200Y-56431180D01*
X77498200Y-57066180D01*
X77542478Y-57301497D01*
X77671317Y-57501719D01*
X77549209Y-57680430D01*
X77498200Y-57932320D01*
X77498200Y-58567320D01*
X77542478Y-58802637D01*
X77670475Y-59001551D01*
X77549209Y-59179030D01*
X77498200Y-59430920D01*
X77498200Y-60065920D01*
X77542478Y-60301237D01*
X77674018Y-60505656D01*
X77607313Y-60572361D01*
X77510640Y-60805750D01*
X77510640Y-60963810D01*
X77669390Y-61122560D01*
X78767940Y-61122560D01*
X78767940Y-61102560D01*
X79021940Y-61102560D01*
X79021940Y-61122560D01*
X79041940Y-61122560D01*
X79041940Y-61376560D01*
X79021940Y-61376560D01*
X79021940Y-62043310D01*
X79180690Y-62202060D01*
X79462454Y-62202060D01*
X79538187Y-62357008D01*
X79862656Y-62633408D01*
X80268200Y-62764600D01*
X80740200Y-62764600D01*
X80740200Y-63876305D01*
X80707609Y-63712459D01*
X80472411Y-63360460D01*
X80120412Y-63125262D01*
X79705200Y-63042671D01*
X79289988Y-63125262D01*
X79070200Y-63272120D01*
X78850412Y-63125262D01*
X78435200Y-63042671D01*
X78019988Y-63125262D01*
X77972920Y-63156712D01*
X77972920Y-63033910D01*
X77814170Y-62875160D01*
X77147420Y-62875160D01*
X77147420Y-62895160D01*
X76893420Y-62895160D01*
X76893420Y-62875160D01*
X76873420Y-62875160D01*
X76873420Y-62621160D01*
X76893420Y-62621160D01*
X76893420Y-61522610D01*
X77147420Y-61522610D01*
X77147420Y-62621160D01*
X77814170Y-62621160D01*
X77972920Y-62462410D01*
X77972920Y-62182836D01*
X78019331Y-62202060D01*
X78609190Y-62202060D01*
X78767940Y-62043310D01*
X78767940Y-61376560D01*
X77669390Y-61376560D01*
X77618280Y-61427670D01*
X77464230Y-61363860D01*
X77306170Y-61363860D01*
X77147420Y-61522610D01*
X76893420Y-61522610D01*
X76734670Y-61363860D01*
X76576610Y-61363860D01*
X76474320Y-61406230D01*
X76474320Y-61363860D01*
X76401815Y-60999354D01*
X76285190Y-60824812D01*
X76195340Y-60690341D01*
X76033291Y-60528293D01*
X76001099Y-60450381D01*
X75724256Y-60173055D01*
X75362358Y-60022782D01*
X74970501Y-60022440D01*
X74891433Y-60055110D01*
X65377710Y-60055110D01*
X65013204Y-60127615D01*
X64897988Y-60204600D01*
X64704191Y-60334090D01*
X64347941Y-60690341D01*
X64141465Y-60999354D01*
X64068960Y-61363860D01*
X64068960Y-61407282D01*
X63964130Y-61363860D01*
X63806070Y-61363860D01*
X63647320Y-61522610D01*
X63647320Y-62621160D01*
X63667320Y-62621160D01*
X63667320Y-62875160D01*
X63647320Y-62875160D01*
X63647320Y-62895160D01*
X63393320Y-62895160D01*
X63393320Y-62875160D01*
X62148720Y-62875160D01*
X62148720Y-63918526D01*
X62110200Y-64037600D01*
X62110200Y-64837600D01*
X63068200Y-64837600D01*
X63068200Y-64817600D01*
X63322200Y-64817600D01*
X63322200Y-64837600D01*
X63342200Y-64837600D01*
X63342200Y-65091600D01*
X63322200Y-65091600D01*
X63322200Y-65111600D01*
X63068200Y-65111600D01*
X63068200Y-65091600D01*
X62110200Y-65091600D01*
X62110200Y-65378798D01*
X61480700Y-64749298D01*
X61480700Y-64092194D01*
X61577910Y-64132460D01*
X61735970Y-64132460D01*
X61894720Y-63973710D01*
X61894720Y-62875160D01*
X61874720Y-62875160D01*
X61874720Y-62621160D01*
X61894720Y-62621160D01*
X61894720Y-61522610D01*
X62148720Y-61522610D01*
X62148720Y-62621160D01*
X63393320Y-62621160D01*
X63393320Y-61522610D01*
X63234570Y-61363860D01*
X63076510Y-61363860D01*
X62843121Y-61460533D01*
X62771020Y-61532634D01*
X62698919Y-61460533D01*
X62465530Y-61363860D01*
X62307470Y-61363860D01*
X62148720Y-61522610D01*
X61894720Y-61522610D01*
X61735970Y-61363860D01*
X61577910Y-61363860D01*
X61480700Y-61404126D01*
X61480700Y-56550350D01*
X67260200Y-56550350D01*
X67260200Y-59390909D01*
X67356873Y-59624298D01*
X67535501Y-59802927D01*
X67768890Y-59899600D01*
X70609450Y-59899600D01*
X70768200Y-59740850D01*
X70768200Y-56391600D01*
X71022200Y-56391600D01*
X71022200Y-59740850D01*
X71180950Y-59899600D01*
X74021510Y-59899600D01*
X74254899Y-59802927D01*
X74433527Y-59624298D01*
X74530200Y-59390909D01*
X74530200Y-56550350D01*
X74371450Y-56391600D01*
X71022200Y-56391600D01*
X70768200Y-56391600D01*
X67418950Y-56391600D01*
X67260200Y-56550350D01*
X61480700Y-56550350D01*
X61480700Y-53138291D01*
X67260200Y-53138291D01*
X67260200Y-55978850D01*
X67418950Y-56137600D01*
X70768200Y-56137600D01*
X70768200Y-52788350D01*
X71022200Y-52788350D01*
X71022200Y-56137600D01*
X74371450Y-56137600D01*
X74530200Y-55978850D01*
X74530200Y-53138291D01*
X74433527Y-52904902D01*
X74254899Y-52726273D01*
X74021510Y-52629600D01*
X71180950Y-52629600D01*
X71022200Y-52788350D01*
X70768200Y-52788350D01*
X70609450Y-52629600D01*
X67768890Y-52629600D01*
X67535501Y-52726273D01*
X67356873Y-52904902D01*
X67260200Y-53138291D01*
X61480700Y-53138291D01*
X61480700Y-52420902D01*
X61578299Y-52518501D01*
X61824860Y-52683248D01*
X62115700Y-52741100D01*
X63959089Y-52741100D01*
X64033514Y-52815655D01*
X64395412Y-52965928D01*
X64787269Y-52966270D01*
X65149429Y-52816629D01*
X65426755Y-52539786D01*
X65577028Y-52177888D01*
X65577370Y-51786031D01*
X65512082Y-51628020D01*
X66272601Y-50867501D01*
X66419707Y-50647340D01*
X66837560Y-50647340D01*
X67072877Y-50603062D01*
X67273099Y-50474223D01*
X67451810Y-50596331D01*
X67703700Y-50647340D01*
X68338700Y-50647340D01*
X68574017Y-50603062D01*
X68772931Y-50475065D01*
X68950410Y-50596331D01*
X69202300Y-50647340D01*
X69837300Y-50647340D01*
X70072617Y-50603062D01*
X70272839Y-50474223D01*
X70451550Y-50596331D01*
X70703440Y-50647340D01*
X71338440Y-50647340D01*
X71573757Y-50603062D01*
X71772671Y-50475065D01*
X71875331Y-50545209D01*
X71992299Y-50720265D01*
X72330035Y-51058001D01*
X72576597Y-51222748D01*
X72765310Y-51260286D01*
X72860014Y-51355155D01*
X73221912Y-51505428D01*
X73613769Y-51505770D01*
X73975929Y-51356129D01*
X74253255Y-51079286D01*
X74403528Y-50717388D01*
X74403600Y-50635030D01*
X74573497Y-50603062D01*
X74773719Y-50474223D01*
X74952430Y-50596331D01*
X75204320Y-50647340D01*
X75839320Y-50647340D01*
X76074637Y-50603062D01*
X76277511Y-50472516D01*
X76343221Y-50538227D01*
X76576610Y-50634900D01*
X76734670Y-50634900D01*
X76893420Y-50476150D01*
X76893420Y-49377600D01*
X77147420Y-49377600D01*
X77147420Y-50476150D01*
X77306170Y-50634900D01*
X77464230Y-50634900D01*
X77616484Y-50571834D01*
X77669390Y-50624740D01*
X78767940Y-50624740D01*
X78767940Y-49957990D01*
X78609190Y-49799240D01*
X78019331Y-49799240D01*
X77972920Y-49818464D01*
X77972920Y-49536350D01*
X77814170Y-49377600D01*
X77147420Y-49377600D01*
X76893420Y-49377600D01*
X76873420Y-49377600D01*
X76873420Y-49123600D01*
X76893420Y-49123600D01*
X76893420Y-49103600D01*
X77147420Y-49103600D01*
X77147420Y-49123600D01*
X77814170Y-49123600D01*
X77972920Y-48964850D01*
X77972920Y-48772488D01*
X78019988Y-48803938D01*
X78435200Y-48886529D01*
X78850412Y-48803938D01*
X79070200Y-48657080D01*
X79289988Y-48803938D01*
X79705200Y-48886529D01*
X80120412Y-48803938D01*
X80472411Y-48568740D01*
X80707609Y-48216741D01*
X80740200Y-48052895D01*
X80740200Y-49164600D01*
X80740200Y-49164600D01*
G37*
X80740200Y-49164600D02*
X80358271Y-49164600D01*
X79943059Y-49247191D01*
X79591060Y-49482389D01*
X79379347Y-49799240D01*
X79180690Y-49799240D01*
X79021940Y-49957990D01*
X79021940Y-50624740D01*
X79041940Y-50624740D01*
X79041940Y-50878740D01*
X79021940Y-50878740D01*
X79021940Y-50898740D01*
X78767940Y-50898740D01*
X78767940Y-50878740D01*
X77669390Y-50878740D01*
X77510640Y-51037490D01*
X77510640Y-51195550D01*
X77607313Y-51428939D01*
X77675091Y-51496716D01*
X77549209Y-51680950D01*
X77498200Y-51932840D01*
X77498200Y-52567840D01*
X77542478Y-52803157D01*
X77671317Y-53003379D01*
X77549209Y-53182090D01*
X77498200Y-53433980D01*
X77498200Y-54068980D01*
X77542478Y-54304297D01*
X77670475Y-54503211D01*
X77549209Y-54680690D01*
X77498200Y-54932580D01*
X77498200Y-55567580D01*
X77542478Y-55802897D01*
X77670475Y-56001811D01*
X77549209Y-56179290D01*
X77498200Y-56431180D01*
X77498200Y-57066180D01*
X77542478Y-57301497D01*
X77671317Y-57501719D01*
X77549209Y-57680430D01*
X77498200Y-57932320D01*
X77498200Y-58567320D01*
X77542478Y-58802637D01*
X77670475Y-59001551D01*
X77549209Y-59179030D01*
X77498200Y-59430920D01*
X77498200Y-60065920D01*
X77542478Y-60301237D01*
X77674018Y-60505656D01*
X77607313Y-60572361D01*
X77510640Y-60805750D01*
X77510640Y-60963810D01*
X77669390Y-61122560D01*
X78767940Y-61122560D01*
X78767940Y-61102560D01*
X79021940Y-61102560D01*
X79021940Y-61122560D01*
X79041940Y-61122560D01*
X79041940Y-61376560D01*
X79021940Y-61376560D01*
X79021940Y-62043310D01*
X79180690Y-62202060D01*
X79462454Y-62202060D01*
X79538187Y-62357008D01*
X79862656Y-62633408D01*
X80268200Y-62764600D01*
X80740200Y-62764600D01*
X80740200Y-63876305D01*
X80707609Y-63712459D01*
X80472411Y-63360460D01*
X80120412Y-63125262D01*
X79705200Y-63042671D01*
X79289988Y-63125262D01*
X79070200Y-63272120D01*
X78850412Y-63125262D01*
X78435200Y-63042671D01*
X78019988Y-63125262D01*
X77972920Y-63156712D01*
X77972920Y-63033910D01*
X77814170Y-62875160D01*
X77147420Y-62875160D01*
X77147420Y-62895160D01*
X76893420Y-62895160D01*
X76893420Y-62875160D01*
X76873420Y-62875160D01*
X76873420Y-62621160D01*
X76893420Y-62621160D01*
X76893420Y-61522610D01*
X77147420Y-61522610D01*
X77147420Y-62621160D01*
X77814170Y-62621160D01*
X77972920Y-62462410D01*
X77972920Y-62182836D01*
X78019331Y-62202060D01*
X78609190Y-62202060D01*
X78767940Y-62043310D01*
X78767940Y-61376560D01*
X77669390Y-61376560D01*
X77618280Y-61427670D01*
X77464230Y-61363860D01*
X77306170Y-61363860D01*
X77147420Y-61522610D01*
X76893420Y-61522610D01*
X76734670Y-61363860D01*
X76576610Y-61363860D01*
X76474320Y-61406230D01*
X76474320Y-61363860D01*
X76401815Y-60999354D01*
X76285190Y-60824812D01*
X76195340Y-60690341D01*
X76033291Y-60528293D01*
X76001099Y-60450381D01*
X75724256Y-60173055D01*
X75362358Y-60022782D01*
X74970501Y-60022440D01*
X74891433Y-60055110D01*
X65377710Y-60055110D01*
X65013204Y-60127615D01*
X64897988Y-60204600D01*
X64704191Y-60334090D01*
X64347941Y-60690341D01*
X64141465Y-60999354D01*
X64068960Y-61363860D01*
X64068960Y-61407282D01*
X63964130Y-61363860D01*
X63806070Y-61363860D01*
X63647320Y-61522610D01*
X63647320Y-62621160D01*
X63667320Y-62621160D01*
X63667320Y-62875160D01*
X63647320Y-62875160D01*
X63647320Y-62895160D01*
X63393320Y-62895160D01*
X63393320Y-62875160D01*
X62148720Y-62875160D01*
X62148720Y-63918526D01*
X62110200Y-64037600D01*
X62110200Y-64837600D01*
X63068200Y-64837600D01*
X63068200Y-64817600D01*
X63322200Y-64817600D01*
X63322200Y-64837600D01*
X63342200Y-64837600D01*
X63342200Y-65091600D01*
X63322200Y-65091600D01*
X63322200Y-65111600D01*
X63068200Y-65111600D01*
X63068200Y-65091600D01*
X62110200Y-65091600D01*
X62110200Y-65378798D01*
X61480700Y-64749298D01*
X61480700Y-64092194D01*
X61577910Y-64132460D01*
X61735970Y-64132460D01*
X61894720Y-63973710D01*
X61894720Y-62875160D01*
X61874720Y-62875160D01*
X61874720Y-62621160D01*
X61894720Y-62621160D01*
X61894720Y-61522610D01*
X62148720Y-61522610D01*
X62148720Y-62621160D01*
X63393320Y-62621160D01*
X63393320Y-61522610D01*
X63234570Y-61363860D01*
X63076510Y-61363860D01*
X62843121Y-61460533D01*
X62771020Y-61532634D01*
X62698919Y-61460533D01*
X62465530Y-61363860D01*
X62307470Y-61363860D01*
X62148720Y-61522610D01*
X61894720Y-61522610D01*
X61735970Y-61363860D01*
X61577910Y-61363860D01*
X61480700Y-61404126D01*
X61480700Y-56550350D01*
X67260200Y-56550350D01*
X67260200Y-59390909D01*
X67356873Y-59624298D01*
X67535501Y-59802927D01*
X67768890Y-59899600D01*
X70609450Y-59899600D01*
X70768200Y-59740850D01*
X70768200Y-56391600D01*
X71022200Y-56391600D01*
X71022200Y-59740850D01*
X71180950Y-59899600D01*
X74021510Y-59899600D01*
X74254899Y-59802927D01*
X74433527Y-59624298D01*
X74530200Y-59390909D01*
X74530200Y-56550350D01*
X74371450Y-56391600D01*
X71022200Y-56391600D01*
X70768200Y-56391600D01*
X67418950Y-56391600D01*
X67260200Y-56550350D01*
X61480700Y-56550350D01*
X61480700Y-53138291D01*
X67260200Y-53138291D01*
X67260200Y-55978850D01*
X67418950Y-56137600D01*
X70768200Y-56137600D01*
X70768200Y-52788350D01*
X71022200Y-52788350D01*
X71022200Y-56137600D01*
X74371450Y-56137600D01*
X74530200Y-55978850D01*
X74530200Y-53138291D01*
X74433527Y-52904902D01*
X74254899Y-52726273D01*
X74021510Y-52629600D01*
X71180950Y-52629600D01*
X71022200Y-52788350D01*
X70768200Y-52788350D01*
X70609450Y-52629600D01*
X67768890Y-52629600D01*
X67535501Y-52726273D01*
X67356873Y-52904902D01*
X67260200Y-53138291D01*
X61480700Y-53138291D01*
X61480700Y-52420902D01*
X61578299Y-52518501D01*
X61824860Y-52683248D01*
X62115700Y-52741100D01*
X63959089Y-52741100D01*
X64033514Y-52815655D01*
X64395412Y-52965928D01*
X64787269Y-52966270D01*
X65149429Y-52816629D01*
X65426755Y-52539786D01*
X65577028Y-52177888D01*
X65577370Y-51786031D01*
X65512082Y-51628020D01*
X66272601Y-50867501D01*
X66419707Y-50647340D01*
X66837560Y-50647340D01*
X67072877Y-50603062D01*
X67273099Y-50474223D01*
X67451810Y-50596331D01*
X67703700Y-50647340D01*
X68338700Y-50647340D01*
X68574017Y-50603062D01*
X68772931Y-50475065D01*
X68950410Y-50596331D01*
X69202300Y-50647340D01*
X69837300Y-50647340D01*
X70072617Y-50603062D01*
X70272839Y-50474223D01*
X70451550Y-50596331D01*
X70703440Y-50647340D01*
X71338440Y-50647340D01*
X71573757Y-50603062D01*
X71772671Y-50475065D01*
X71875331Y-50545209D01*
X71992299Y-50720265D01*
X72330035Y-51058001D01*
X72576597Y-51222748D01*
X72765310Y-51260286D01*
X72860014Y-51355155D01*
X73221912Y-51505428D01*
X73613769Y-51505770D01*
X73975929Y-51356129D01*
X74253255Y-51079286D01*
X74403528Y-50717388D01*
X74403600Y-50635030D01*
X74573497Y-50603062D01*
X74773719Y-50474223D01*
X74952430Y-50596331D01*
X75204320Y-50647340D01*
X75839320Y-50647340D01*
X76074637Y-50603062D01*
X76277511Y-50472516D01*
X76343221Y-50538227D01*
X76576610Y-50634900D01*
X76734670Y-50634900D01*
X76893420Y-50476150D01*
X76893420Y-49377600D01*
X77147420Y-49377600D01*
X77147420Y-50476150D01*
X77306170Y-50634900D01*
X77464230Y-50634900D01*
X77616484Y-50571834D01*
X77669390Y-50624740D01*
X78767940Y-50624740D01*
X78767940Y-49957990D01*
X78609190Y-49799240D01*
X78019331Y-49799240D01*
X77972920Y-49818464D01*
X77972920Y-49536350D01*
X77814170Y-49377600D01*
X77147420Y-49377600D01*
X76893420Y-49377600D01*
X76873420Y-49377600D01*
X76873420Y-49123600D01*
X76893420Y-49123600D01*
X76893420Y-49103600D01*
X77147420Y-49103600D01*
X77147420Y-49123600D01*
X77814170Y-49123600D01*
X77972920Y-48964850D01*
X77972920Y-48772488D01*
X78019988Y-48803938D01*
X78435200Y-48886529D01*
X78850412Y-48803938D01*
X79070200Y-48657080D01*
X79289988Y-48803938D01*
X79705200Y-48886529D01*
X80120412Y-48803938D01*
X80472411Y-48568740D01*
X80707609Y-48216741D01*
X80740200Y-48052895D01*
X80740200Y-49164600D01*
G36*
X63322200Y-46837600D02*
X63342200Y-46837600D01*
X63342200Y-47091600D01*
X63322200Y-47091600D01*
X63322200Y-47111600D01*
X63068200Y-47111600D01*
X63068200Y-47091600D01*
X63048200Y-47091600D01*
X63048200Y-46837600D01*
X63068200Y-46837600D01*
X63068200Y-46817600D01*
X63322200Y-46817600D01*
X63322200Y-46837600D01*
X63322200Y-46837600D01*
G37*
X63322200Y-46837600D02*
X63342200Y-46837600D01*
X63342200Y-47091600D01*
X63322200Y-47091600D01*
X63322200Y-47111600D01*
X63068200Y-47111600D01*
X63068200Y-47091600D01*
X63048200Y-47091600D01*
X63048200Y-46837600D01*
X63068200Y-46837600D01*
X63068200Y-46817600D01*
X63322200Y-46817600D01*
X63322200Y-46837600D01*
G36*
X80740200Y-37249100D02*
X80219029Y-37249100D01*
X80101034Y-36963531D01*
X79422839Y-36284151D01*
X78536281Y-35916020D01*
X77576330Y-35915183D01*
X76689131Y-36281766D01*
X76009751Y-36959961D01*
X75641620Y-37846519D01*
X75640783Y-38806470D01*
X76007366Y-39693669D01*
X76685561Y-40373049D01*
X77572119Y-40741180D01*
X78532070Y-40742017D01*
X79419269Y-40375434D01*
X80098649Y-39697239D01*
X80218710Y-39408100D01*
X80740200Y-39408100D01*
X80740200Y-45876305D01*
X80707609Y-45712459D01*
X80472411Y-45360460D01*
X80120412Y-45125262D01*
X79705200Y-45042671D01*
X79665892Y-45050490D01*
X79430002Y-44814600D01*
X79183440Y-44649853D01*
X78892601Y-44592001D01*
X78101440Y-44592001D01*
X78101440Y-44127000D01*
X78057162Y-43891683D01*
X77918090Y-43675559D01*
X77705890Y-43530569D01*
X77454000Y-43479560D01*
X76954000Y-43479560D01*
X76718683Y-43523838D01*
X76502559Y-43662910D01*
X76454866Y-43732711D01*
X76418090Y-43675559D01*
X76205890Y-43530569D01*
X75954000Y-43479560D01*
X75454000Y-43479560D01*
X75218683Y-43523838D01*
X75021480Y-43650735D01*
X74927690Y-43588067D01*
X74802886Y-43463045D01*
X74440988Y-43312772D01*
X74049131Y-43312430D01*
X73895617Y-43375860D01*
X73895870Y-43086531D01*
X73746229Y-42724371D01*
X73607200Y-42585099D01*
X73607200Y-41948100D01*
X73560071Y-41711169D01*
X73549348Y-41657260D01*
X73384601Y-41410699D01*
X72194101Y-40220199D01*
X71947539Y-40055452D01*
X71932622Y-40052485D01*
X71806290Y-39856159D01*
X71594090Y-39711169D01*
X71342200Y-39660160D01*
X70542200Y-39660160D01*
X70306883Y-39704438D01*
X70090759Y-39843510D01*
X69945769Y-40055710D01*
X69905663Y-40253759D01*
X69874700Y-40247600D01*
X69230586Y-40247600D01*
X69104090Y-40161169D01*
X68852200Y-40110160D01*
X67952200Y-40110160D01*
X67716883Y-40154438D01*
X67500759Y-40293510D01*
X67355769Y-40505710D01*
X67342186Y-40572784D01*
X66091775Y-39322373D01*
X66286870Y-39192015D01*
X66497200Y-38877234D01*
X66707530Y-39192015D01*
X67193711Y-39516871D01*
X67767200Y-39630945D01*
X68340689Y-39516871D01*
X68826870Y-39192015D01*
X69037200Y-38877234D01*
X69247530Y-39192015D01*
X69733711Y-39516871D01*
X70307200Y-39630945D01*
X70880689Y-39516871D01*
X71225985Y-39286151D01*
X71233040Y-39284748D01*
X71479601Y-39120001D01*
X71610628Y-38923906D01*
X71945164Y-39298332D01*
X72472409Y-39552309D01*
X72488174Y-39554958D01*
X72720200Y-39433817D01*
X72720200Y-38074600D01*
X72974200Y-38074600D01*
X72974200Y-39433817D01*
X73206226Y-39554958D01*
X73221991Y-39552309D01*
X73749236Y-39298332D01*
X74139154Y-38861920D01*
X74332384Y-38309513D01*
X74188124Y-38074600D01*
X72974200Y-38074600D01*
X72720200Y-38074600D01*
X72700200Y-38074600D01*
X72700200Y-37820600D01*
X72720200Y-37820600D01*
X72720200Y-36461383D01*
X72974200Y-36461383D01*
X72974200Y-37820600D01*
X74188124Y-37820600D01*
X74332384Y-37585687D01*
X74139154Y-37033280D01*
X73749236Y-36596868D01*
X73221991Y-36342891D01*
X73206226Y-36340242D01*
X72974200Y-36461383D01*
X72720200Y-36461383D01*
X72488174Y-36340242D01*
X72472409Y-36342891D01*
X71945164Y-36596868D01*
X71573661Y-37012669D01*
X71366870Y-36703185D01*
X70880689Y-36378329D01*
X70307200Y-36264255D01*
X69733711Y-36378329D01*
X69247530Y-36703185D01*
X69037200Y-37017966D01*
X68826870Y-36703185D01*
X68340689Y-36378329D01*
X67767200Y-36264255D01*
X67193711Y-36378329D01*
X66707530Y-36703185D01*
X66497200Y-37017966D01*
X66286870Y-36703185D01*
X65800689Y-36378329D01*
X65227200Y-36264255D01*
X64653711Y-36378329D01*
X64167530Y-36703185D01*
X63957200Y-37017966D01*
X63746870Y-36703185D01*
X63260689Y-36378329D01*
X62687200Y-36264255D01*
X62113711Y-36378329D01*
X61627530Y-36703185D01*
X61617957Y-36717513D01*
X61613962Y-36696283D01*
X61474890Y-36480159D01*
X61262690Y-36335169D01*
X61010800Y-36284160D01*
X59309796Y-36284160D01*
X59433866Y-36160090D01*
X73393251Y-36160090D01*
X73684090Y-36102238D01*
X73930652Y-35937491D01*
X76875543Y-32992600D01*
X80740200Y-32992600D01*
X80740200Y-37249100D01*
X80740200Y-37249100D01*
G37*
X80740200Y-37249100D02*
X80219029Y-37249100D01*
X80101034Y-36963531D01*
X79422839Y-36284151D01*
X78536281Y-35916020D01*
X77576330Y-35915183D01*
X76689131Y-36281766D01*
X76009751Y-36959961D01*
X75641620Y-37846519D01*
X75640783Y-38806470D01*
X76007366Y-39693669D01*
X76685561Y-40373049D01*
X77572119Y-40741180D01*
X78532070Y-40742017D01*
X79419269Y-40375434D01*
X80098649Y-39697239D01*
X80218710Y-39408100D01*
X80740200Y-39408100D01*
X80740200Y-45876305D01*
X80707609Y-45712459D01*
X80472411Y-45360460D01*
X80120412Y-45125262D01*
X79705200Y-45042671D01*
X79665892Y-45050490D01*
X79430002Y-44814600D01*
X79183440Y-44649853D01*
X78892601Y-44592001D01*
X78101440Y-44592001D01*
X78101440Y-44127000D01*
X78057162Y-43891683D01*
X77918090Y-43675559D01*
X77705890Y-43530569D01*
X77454000Y-43479560D01*
X76954000Y-43479560D01*
X76718683Y-43523838D01*
X76502559Y-43662910D01*
X76454866Y-43732711D01*
X76418090Y-43675559D01*
X76205890Y-43530569D01*
X75954000Y-43479560D01*
X75454000Y-43479560D01*
X75218683Y-43523838D01*
X75021480Y-43650735D01*
X74927690Y-43588067D01*
X74802886Y-43463045D01*
X74440988Y-43312772D01*
X74049131Y-43312430D01*
X73895617Y-43375860D01*
X73895870Y-43086531D01*
X73746229Y-42724371D01*
X73607200Y-42585099D01*
X73607200Y-41948100D01*
X73560071Y-41711169D01*
X73549348Y-41657260D01*
X73384601Y-41410699D01*
X72194101Y-40220199D01*
X71947539Y-40055452D01*
X71932622Y-40052485D01*
X71806290Y-39856159D01*
X71594090Y-39711169D01*
X71342200Y-39660160D01*
X70542200Y-39660160D01*
X70306883Y-39704438D01*
X70090759Y-39843510D01*
X69945769Y-40055710D01*
X69905663Y-40253759D01*
X69874700Y-40247600D01*
X69230586Y-40247600D01*
X69104090Y-40161169D01*
X68852200Y-40110160D01*
X67952200Y-40110160D01*
X67716883Y-40154438D01*
X67500759Y-40293510D01*
X67355769Y-40505710D01*
X67342186Y-40572784D01*
X66091775Y-39322373D01*
X66286870Y-39192015D01*
X66497200Y-38877234D01*
X66707530Y-39192015D01*
X67193711Y-39516871D01*
X67767200Y-39630945D01*
X68340689Y-39516871D01*
X68826870Y-39192015D01*
X69037200Y-38877234D01*
X69247530Y-39192015D01*
X69733711Y-39516871D01*
X70307200Y-39630945D01*
X70880689Y-39516871D01*
X71225985Y-39286151D01*
X71233040Y-39284748D01*
X71479601Y-39120001D01*
X71610628Y-38923906D01*
X71945164Y-39298332D01*
X72472409Y-39552309D01*
X72488174Y-39554958D01*
X72720200Y-39433817D01*
X72720200Y-38074600D01*
X72974200Y-38074600D01*
X72974200Y-39433817D01*
X73206226Y-39554958D01*
X73221991Y-39552309D01*
X73749236Y-39298332D01*
X74139154Y-38861920D01*
X74332384Y-38309513D01*
X74188124Y-38074600D01*
X72974200Y-38074600D01*
X72720200Y-38074600D01*
X72700200Y-38074600D01*
X72700200Y-37820600D01*
X72720200Y-37820600D01*
X72720200Y-36461383D01*
X72974200Y-36461383D01*
X72974200Y-37820600D01*
X74188124Y-37820600D01*
X74332384Y-37585687D01*
X74139154Y-37033280D01*
X73749236Y-36596868D01*
X73221991Y-36342891D01*
X73206226Y-36340242D01*
X72974200Y-36461383D01*
X72720200Y-36461383D01*
X72488174Y-36340242D01*
X72472409Y-36342891D01*
X71945164Y-36596868D01*
X71573661Y-37012669D01*
X71366870Y-36703185D01*
X70880689Y-36378329D01*
X70307200Y-36264255D01*
X69733711Y-36378329D01*
X69247530Y-36703185D01*
X69037200Y-37017966D01*
X68826870Y-36703185D01*
X68340689Y-36378329D01*
X67767200Y-36264255D01*
X67193711Y-36378329D01*
X66707530Y-36703185D01*
X66497200Y-37017966D01*
X66286870Y-36703185D01*
X65800689Y-36378329D01*
X65227200Y-36264255D01*
X64653711Y-36378329D01*
X64167530Y-36703185D01*
X63957200Y-37017966D01*
X63746870Y-36703185D01*
X63260689Y-36378329D01*
X62687200Y-36264255D01*
X62113711Y-36378329D01*
X61627530Y-36703185D01*
X61617957Y-36717513D01*
X61613962Y-36696283D01*
X61474890Y-36480159D01*
X61262690Y-36335169D01*
X61010800Y-36284160D01*
X59309796Y-36284160D01*
X59433866Y-36160090D01*
X73393251Y-36160090D01*
X73684090Y-36102238D01*
X73930652Y-35937491D01*
X76875543Y-32992600D01*
X80740200Y-32992600D01*
X80740200Y-37249100D01*
G36*
X73390950Y-26755600D02*
X75340200Y-26755600D01*
X75340200Y-26735600D01*
X75594200Y-26735600D01*
X75594200Y-26755600D01*
X77543450Y-26755600D01*
X77654450Y-26644600D01*
X80079950Y-26644600D01*
X80190950Y-26755600D01*
X82140200Y-26755600D01*
X82140200Y-26735600D01*
X82394200Y-26735600D01*
X82394200Y-26755600D01*
X84343450Y-26755600D01*
X84454450Y-26644600D01*
X85825950Y-26644600D01*
X85952950Y-26771600D01*
X86702200Y-26771600D01*
X86702200Y-26751600D01*
X86956200Y-26751600D01*
X86956200Y-26771600D01*
X86976200Y-26771600D01*
X86976200Y-27025600D01*
X86956200Y-27025600D01*
X86956200Y-27749850D01*
X87114950Y-27908600D01*
X87355509Y-27908600D01*
X87588898Y-27811927D01*
X87590268Y-27810557D01*
X87677310Y-27870031D01*
X87929200Y-27921040D01*
X88729200Y-27921040D01*
X88964517Y-27876762D01*
X89127943Y-27771600D01*
X89230200Y-27771600D01*
X89230200Y-31089600D01*
X89263219Y-31255600D01*
X84514640Y-31255600D01*
X84514640Y-30382600D01*
X84470362Y-30147283D01*
X84331290Y-29931159D01*
X84119090Y-29786169D01*
X83867200Y-29735160D01*
X80667200Y-29735160D01*
X80431883Y-29779438D01*
X80215759Y-29918510D01*
X80164452Y-29993600D01*
X77571470Y-29993600D01*
X77531290Y-29931159D01*
X77319090Y-29786169D01*
X77067200Y-29735160D01*
X73867200Y-29735160D01*
X73631883Y-29779438D01*
X73415759Y-29918510D01*
X73270769Y-30130710D01*
X73219760Y-30382600D01*
X73219760Y-31382600D01*
X73264038Y-31617917D01*
X73403110Y-31834041D01*
X73615310Y-31979031D01*
X73867200Y-32030040D01*
X73994958Y-32030040D01*
X72012398Y-34012600D01*
X62511809Y-34012600D01*
X62623490Y-33743641D01*
X62623909Y-33263665D01*
X62440618Y-32820065D01*
X62101520Y-32480375D01*
X61658241Y-32296310D01*
X61178265Y-32295891D01*
X60734665Y-32479182D01*
X60600012Y-32613600D01*
X57721436Y-32613600D01*
X57137876Y-32030040D01*
X59567200Y-32030040D01*
X59802517Y-31985762D01*
X60018641Y-31846690D01*
X60113335Y-31708100D01*
X62622069Y-31708100D01*
X62703110Y-31834041D01*
X62915310Y-31979031D01*
X63167200Y-32030040D01*
X66367200Y-32030040D01*
X66602517Y-31985762D01*
X66818641Y-31846690D01*
X66869948Y-31771600D01*
X67183004Y-31771600D01*
X67208514Y-31797155D01*
X67570412Y-31947428D01*
X67962269Y-31947770D01*
X68324429Y-31798129D01*
X68601755Y-31521286D01*
X68752028Y-31159388D01*
X68752370Y-30767531D01*
X68602729Y-30405371D01*
X68325886Y-30128045D01*
X67963988Y-29977772D01*
X67572131Y-29977430D01*
X67532996Y-29993600D01*
X66871470Y-29993600D01*
X66831290Y-29931159D01*
X66619090Y-29786169D01*
X66367200Y-29735160D01*
X63167200Y-29735160D01*
X62931883Y-29779438D01*
X62715759Y-29918510D01*
X62621065Y-30057100D01*
X60112331Y-30057100D01*
X60031290Y-29931159D01*
X59819090Y-29786169D01*
X59567200Y-29735160D01*
X57379876Y-29735160D01*
X58595818Y-28519218D01*
X58723853Y-28327600D01*
X58788529Y-28230806D01*
X58828464Y-28030040D01*
X59567200Y-28030040D01*
X59802517Y-27985762D01*
X60018641Y-27846690D01*
X60069948Y-27771600D01*
X62662930Y-27771600D01*
X62703110Y-27834041D01*
X62915310Y-27979031D01*
X63167200Y-28030040D01*
X66367200Y-28030040D01*
X66602517Y-27985762D01*
X66818641Y-27846690D01*
X66869948Y-27771600D01*
X68761251Y-27771600D01*
X68905310Y-27870031D01*
X69157200Y-27921040D01*
X69957200Y-27921040D01*
X70192517Y-27876762D01*
X70295846Y-27810271D01*
X70297502Y-27811927D01*
X70530891Y-27908600D01*
X70771450Y-27908600D01*
X70930200Y-27749850D01*
X70930200Y-27025600D01*
X71184200Y-27025600D01*
X71184200Y-27749850D01*
X71342950Y-27908600D01*
X71583509Y-27908600D01*
X71816898Y-27811927D01*
X71995527Y-27633299D01*
X72092200Y-27399910D01*
X72092200Y-27184350D01*
X72076200Y-27168350D01*
X73232200Y-27168350D01*
X73232200Y-27508910D01*
X73328873Y-27742299D01*
X73507502Y-27920927D01*
X73740891Y-28017600D01*
X75181450Y-28017600D01*
X75340200Y-27858850D01*
X75340200Y-27009600D01*
X75594200Y-27009600D01*
X75594200Y-27858850D01*
X75752950Y-28017600D01*
X77193509Y-28017600D01*
X77426898Y-27920927D01*
X77605527Y-27742299D01*
X77702200Y-27508910D01*
X77702200Y-27168350D01*
X80032200Y-27168350D01*
X80032200Y-27508910D01*
X80128873Y-27742299D01*
X80307502Y-27920927D01*
X80540891Y-28017600D01*
X81981450Y-28017600D01*
X82140200Y-27858850D01*
X82140200Y-27009600D01*
X82394200Y-27009600D01*
X82394200Y-27858850D01*
X82552950Y-28017600D01*
X83993509Y-28017600D01*
X84226898Y-27920927D01*
X84405527Y-27742299D01*
X84502200Y-27508910D01*
X84502200Y-27184350D01*
X85794200Y-27184350D01*
X85794200Y-27399910D01*
X85890873Y-27633299D01*
X86069502Y-27811927D01*
X86302891Y-27908600D01*
X86543450Y-27908600D01*
X86702200Y-27749850D01*
X86702200Y-27025600D01*
X85952950Y-27025600D01*
X85794200Y-27184350D01*
X84502200Y-27184350D01*
X84502200Y-27168350D01*
X84343450Y-27009600D01*
X82394200Y-27009600D01*
X82140200Y-27009600D01*
X80190950Y-27009600D01*
X80032200Y-27168350D01*
X77702200Y-27168350D01*
X77543450Y-27009600D01*
X75594200Y-27009600D01*
X75340200Y-27009600D01*
X73390950Y-27009600D01*
X73232200Y-27168350D01*
X72076200Y-27168350D01*
X71933450Y-27025600D01*
X71184200Y-27025600D01*
X70930200Y-27025600D01*
X70910200Y-27025600D01*
X70910200Y-26771600D01*
X70930200Y-26771600D01*
X70930200Y-26751600D01*
X71184200Y-26751600D01*
X71184200Y-26771600D01*
X71933450Y-26771600D01*
X72060450Y-26644600D01*
X73279950Y-26644600D01*
X73390950Y-26755600D01*
X73390950Y-26755600D01*
G37*
X73390950Y-26755600D02*
X75340200Y-26755600D01*
X75340200Y-26735600D01*
X75594200Y-26735600D01*
X75594200Y-26755600D01*
X77543450Y-26755600D01*
X77654450Y-26644600D01*
X80079950Y-26644600D01*
X80190950Y-26755600D01*
X82140200Y-26755600D01*
X82140200Y-26735600D01*
X82394200Y-26735600D01*
X82394200Y-26755600D01*
X84343450Y-26755600D01*
X84454450Y-26644600D01*
X85825950Y-26644600D01*
X85952950Y-26771600D01*
X86702200Y-26771600D01*
X86702200Y-26751600D01*
X86956200Y-26751600D01*
X86956200Y-26771600D01*
X86976200Y-26771600D01*
X86976200Y-27025600D01*
X86956200Y-27025600D01*
X86956200Y-27749850D01*
X87114950Y-27908600D01*
X87355509Y-27908600D01*
X87588898Y-27811927D01*
X87590268Y-27810557D01*
X87677310Y-27870031D01*
X87929200Y-27921040D01*
X88729200Y-27921040D01*
X88964517Y-27876762D01*
X89127943Y-27771600D01*
X89230200Y-27771600D01*
X89230200Y-31089600D01*
X89263219Y-31255600D01*
X84514640Y-31255600D01*
X84514640Y-30382600D01*
X84470362Y-30147283D01*
X84331290Y-29931159D01*
X84119090Y-29786169D01*
X83867200Y-29735160D01*
X80667200Y-29735160D01*
X80431883Y-29779438D01*
X80215759Y-29918510D01*
X80164452Y-29993600D01*
X77571470Y-29993600D01*
X77531290Y-29931159D01*
X77319090Y-29786169D01*
X77067200Y-29735160D01*
X73867200Y-29735160D01*
X73631883Y-29779438D01*
X73415759Y-29918510D01*
X73270769Y-30130710D01*
X73219760Y-30382600D01*
X73219760Y-31382600D01*
X73264038Y-31617917D01*
X73403110Y-31834041D01*
X73615310Y-31979031D01*
X73867200Y-32030040D01*
X73994958Y-32030040D01*
X72012398Y-34012600D01*
X62511809Y-34012600D01*
X62623490Y-33743641D01*
X62623909Y-33263665D01*
X62440618Y-32820065D01*
X62101520Y-32480375D01*
X61658241Y-32296310D01*
X61178265Y-32295891D01*
X60734665Y-32479182D01*
X60600012Y-32613600D01*
X57721436Y-32613600D01*
X57137876Y-32030040D01*
X59567200Y-32030040D01*
X59802517Y-31985762D01*
X60018641Y-31846690D01*
X60113335Y-31708100D01*
X62622069Y-31708100D01*
X62703110Y-31834041D01*
X62915310Y-31979031D01*
X63167200Y-32030040D01*
X66367200Y-32030040D01*
X66602517Y-31985762D01*
X66818641Y-31846690D01*
X66869948Y-31771600D01*
X67183004Y-31771600D01*
X67208514Y-31797155D01*
X67570412Y-31947428D01*
X67962269Y-31947770D01*
X68324429Y-31798129D01*
X68601755Y-31521286D01*
X68752028Y-31159388D01*
X68752370Y-30767531D01*
X68602729Y-30405371D01*
X68325886Y-30128045D01*
X67963988Y-29977772D01*
X67572131Y-29977430D01*
X67532996Y-29993600D01*
X66871470Y-29993600D01*
X66831290Y-29931159D01*
X66619090Y-29786169D01*
X66367200Y-29735160D01*
X63167200Y-29735160D01*
X62931883Y-29779438D01*
X62715759Y-29918510D01*
X62621065Y-30057100D01*
X60112331Y-30057100D01*
X60031290Y-29931159D01*
X59819090Y-29786169D01*
X59567200Y-29735160D01*
X57379876Y-29735160D01*
X58595818Y-28519218D01*
X58723853Y-28327600D01*
X58788529Y-28230806D01*
X58828464Y-28030040D01*
X59567200Y-28030040D01*
X59802517Y-27985762D01*
X60018641Y-27846690D01*
X60069948Y-27771600D01*
X62662930Y-27771600D01*
X62703110Y-27834041D01*
X62915310Y-27979031D01*
X63167200Y-28030040D01*
X66367200Y-28030040D01*
X66602517Y-27985762D01*
X66818641Y-27846690D01*
X66869948Y-27771600D01*
X68761251Y-27771600D01*
X68905310Y-27870031D01*
X69157200Y-27921040D01*
X69957200Y-27921040D01*
X70192517Y-27876762D01*
X70295846Y-27810271D01*
X70297502Y-27811927D01*
X70530891Y-27908600D01*
X70771450Y-27908600D01*
X70930200Y-27749850D01*
X70930200Y-27025600D01*
X71184200Y-27025600D01*
X71184200Y-27749850D01*
X71342950Y-27908600D01*
X71583509Y-27908600D01*
X71816898Y-27811927D01*
X71995527Y-27633299D01*
X72092200Y-27399910D01*
X72092200Y-27184350D01*
X72076200Y-27168350D01*
X73232200Y-27168350D01*
X73232200Y-27508910D01*
X73328873Y-27742299D01*
X73507502Y-27920927D01*
X73740891Y-28017600D01*
X75181450Y-28017600D01*
X75340200Y-27858850D01*
X75340200Y-27009600D01*
X75594200Y-27009600D01*
X75594200Y-27858850D01*
X75752950Y-28017600D01*
X77193509Y-28017600D01*
X77426898Y-27920927D01*
X77605527Y-27742299D01*
X77702200Y-27508910D01*
X77702200Y-27168350D01*
X80032200Y-27168350D01*
X80032200Y-27508910D01*
X80128873Y-27742299D01*
X80307502Y-27920927D01*
X80540891Y-28017600D01*
X81981450Y-28017600D01*
X82140200Y-27858850D01*
X82140200Y-27009600D01*
X82394200Y-27009600D01*
X82394200Y-27858850D01*
X82552950Y-28017600D01*
X83993509Y-28017600D01*
X84226898Y-27920927D01*
X84405527Y-27742299D01*
X84502200Y-27508910D01*
X84502200Y-27184350D01*
X85794200Y-27184350D01*
X85794200Y-27399910D01*
X85890873Y-27633299D01*
X86069502Y-27811927D01*
X86302891Y-27908600D01*
X86543450Y-27908600D01*
X86702200Y-27749850D01*
X86702200Y-27025600D01*
X85952950Y-27025600D01*
X85794200Y-27184350D01*
X84502200Y-27184350D01*
X84502200Y-27168350D01*
X84343450Y-27009600D01*
X82394200Y-27009600D01*
X82140200Y-27009600D01*
X80190950Y-27009600D01*
X80032200Y-27168350D01*
X77702200Y-27168350D01*
X77543450Y-27009600D01*
X75594200Y-27009600D01*
X75340200Y-27009600D01*
X73390950Y-27009600D01*
X73232200Y-27168350D01*
X72076200Y-27168350D01*
X71933450Y-27025600D01*
X71184200Y-27025600D01*
X70930200Y-27025600D01*
X70910200Y-27025600D01*
X70910200Y-26771600D01*
X70930200Y-26771600D01*
X70930200Y-26751600D01*
X71184200Y-26751600D01*
X71184200Y-26771600D01*
X71933450Y-26771600D01*
X72060450Y-26644600D01*
X73279950Y-26644600D01*
X73390950Y-26755600D01*
M02*
