G04 #@! TF.FileFunction,Copper,L2,Bot,Signal*
%FSLAX46Y46*%
G04 Gerber Fmt 4.6, Leading zero omitted, Abs format (unit mm)*
G04 Created by KiCad (PCBNEW 4.0.6) date 11/06/17 12:40:06*
%MOMM*%
%LPD*%
G01*
G04 APERTURE LIST*
%ADD10C,0.100000*%
%ADD11C,1.143000*%
%ADD12C,3.556000*%
%ADD13C,2.540000*%
%ADD14C,2.159000*%
%ADD15R,2.400300X2.400300*%
%ADD16C,2.400300*%
%ADD17R,1.727200X2.032000*%
%ADD18O,1.727200X2.032000*%
%ADD19C,0.700000*%
%ADD20C,0.635000*%
%ADD21C,0.508000*%
%ADD22C,0.250000*%
%ADD23C,0.762000*%
%ADD24C,0.889000*%
%ADD25C,0.381000*%
%ADD26C,0.254000*%
G04 APERTURE END LIST*
D10*
D11*
X61417200Y-33502600D03*
D12*
X78054200Y-38328600D03*
D13*
X87579200Y-38328600D03*
D14*
X87579200Y-43408600D03*
X92024200Y-35788600D03*
X83134200Y-35788600D03*
D15*
X84101940Y-56362600D03*
D16*
X104089200Y-56362600D03*
D17*
X60147200Y-37947600D03*
D18*
X62687200Y-37947600D03*
X65227200Y-37947600D03*
X67767200Y-37947600D03*
X70307200Y-37947600D03*
X72847200Y-37947600D03*
D11*
X61417200Y-79222600D03*
X96342200Y-34137600D03*
X96342200Y-79222600D03*
X102692200Y-73507600D03*
X83261200Y-70840600D03*
X91262200Y-67157600D03*
X82626200Y-45440600D03*
X62687200Y-74777600D03*
X98867200Y-42382600D03*
X71867200Y-80382600D03*
X57734200Y-72872600D03*
X95072200Y-67157600D03*
D19*
X93040200Y-65633600D03*
X83007200Y-74396600D03*
X84785200Y-64617600D03*
X84785200Y-63411100D03*
X104089200Y-51727100D03*
X104089200Y-52806600D03*
X104089200Y-53949600D03*
X104089200Y-53949600D03*
X61671200Y-59791600D03*
X61671200Y-64427100D03*
X84785200Y-62204600D03*
X87579200Y-30454600D03*
X87579200Y-34137600D03*
X66878200Y-53949600D03*
X66878200Y-56235600D03*
X71069200Y-59918600D03*
X74879200Y-56362600D03*
X73355200Y-52298600D03*
X71069200Y-52298600D03*
X80467200Y-44932600D03*
X80467200Y-48996600D03*
X66878200Y-58648600D03*
X68402200Y-59918600D03*
X73355200Y-59982100D03*
X74879200Y-58648600D03*
X74879200Y-53822600D03*
X68402200Y-52298600D03*
X99771200Y-50774600D03*
X99771200Y-52044600D03*
X99771200Y-53314600D03*
X93675200Y-72237600D03*
X94925200Y-72237600D03*
X94925200Y-70987600D03*
X93675200Y-70987600D03*
X75768200Y-68173600D03*
X68402200Y-68046600D03*
X92659200Y-74269600D03*
X81610200Y-78841600D03*
X64782700Y-68237100D03*
X58242200Y-68300600D03*
X83134200Y-68046600D03*
X92659200Y-68935600D03*
X95961200Y-74333100D03*
X61226700Y-47536100D03*
X61671200Y-44234100D03*
X64592200Y-51981100D03*
X76466700Y-67036100D03*
X76022200Y-72682100D03*
X76022200Y-71221600D03*
X69799200Y-82905600D03*
X70307200Y-77508100D03*
X64338200Y-50584100D03*
X81102200Y-66268600D03*
X81483200Y-69062600D03*
X81991200Y-76555600D03*
X75165570Y-61007610D03*
X74244200Y-44297600D03*
X69291200Y-44170600D03*
X67767200Y-30962600D03*
X91897200Y-29438600D03*
X90373200Y-72110600D03*
X93865700Y-75158600D03*
X91532200Y-76057600D03*
X91135200Y-71285100D03*
X55075199Y-72864601D03*
X57035700Y-38582600D03*
X73333866Y-61942600D03*
X64020700Y-41567100D03*
X60749402Y-66047398D03*
X63957200Y-44742100D03*
X67640200Y-66649600D03*
X66243200Y-44805600D03*
X62115700Y-66459100D03*
X62687200Y-44424600D03*
X68910200Y-66967100D03*
X67259200Y-44805600D03*
X70942200Y-41884600D03*
X71831200Y-61887100D03*
X72910700Y-43281600D03*
X73418700Y-50520600D03*
X72783700Y-66776600D03*
X69989700Y-71285100D03*
X57353200Y-76555600D03*
X62433200Y-72618600D03*
X56400700Y-75476100D03*
X58686700Y-34772600D03*
X77800200Y-66967100D03*
X97615061Y-70730992D03*
X83896200Y-72110600D03*
X96977200Y-70078600D03*
D20*
X89484200Y-66522600D02*
X90373200Y-65633600D01*
X90373200Y-65633600D02*
X93040200Y-65633600D01*
X89484200Y-69697600D02*
X89484200Y-66522600D01*
X87071200Y-72110600D02*
X89484200Y-69697600D01*
X85293200Y-72110600D02*
X87071200Y-72110600D01*
X83007200Y-74396600D02*
X85293200Y-72110600D01*
D21*
X92659200Y-68935600D02*
X92214700Y-68935600D01*
X92214700Y-68935600D02*
X92024200Y-69126100D01*
X92024200Y-69126100D02*
X92024200Y-73634600D01*
X92024200Y-73634600D02*
X92659200Y-74269600D01*
D20*
X75768200Y-68046600D02*
X75387200Y-68427600D01*
X75387200Y-68427600D02*
X75133200Y-68681600D01*
D22*
X75768200Y-68173600D02*
X75641200Y-68173600D01*
X75641200Y-68173600D02*
X75387200Y-68427600D01*
X64782700Y-68237100D02*
X64655700Y-68237100D01*
X64655700Y-68237100D02*
X64465200Y-68046600D01*
D23*
X84785200Y-63411100D02*
X84785200Y-64617600D01*
X61671200Y-61061600D02*
X61671200Y-64419590D01*
D20*
X61861700Y-68046600D02*
X59512200Y-68046600D01*
X64465200Y-68046600D02*
X61861700Y-68046600D01*
X75133200Y-68681600D02*
X69037200Y-68681600D01*
X69037200Y-68681600D02*
X68402200Y-68046600D01*
D22*
X64782700Y-68046600D02*
X64465200Y-68046600D01*
D23*
X61671200Y-61061600D02*
X61671200Y-59791600D01*
D24*
X87579200Y-34137600D02*
X87579200Y-30454600D01*
D21*
X80340200Y-68046600D02*
X80340200Y-77571600D01*
X80340200Y-77571600D02*
X81610200Y-78841600D01*
D20*
X80340200Y-68046600D02*
X75768200Y-68046600D01*
X68402200Y-68046600D02*
X64465200Y-68046600D01*
D21*
X92659200Y-74269600D02*
X95441200Y-74269600D01*
X95441200Y-74269600D02*
X95707200Y-74535600D01*
D20*
X83134200Y-68046600D02*
X80340200Y-68046600D01*
X59512200Y-68046600D02*
X59258200Y-68300600D01*
X59258200Y-68300600D02*
X58242200Y-68300600D01*
D22*
X61226700Y-41757600D02*
X61226700Y-44234100D01*
X61226700Y-44234100D02*
X61226700Y-47536100D01*
X61671200Y-44234100D02*
X61226700Y-44234100D01*
X59468936Y-39999836D02*
X61226700Y-41757600D01*
X59448700Y-39999836D02*
X59468936Y-39999836D01*
X59448700Y-39999836D02*
X58958599Y-39509735D01*
X58958599Y-39509735D02*
X58958599Y-36671599D01*
X58958599Y-36671599D02*
X60603598Y-35026600D01*
X60603598Y-35026600D02*
X61163200Y-35026600D01*
X61163200Y-35026600D02*
X61417200Y-34772600D01*
X61417200Y-34772600D02*
X61417200Y-33502600D01*
X70307200Y-77952600D02*
X70307200Y-82397600D01*
X70307200Y-77698600D02*
X70307200Y-77952600D01*
X70307200Y-77952600D02*
X70307200Y-77508100D01*
X76466700Y-67036100D02*
X76098710Y-67404090D01*
X76098710Y-67404090D02*
X75394710Y-67404090D01*
X69867189Y-61829499D02*
X69867189Y-52743100D01*
X75394710Y-67404090D02*
X74759710Y-68039090D01*
X74759710Y-68039090D02*
X71695280Y-68039090D01*
X70682690Y-62645000D02*
X69867189Y-61829499D01*
X71695280Y-68039090D02*
X70682690Y-67026500D01*
X70682690Y-67026500D02*
X70682690Y-62645000D01*
X69867189Y-52743100D02*
X69867189Y-52552600D01*
X64592200Y-51981100D02*
X64592200Y-51486126D01*
X64592200Y-51486126D02*
X64922726Y-51155600D01*
X64922726Y-51155600D02*
X69608700Y-51155600D01*
X69867189Y-52552600D02*
X69867189Y-52431499D01*
X69608700Y-51155600D02*
X69867189Y-51414089D01*
X69867189Y-51414089D02*
X69867189Y-52552600D01*
X76022200Y-71221600D02*
X76022200Y-72682100D01*
X70307200Y-82397600D02*
X69799200Y-82905600D01*
X75209720Y-66954080D02*
X75895200Y-66268600D01*
X75895200Y-66268600D02*
X76309198Y-66268600D01*
X75208310Y-66954080D02*
X75209720Y-66954080D01*
X74573310Y-67589080D02*
X75208310Y-66954080D01*
X70317199Y-52806600D02*
X70317199Y-61643099D01*
X70317199Y-61643099D02*
X71132700Y-62458600D01*
X71132700Y-62458600D02*
X71132700Y-66840100D01*
X71132700Y-66840100D02*
X71881680Y-67589080D01*
X71881680Y-67589080D02*
X74573310Y-67589080D01*
X76309198Y-66268600D02*
X81102200Y-66268600D01*
X70317199Y-52806600D02*
X70317199Y-52245099D01*
X69989700Y-50584100D02*
X70317199Y-50911599D01*
X70317199Y-50911599D02*
X70317199Y-52806600D01*
X64338200Y-50584100D02*
X69989700Y-50584100D01*
X81483200Y-69062600D02*
X80975200Y-69570600D01*
X80975200Y-69570600D02*
X80975200Y-75115336D01*
X80975200Y-75115336D02*
X81991200Y-76131336D01*
X81991200Y-76131336D02*
X81991200Y-76555600D01*
D25*
X74371200Y-49123600D02*
X75958700Y-50711100D01*
X74244200Y-48488600D02*
X74244200Y-48996600D01*
X74244200Y-48996600D02*
X74371200Y-49123600D01*
X74244200Y-48488600D02*
X74244200Y-44297600D01*
X75958700Y-50711100D02*
X75958700Y-60214480D01*
X75958700Y-60214480D02*
X75165570Y-61007610D01*
X67767200Y-37947600D02*
X67767200Y-38100000D01*
X67767200Y-38100000D02*
X69291200Y-39624000D01*
X69291200Y-39624000D02*
X69291200Y-44170600D01*
D21*
X67767200Y-29819600D02*
X67767200Y-30962600D01*
X67767200Y-30962600D02*
X67767200Y-37947600D01*
X68148200Y-29438600D02*
X67767200Y-29819600D01*
X91897200Y-29438600D02*
X68148200Y-29438600D01*
D22*
X90881200Y-75031600D02*
X90881200Y-72618600D01*
X90881200Y-72618600D02*
X90373200Y-72110600D01*
X91008200Y-75158600D02*
X90881200Y-75031600D01*
X93929200Y-75158600D02*
X91008200Y-75158600D01*
D21*
X100279200Y-77317600D02*
X92792200Y-77317600D01*
X92792200Y-77317600D02*
X91532200Y-76057600D01*
X102120701Y-75476099D02*
X100279200Y-77317600D01*
X102692200Y-73507600D02*
X102120701Y-74079099D01*
X102120701Y-74079099D02*
X102120701Y-75476099D01*
X90992485Y-71226495D02*
X90992485Y-70967600D01*
D22*
X91135200Y-71285100D02*
X91135200Y-71110315D01*
D21*
X90992485Y-70967600D02*
X90992485Y-67427315D01*
D22*
X91135200Y-71110315D02*
X90992485Y-70967600D01*
D21*
X90992485Y-67427315D02*
X91262200Y-67157600D01*
X60330190Y-59315319D02*
X60330190Y-62783610D01*
X56988189Y-70951611D02*
X55075199Y-72864601D01*
X57035700Y-38582600D02*
X57035700Y-39471600D01*
X57035700Y-39471600D02*
X59972689Y-42408589D01*
X59972689Y-42408589D02*
X59972689Y-48116931D01*
X59972689Y-48116931D02*
X61658180Y-49802422D01*
X62560200Y-53314600D02*
X62560200Y-57886600D01*
X61658180Y-49802422D02*
X61658180Y-52342422D01*
X61658180Y-52342422D02*
X62595279Y-53279521D01*
X61138929Y-58506580D02*
X60330190Y-59315319D01*
X62595279Y-53279521D02*
X62560200Y-53314600D01*
X62560200Y-57886600D02*
X61940220Y-58506580D01*
X56988189Y-64417768D02*
X56988189Y-70951611D01*
X59583210Y-63530590D02*
X57875367Y-63530590D01*
X61940220Y-58506580D02*
X61138929Y-58506580D01*
X60330190Y-62783610D02*
X59583210Y-63530590D01*
X57875367Y-63530590D02*
X56988189Y-64417768D01*
D22*
X73333866Y-61942600D02*
X72656700Y-61265434D01*
X72666699Y-52695109D02*
X72666699Y-49875601D01*
X72656700Y-61265434D02*
X72656700Y-59681598D01*
X72656700Y-59681598D02*
X73667190Y-58671108D01*
X64846200Y-44407602D02*
X64846200Y-42392600D01*
X73799700Y-42519600D02*
X73545700Y-42265600D01*
X73799700Y-43563098D02*
X73799700Y-42519600D01*
X73667190Y-53695600D02*
X72666699Y-52695109D01*
X73667190Y-58671108D02*
X73667190Y-53695600D01*
X72666699Y-49875601D02*
X73365199Y-49177101D01*
X64846200Y-42392600D02*
X64020700Y-41567100D01*
X73365199Y-43997599D02*
X73799700Y-43563098D01*
X73365199Y-49177101D02*
X73365199Y-43997599D01*
X73545700Y-42265600D02*
X72085200Y-42265600D01*
X71196200Y-43154600D02*
X71196200Y-45059600D01*
X72085200Y-42265600D02*
X71196200Y-43154600D01*
X71196200Y-45059600D02*
X70434200Y-45821600D01*
X70434200Y-45821600D02*
X66260198Y-45821600D01*
X66260198Y-45821600D02*
X64846200Y-44407602D01*
X61798200Y-41567100D02*
X60147200Y-39916100D01*
X60147200Y-39916100D02*
X60147200Y-37947600D01*
X64020700Y-41567100D02*
X61798200Y-41567100D01*
X60147200Y-37947600D02*
X60147200Y-38100000D01*
X63957200Y-44742100D02*
X63449200Y-45250100D01*
X63449200Y-45250100D02*
X63449200Y-52017102D01*
X63449200Y-52017102D02*
X64405699Y-52973601D01*
X64405699Y-52973601D02*
X67426201Y-52973601D01*
X67426201Y-52973601D02*
X69417180Y-54964580D01*
X69417180Y-54964580D02*
X69417179Y-64618621D01*
X68338401Y-65697399D02*
X67640200Y-65697399D01*
X69417179Y-64618621D02*
X68338401Y-65697399D01*
X61099401Y-65697399D02*
X67640200Y-65697399D01*
X67640200Y-66083610D02*
X67640200Y-65697399D01*
X60749402Y-66047398D02*
X61099401Y-65697399D01*
X67640200Y-66649600D02*
X67640200Y-66083610D01*
X66243200Y-44805600D02*
X66243200Y-44381336D01*
X66243200Y-44381336D02*
X66116200Y-44254336D01*
X66116200Y-44254336D02*
X66116200Y-40487600D01*
X66116200Y-40487600D02*
X65100200Y-39471600D01*
X65100200Y-39471600D02*
X62945200Y-39471600D01*
X62945200Y-39471600D02*
X62687200Y-39213600D01*
X62687200Y-39213600D02*
X62687200Y-37947600D01*
X62115700Y-66459100D02*
X61620726Y-66459100D01*
X60074401Y-65642899D02*
X60591700Y-65125600D01*
X61620726Y-66459100D02*
X61357427Y-66722399D01*
X61357427Y-66722399D02*
X60425401Y-66722399D01*
X64169298Y-53373610D02*
X62687200Y-51891512D01*
X60425401Y-66722399D02*
X60074401Y-66371399D01*
X65344201Y-63675099D02*
X65344201Y-54574601D01*
X64169298Y-53399698D02*
X64169298Y-53373610D01*
X60074401Y-66371399D02*
X60074401Y-65642899D01*
X63893700Y-65125600D02*
X65344201Y-63675099D01*
X60591700Y-65125600D02*
X63893700Y-65125600D01*
X62687200Y-51891512D02*
X62687200Y-49187100D01*
X65344201Y-54574601D02*
X64169298Y-53399698D01*
X62115700Y-66459100D02*
X62225199Y-66568599D01*
X68552699Y-67324601D02*
X68560201Y-67317099D01*
X62225199Y-66568599D02*
X65971699Y-66568599D01*
X65971699Y-66568599D02*
X66727701Y-67324601D01*
X66727701Y-67324601D02*
X68552699Y-67324601D01*
X68560201Y-67317099D02*
X68910200Y-66967100D01*
X62687200Y-45567600D02*
X62687200Y-49187100D01*
X62687200Y-49187100D02*
X62687200Y-49312690D01*
X62687200Y-45567600D02*
X62687200Y-44424600D01*
X66751200Y-44297600D02*
X66751200Y-39624000D01*
X67259200Y-44805600D02*
X66751200Y-44297600D01*
X65227200Y-37947600D02*
X65227200Y-38100000D01*
X65227200Y-38100000D02*
X66751200Y-39624000D01*
X70307200Y-37947600D02*
X70307200Y-41249600D01*
X70307200Y-41249600D02*
X70942200Y-41884600D01*
X71831200Y-61887100D02*
X71831200Y-59601100D01*
X71831200Y-59601100D02*
X72656700Y-58775600D01*
X72656700Y-58775600D02*
X72656700Y-53321520D01*
X72656700Y-53321520D02*
X72216689Y-52881509D01*
X72216689Y-52881509D02*
X72216689Y-48801611D01*
X72216689Y-48801611D02*
X72593200Y-48425100D01*
X72593200Y-48425100D02*
X72593200Y-43599100D01*
X72593200Y-43599100D02*
X72910700Y-43281600D01*
X74117200Y-50965100D02*
X73672700Y-50520600D01*
X73672700Y-50520600D02*
X73291700Y-50520600D01*
X74117200Y-58648600D02*
X74117200Y-50965100D01*
X74117200Y-61130978D02*
X74117200Y-58648600D01*
X74117200Y-65379600D02*
X74117200Y-61130978D01*
X73231220Y-66329080D02*
X72783700Y-66776600D01*
X74117200Y-65443100D02*
X73231220Y-66329080D01*
X74117200Y-65379600D02*
X74117200Y-65443100D01*
X69989700Y-71285100D02*
X69989700Y-71709364D01*
X69989700Y-71709364D02*
X69080464Y-72618600D01*
X69080464Y-72618600D02*
X62857464Y-72618600D01*
X62857464Y-72618600D02*
X62433200Y-72618600D01*
X61925200Y-72618600D02*
X57988200Y-76555600D01*
X57988200Y-76555600D02*
X57353200Y-76555600D01*
X62433200Y-72618600D02*
X61925200Y-72618600D01*
X56400700Y-75476100D02*
X56400700Y-72364600D01*
X56400700Y-72364600D02*
X57567199Y-71198101D01*
X57567199Y-71198101D02*
X57567199Y-64657601D01*
X63195200Y-53060600D02*
X62237190Y-52102590D01*
X60464700Y-64109600D02*
X60909200Y-63665100D01*
X57567199Y-64657601D02*
X58115200Y-64109600D01*
X58115200Y-64109600D02*
X60464700Y-64109600D01*
X60909200Y-63665100D02*
X60909200Y-59555152D01*
X60551699Y-41908099D02*
X58336701Y-39693101D01*
X63195200Y-58394600D02*
X63195200Y-53060600D01*
X60909200Y-59555152D02*
X61378762Y-59085590D01*
X61378762Y-59085590D02*
X62504210Y-59085590D01*
X58336701Y-35122599D02*
X58686700Y-34772600D01*
X62504210Y-59085590D02*
X63195200Y-58394600D01*
X62237190Y-49562590D02*
X60551699Y-47877099D01*
X62237190Y-52102590D02*
X62237190Y-49562590D01*
X60551699Y-47877099D02*
X60551699Y-41908099D01*
X58336701Y-39693101D02*
X58336701Y-35122599D01*
X88399190Y-64294590D02*
X87769700Y-64924080D01*
X87769700Y-64924080D02*
X87642700Y-65051080D01*
X83769200Y-66776600D02*
X84340700Y-66205100D01*
X84340700Y-66205100D02*
X86488680Y-66205100D01*
X86488680Y-66205100D02*
X87769700Y-64924080D01*
X97615061Y-70730992D02*
X97915060Y-70430993D01*
X97915060Y-70430993D02*
X98021807Y-70430993D01*
X98021807Y-70430993D02*
X98110201Y-70342599D01*
X98110201Y-70342599D02*
X98110201Y-65495191D01*
X98110201Y-65495191D02*
X96909600Y-64294590D01*
X96909600Y-64294590D02*
X88399190Y-64294590D01*
X83652199Y-66893601D02*
X83769200Y-66776600D01*
X77800200Y-66967100D02*
X83578700Y-66967100D01*
X83578700Y-66967100D02*
X83769200Y-66776600D01*
X96977200Y-70078600D02*
X97485200Y-69570600D01*
X96723200Y-64744600D02*
X88849200Y-64744600D01*
X88849200Y-64744600D02*
X86880700Y-66713100D01*
X84975700Y-66713100D02*
X84277200Y-67411600D01*
X97485200Y-69570600D02*
X97485200Y-65506600D01*
X86880700Y-66713100D02*
X84975700Y-66713100D01*
X97485200Y-65506600D02*
X96723200Y-64744600D01*
X84277200Y-67411600D02*
X84277200Y-71729600D01*
X84277200Y-71729600D02*
X83896200Y-72110600D01*
D26*
G36*
X105657200Y-32509380D02*
X105657200Y-55360833D01*
X105386484Y-55244921D01*
X104268805Y-56362600D01*
X105386484Y-57480279D01*
X105657200Y-57364367D01*
X105657200Y-80255600D01*
X97001545Y-80255600D01*
X97024735Y-80246018D01*
X97364425Y-79906920D01*
X97548490Y-79463641D01*
X97548909Y-78983665D01*
X97365618Y-78540065D01*
X97032734Y-78206600D01*
X100279200Y-78206600D01*
X100619406Y-78138929D01*
X100907818Y-77946218D01*
X102749319Y-76104717D01*
X102780802Y-76057600D01*
X102942030Y-75816305D01*
X103009701Y-75476099D01*
X103009701Y-74681846D01*
X103374735Y-74531018D01*
X103714425Y-74191920D01*
X103898490Y-73748641D01*
X103898909Y-73268665D01*
X103715618Y-72825065D01*
X103376520Y-72485375D01*
X102933241Y-72301310D01*
X102453265Y-72300891D01*
X102009665Y-72484182D01*
X101669975Y-72823280D01*
X101485910Y-73266559D01*
X101485741Y-73459972D01*
X101299372Y-73738893D01*
X101231701Y-74079099D01*
X101231701Y-75107863D01*
X99910964Y-76428600D01*
X93160436Y-76428600D01*
X92650436Y-75918600D01*
X93232589Y-75918600D01*
X93307014Y-75993155D01*
X93668912Y-76143428D01*
X94060769Y-76143770D01*
X94422929Y-75994129D01*
X94700255Y-75717286D01*
X94850528Y-75355388D01*
X94850870Y-74963531D01*
X94701229Y-74601371D01*
X94424386Y-74324045D01*
X94062488Y-74173772D01*
X93670631Y-74173430D01*
X93308471Y-74323071D01*
X93232810Y-74398600D01*
X91641200Y-74398600D01*
X91641200Y-72618600D01*
X91583348Y-72327761D01*
X91498491Y-72200762D01*
X91692429Y-72120629D01*
X91969755Y-71843786D01*
X92120028Y-71481888D01*
X92120370Y-71090031D01*
X91970729Y-70727871D01*
X91881485Y-70638471D01*
X91881485Y-68207152D01*
X91944735Y-68181018D01*
X92284425Y-67841920D01*
X92468490Y-67398641D01*
X92468491Y-67396535D01*
X93865491Y-67396535D01*
X94048782Y-67840135D01*
X94387880Y-68179825D01*
X94831159Y-68363890D01*
X95311135Y-68364309D01*
X95754735Y-68181018D01*
X96094425Y-67841920D01*
X96278490Y-67398641D01*
X96278909Y-66918665D01*
X96095618Y-66475065D01*
X95756520Y-66135375D01*
X95313241Y-65951310D01*
X94833265Y-65950891D01*
X94389665Y-66134182D01*
X94049975Y-66473280D01*
X93865910Y-66916559D01*
X93865491Y-67396535D01*
X92468491Y-67396535D01*
X92468909Y-66918665D01*
X92331497Y-66586100D01*
X92765557Y-66586100D01*
X92843412Y-66618428D01*
X93235269Y-66618770D01*
X93597429Y-66469129D01*
X93874755Y-66192286D01*
X94025028Y-65830388D01*
X94025312Y-65504600D01*
X96408398Y-65504600D01*
X96725200Y-65821402D01*
X96725200Y-69116953D01*
X96419971Y-69243071D01*
X96142645Y-69519914D01*
X95992372Y-69881812D01*
X95992030Y-70273669D01*
X96141671Y-70635829D01*
X96418514Y-70913155D01*
X96667231Y-71016431D01*
X96779532Y-71288221D01*
X97056375Y-71565547D01*
X97418273Y-71715820D01*
X97810130Y-71716162D01*
X98172290Y-71566521D01*
X98449616Y-71289678D01*
X98599889Y-70927780D01*
X98599889Y-70927713D01*
X98647602Y-70880000D01*
X98812349Y-70633438D01*
X98870201Y-70342599D01*
X98870201Y-65495191D01*
X98839713Y-65341919D01*
X98812349Y-65204351D01*
X98647602Y-64957790D01*
X97447001Y-63757189D01*
X97200439Y-63592442D01*
X96909600Y-63534590D01*
X88399190Y-63534590D01*
X88108350Y-63592442D01*
X87861789Y-63757189D01*
X86173878Y-65445100D01*
X84340700Y-65445100D01*
X84049861Y-65502952D01*
X83994200Y-65540143D01*
X83994200Y-65382712D01*
X84000499Y-58210190D01*
X85302090Y-58210190D01*
X85537407Y-58165912D01*
X85753531Y-58026840D01*
X85898521Y-57814640D01*
X85929859Y-57659884D01*
X102971521Y-57659884D01*
X103094674Y-57947512D01*
X103776897Y-58207456D01*
X104506666Y-58186538D01*
X105083726Y-57947512D01*
X105206879Y-57659884D01*
X104089200Y-56542205D01*
X102971521Y-57659884D01*
X85929859Y-57659884D01*
X85949530Y-57562750D01*
X85949530Y-56050297D01*
X102244344Y-56050297D01*
X102265262Y-56780066D01*
X102504288Y-57357126D01*
X102791916Y-57480279D01*
X103909595Y-56362600D01*
X102791916Y-55244921D01*
X102504288Y-55368074D01*
X102244344Y-56050297D01*
X85949530Y-56050297D01*
X85949530Y-55162450D01*
X85931253Y-55065316D01*
X102971521Y-55065316D01*
X104089200Y-56182995D01*
X105206879Y-55065316D01*
X105083726Y-54777688D01*
X104401503Y-54517744D01*
X103671734Y-54538662D01*
X103094674Y-54777688D01*
X102971521Y-55065316D01*
X85931253Y-55065316D01*
X85905252Y-54927133D01*
X85766180Y-54711009D01*
X85553980Y-54566019D01*
X85302090Y-54515010D01*
X84003744Y-54515010D01*
X84013198Y-43748139D01*
X85864403Y-43748139D01*
X86124870Y-44378517D01*
X86606746Y-44861235D01*
X87236669Y-45122802D01*
X87918739Y-45123397D01*
X88549117Y-44862930D01*
X89031835Y-44381054D01*
X89293402Y-43751131D01*
X89293861Y-43224646D01*
X98204759Y-43224646D01*
X98250752Y-43447133D01*
X98705055Y-43602005D01*
X99184044Y-43571233D01*
X99483648Y-43447133D01*
X99529641Y-43224646D01*
X98867200Y-42562205D01*
X98204759Y-43224646D01*
X89293861Y-43224646D01*
X89293997Y-43069061D01*
X89033530Y-42438683D01*
X88815683Y-42220455D01*
X97647795Y-42220455D01*
X97678567Y-42699444D01*
X97802667Y-42999048D01*
X98025154Y-43045041D01*
X98687595Y-42382600D01*
X99046805Y-42382600D01*
X99709246Y-43045041D01*
X99931733Y-42999048D01*
X100086605Y-42544745D01*
X100055833Y-42065756D01*
X99931733Y-41766152D01*
X99709246Y-41720159D01*
X99046805Y-42382600D01*
X98687595Y-42382600D01*
X98025154Y-41720159D01*
X97802667Y-41766152D01*
X97647795Y-42220455D01*
X88815683Y-42220455D01*
X88551654Y-41955965D01*
X87921731Y-41694398D01*
X87239661Y-41693803D01*
X86609283Y-41954270D01*
X86126565Y-42436146D01*
X85864998Y-43066069D01*
X85864403Y-43748139D01*
X84013198Y-43748139D01*
X84015136Y-41540554D01*
X98204759Y-41540554D01*
X98867200Y-42202995D01*
X99529641Y-41540554D01*
X99483648Y-41318067D01*
X99029345Y-41163195D01*
X98550356Y-41193967D01*
X98250752Y-41318067D01*
X98204759Y-41540554D01*
X84015136Y-41540554D01*
X84016773Y-39676377D01*
X86411028Y-39676377D01*
X86542720Y-39971257D01*
X87250236Y-40242861D01*
X88007832Y-40223036D01*
X88615680Y-39971257D01*
X88747372Y-39676377D01*
X87579200Y-38508205D01*
X86411028Y-39676377D01*
X84016773Y-39676377D01*
X84018246Y-37999636D01*
X85664939Y-37999636D01*
X85684764Y-38757232D01*
X85936543Y-39365080D01*
X86231423Y-39496772D01*
X87399595Y-38328600D01*
X87758805Y-38328600D01*
X88926977Y-39496772D01*
X89221857Y-39365080D01*
X89493461Y-38657564D01*
X89473636Y-37899968D01*
X89221857Y-37292120D01*
X88926977Y-37160428D01*
X87758805Y-38328600D01*
X87399595Y-38328600D01*
X86231423Y-37160428D01*
X85936543Y-37292120D01*
X85664939Y-37999636D01*
X84018246Y-37999636D01*
X84018880Y-37278149D01*
X84104117Y-37242930D01*
X84366681Y-36980823D01*
X86411028Y-36980823D01*
X87579200Y-38148995D01*
X88747372Y-36980823D01*
X88615680Y-36685943D01*
X87908164Y-36414339D01*
X87150568Y-36434164D01*
X86542720Y-36685943D01*
X86411028Y-36980823D01*
X84366681Y-36980823D01*
X84586835Y-36761054D01*
X84848402Y-36131131D01*
X84848404Y-36128139D01*
X90309403Y-36128139D01*
X90569870Y-36758517D01*
X91051746Y-37241235D01*
X91681669Y-37502802D01*
X92363739Y-37503397D01*
X92994117Y-37242930D01*
X93476835Y-36761054D01*
X93738402Y-36131131D01*
X93738997Y-35449061D01*
X93478530Y-34818683D01*
X93037154Y-34376535D01*
X95135491Y-34376535D01*
X95318782Y-34820135D01*
X95657880Y-35159825D01*
X96101159Y-35343890D01*
X96581135Y-35344309D01*
X97024735Y-35161018D01*
X97364425Y-34821920D01*
X97548490Y-34378641D01*
X97548909Y-33898665D01*
X97365618Y-33455065D01*
X97026520Y-33115375D01*
X96583241Y-32931310D01*
X96103265Y-32930891D01*
X95659665Y-33114182D01*
X95319975Y-33453280D01*
X95135910Y-33896559D01*
X95135491Y-34376535D01*
X93037154Y-34376535D01*
X92996654Y-34335965D01*
X92366731Y-34074398D01*
X91684661Y-34073803D01*
X91054283Y-34334270D01*
X90571565Y-34816146D01*
X90309998Y-35446069D01*
X90309403Y-36128139D01*
X84848404Y-36128139D01*
X84848997Y-35449061D01*
X84588530Y-34818683D01*
X84106654Y-34335965D01*
X84021495Y-34300604D01*
X84023088Y-32486733D01*
X105657200Y-32509380D01*
X105657200Y-32509380D01*
G37*
X105657200Y-32509380D02*
X105657200Y-55360833D01*
X105386484Y-55244921D01*
X104268805Y-56362600D01*
X105386484Y-57480279D01*
X105657200Y-57364367D01*
X105657200Y-80255600D01*
X97001545Y-80255600D01*
X97024735Y-80246018D01*
X97364425Y-79906920D01*
X97548490Y-79463641D01*
X97548909Y-78983665D01*
X97365618Y-78540065D01*
X97032734Y-78206600D01*
X100279200Y-78206600D01*
X100619406Y-78138929D01*
X100907818Y-77946218D01*
X102749319Y-76104717D01*
X102780802Y-76057600D01*
X102942030Y-75816305D01*
X103009701Y-75476099D01*
X103009701Y-74681846D01*
X103374735Y-74531018D01*
X103714425Y-74191920D01*
X103898490Y-73748641D01*
X103898909Y-73268665D01*
X103715618Y-72825065D01*
X103376520Y-72485375D01*
X102933241Y-72301310D01*
X102453265Y-72300891D01*
X102009665Y-72484182D01*
X101669975Y-72823280D01*
X101485910Y-73266559D01*
X101485741Y-73459972D01*
X101299372Y-73738893D01*
X101231701Y-74079099D01*
X101231701Y-75107863D01*
X99910964Y-76428600D01*
X93160436Y-76428600D01*
X92650436Y-75918600D01*
X93232589Y-75918600D01*
X93307014Y-75993155D01*
X93668912Y-76143428D01*
X94060769Y-76143770D01*
X94422929Y-75994129D01*
X94700255Y-75717286D01*
X94850528Y-75355388D01*
X94850870Y-74963531D01*
X94701229Y-74601371D01*
X94424386Y-74324045D01*
X94062488Y-74173772D01*
X93670631Y-74173430D01*
X93308471Y-74323071D01*
X93232810Y-74398600D01*
X91641200Y-74398600D01*
X91641200Y-72618600D01*
X91583348Y-72327761D01*
X91498491Y-72200762D01*
X91692429Y-72120629D01*
X91969755Y-71843786D01*
X92120028Y-71481888D01*
X92120370Y-71090031D01*
X91970729Y-70727871D01*
X91881485Y-70638471D01*
X91881485Y-68207152D01*
X91944735Y-68181018D01*
X92284425Y-67841920D01*
X92468490Y-67398641D01*
X92468491Y-67396535D01*
X93865491Y-67396535D01*
X94048782Y-67840135D01*
X94387880Y-68179825D01*
X94831159Y-68363890D01*
X95311135Y-68364309D01*
X95754735Y-68181018D01*
X96094425Y-67841920D01*
X96278490Y-67398641D01*
X96278909Y-66918665D01*
X96095618Y-66475065D01*
X95756520Y-66135375D01*
X95313241Y-65951310D01*
X94833265Y-65950891D01*
X94389665Y-66134182D01*
X94049975Y-66473280D01*
X93865910Y-66916559D01*
X93865491Y-67396535D01*
X92468491Y-67396535D01*
X92468909Y-66918665D01*
X92331497Y-66586100D01*
X92765557Y-66586100D01*
X92843412Y-66618428D01*
X93235269Y-66618770D01*
X93597429Y-66469129D01*
X93874755Y-66192286D01*
X94025028Y-65830388D01*
X94025312Y-65504600D01*
X96408398Y-65504600D01*
X96725200Y-65821402D01*
X96725200Y-69116953D01*
X96419971Y-69243071D01*
X96142645Y-69519914D01*
X95992372Y-69881812D01*
X95992030Y-70273669D01*
X96141671Y-70635829D01*
X96418514Y-70913155D01*
X96667231Y-71016431D01*
X96779532Y-71288221D01*
X97056375Y-71565547D01*
X97418273Y-71715820D01*
X97810130Y-71716162D01*
X98172290Y-71566521D01*
X98449616Y-71289678D01*
X98599889Y-70927780D01*
X98599889Y-70927713D01*
X98647602Y-70880000D01*
X98812349Y-70633438D01*
X98870201Y-70342599D01*
X98870201Y-65495191D01*
X98839713Y-65341919D01*
X98812349Y-65204351D01*
X98647602Y-64957790D01*
X97447001Y-63757189D01*
X97200439Y-63592442D01*
X96909600Y-63534590D01*
X88399190Y-63534590D01*
X88108350Y-63592442D01*
X87861789Y-63757189D01*
X86173878Y-65445100D01*
X84340700Y-65445100D01*
X84049861Y-65502952D01*
X83994200Y-65540143D01*
X83994200Y-65382712D01*
X84000499Y-58210190D01*
X85302090Y-58210190D01*
X85537407Y-58165912D01*
X85753531Y-58026840D01*
X85898521Y-57814640D01*
X85929859Y-57659884D01*
X102971521Y-57659884D01*
X103094674Y-57947512D01*
X103776897Y-58207456D01*
X104506666Y-58186538D01*
X105083726Y-57947512D01*
X105206879Y-57659884D01*
X104089200Y-56542205D01*
X102971521Y-57659884D01*
X85929859Y-57659884D01*
X85949530Y-57562750D01*
X85949530Y-56050297D01*
X102244344Y-56050297D01*
X102265262Y-56780066D01*
X102504288Y-57357126D01*
X102791916Y-57480279D01*
X103909595Y-56362600D01*
X102791916Y-55244921D01*
X102504288Y-55368074D01*
X102244344Y-56050297D01*
X85949530Y-56050297D01*
X85949530Y-55162450D01*
X85931253Y-55065316D01*
X102971521Y-55065316D01*
X104089200Y-56182995D01*
X105206879Y-55065316D01*
X105083726Y-54777688D01*
X104401503Y-54517744D01*
X103671734Y-54538662D01*
X103094674Y-54777688D01*
X102971521Y-55065316D01*
X85931253Y-55065316D01*
X85905252Y-54927133D01*
X85766180Y-54711009D01*
X85553980Y-54566019D01*
X85302090Y-54515010D01*
X84003744Y-54515010D01*
X84013198Y-43748139D01*
X85864403Y-43748139D01*
X86124870Y-44378517D01*
X86606746Y-44861235D01*
X87236669Y-45122802D01*
X87918739Y-45123397D01*
X88549117Y-44862930D01*
X89031835Y-44381054D01*
X89293402Y-43751131D01*
X89293861Y-43224646D01*
X98204759Y-43224646D01*
X98250752Y-43447133D01*
X98705055Y-43602005D01*
X99184044Y-43571233D01*
X99483648Y-43447133D01*
X99529641Y-43224646D01*
X98867200Y-42562205D01*
X98204759Y-43224646D01*
X89293861Y-43224646D01*
X89293997Y-43069061D01*
X89033530Y-42438683D01*
X88815683Y-42220455D01*
X97647795Y-42220455D01*
X97678567Y-42699444D01*
X97802667Y-42999048D01*
X98025154Y-43045041D01*
X98687595Y-42382600D01*
X99046805Y-42382600D01*
X99709246Y-43045041D01*
X99931733Y-42999048D01*
X100086605Y-42544745D01*
X100055833Y-42065756D01*
X99931733Y-41766152D01*
X99709246Y-41720159D01*
X99046805Y-42382600D01*
X98687595Y-42382600D01*
X98025154Y-41720159D01*
X97802667Y-41766152D01*
X97647795Y-42220455D01*
X88815683Y-42220455D01*
X88551654Y-41955965D01*
X87921731Y-41694398D01*
X87239661Y-41693803D01*
X86609283Y-41954270D01*
X86126565Y-42436146D01*
X85864998Y-43066069D01*
X85864403Y-43748139D01*
X84013198Y-43748139D01*
X84015136Y-41540554D01*
X98204759Y-41540554D01*
X98867200Y-42202995D01*
X99529641Y-41540554D01*
X99483648Y-41318067D01*
X99029345Y-41163195D01*
X98550356Y-41193967D01*
X98250752Y-41318067D01*
X98204759Y-41540554D01*
X84015136Y-41540554D01*
X84016773Y-39676377D01*
X86411028Y-39676377D01*
X86542720Y-39971257D01*
X87250236Y-40242861D01*
X88007832Y-40223036D01*
X88615680Y-39971257D01*
X88747372Y-39676377D01*
X87579200Y-38508205D01*
X86411028Y-39676377D01*
X84016773Y-39676377D01*
X84018246Y-37999636D01*
X85664939Y-37999636D01*
X85684764Y-38757232D01*
X85936543Y-39365080D01*
X86231423Y-39496772D01*
X87399595Y-38328600D01*
X87758805Y-38328600D01*
X88926977Y-39496772D01*
X89221857Y-39365080D01*
X89493461Y-38657564D01*
X89473636Y-37899968D01*
X89221857Y-37292120D01*
X88926977Y-37160428D01*
X87758805Y-38328600D01*
X87399595Y-38328600D01*
X86231423Y-37160428D01*
X85936543Y-37292120D01*
X85664939Y-37999636D01*
X84018246Y-37999636D01*
X84018880Y-37278149D01*
X84104117Y-37242930D01*
X84366681Y-36980823D01*
X86411028Y-36980823D01*
X87579200Y-38148995D01*
X88747372Y-36980823D01*
X88615680Y-36685943D01*
X87908164Y-36414339D01*
X87150568Y-36434164D01*
X86542720Y-36685943D01*
X86411028Y-36980823D01*
X84366681Y-36980823D01*
X84586835Y-36761054D01*
X84848402Y-36131131D01*
X84848404Y-36128139D01*
X90309403Y-36128139D01*
X90569870Y-36758517D01*
X91051746Y-37241235D01*
X91681669Y-37502802D01*
X92363739Y-37503397D01*
X92994117Y-37242930D01*
X93476835Y-36761054D01*
X93738402Y-36131131D01*
X93738997Y-35449061D01*
X93478530Y-34818683D01*
X93037154Y-34376535D01*
X95135491Y-34376535D01*
X95318782Y-34820135D01*
X95657880Y-35159825D01*
X96101159Y-35343890D01*
X96581135Y-35344309D01*
X97024735Y-35161018D01*
X97364425Y-34821920D01*
X97548490Y-34378641D01*
X97548909Y-33898665D01*
X97365618Y-33455065D01*
X97026520Y-33115375D01*
X96583241Y-32931310D01*
X96103265Y-32930891D01*
X95659665Y-33114182D01*
X95319975Y-33453280D01*
X95135910Y-33896559D01*
X95135491Y-34376535D01*
X93037154Y-34376535D01*
X92996654Y-34335965D01*
X92366731Y-34074398D01*
X91684661Y-34073803D01*
X91054283Y-34334270D01*
X90571565Y-34816146D01*
X90309998Y-35446069D01*
X90309403Y-36128139D01*
X84848404Y-36128139D01*
X84848997Y-35449061D01*
X84588530Y-34818683D01*
X84106654Y-34335965D01*
X84021495Y-34300604D01*
X84023088Y-32486733D01*
X105657200Y-32509380D01*
G36*
X64224014Y-69071655D02*
X64585912Y-69221928D01*
X64977769Y-69222270D01*
X65339929Y-69072629D01*
X65413586Y-68999100D01*
X68007662Y-68999100D01*
X68363681Y-69355119D01*
X68672694Y-69561595D01*
X69037200Y-69634100D01*
X75133200Y-69634100D01*
X75497706Y-69561595D01*
X75806719Y-69355119D01*
X76031092Y-69130746D01*
X76325429Y-69009129D01*
X76335475Y-68999100D01*
X79451200Y-68999100D01*
X79451200Y-77571600D01*
X79518871Y-77911806D01*
X79710890Y-78199182D01*
X79711582Y-78200218D01*
X80679246Y-79167882D01*
X80774671Y-79398829D01*
X81051514Y-79676155D01*
X81413412Y-79826428D01*
X81805269Y-79826770D01*
X82167429Y-79677129D01*
X82444755Y-79400286D01*
X82595028Y-79038388D01*
X82595370Y-78646531D01*
X82445729Y-78284371D01*
X82168886Y-78007045D01*
X81936305Y-77910469D01*
X81229200Y-77203364D01*
X81229200Y-77186486D01*
X81432514Y-77390155D01*
X81794412Y-77540428D01*
X82186269Y-77540770D01*
X82548429Y-77391129D01*
X82740200Y-77199692D01*
X82740200Y-88172600D01*
X53449881Y-88172600D01*
X53449376Y-88170060D01*
X53411640Y-88078957D01*
X53343363Y-87914120D01*
X53018203Y-87427485D01*
X52822315Y-87231597D01*
X52335680Y-86906438D01*
X52335678Y-86906437D01*
X52079740Y-86800424D01*
X52077200Y-86799919D01*
X52077200Y-83100669D01*
X68814030Y-83100669D01*
X68963671Y-83462829D01*
X69240514Y-83740155D01*
X69602412Y-83890428D01*
X69994269Y-83890770D01*
X70356429Y-83741129D01*
X70633755Y-83464286D01*
X70784028Y-83102388D01*
X70784121Y-82995481D01*
X70844601Y-82935001D01*
X70864246Y-82905600D01*
X71009348Y-82688439D01*
X71067200Y-82397600D01*
X71067200Y-81288943D01*
X71182880Y-81404825D01*
X71626159Y-81588890D01*
X72106135Y-81589309D01*
X72549735Y-81406018D01*
X72889425Y-81066920D01*
X73073490Y-80623641D01*
X73073909Y-80143665D01*
X72890618Y-79700065D01*
X72551520Y-79360375D01*
X72108241Y-79176310D01*
X71628265Y-79175891D01*
X71184665Y-79359182D01*
X71067200Y-79476442D01*
X71067200Y-78141211D01*
X71141755Y-78066786D01*
X71292028Y-77704888D01*
X71292370Y-77313031D01*
X71142729Y-76950871D01*
X70865886Y-76673545D01*
X70503988Y-76523272D01*
X70112131Y-76522930D01*
X69749971Y-76672571D01*
X69472645Y-76949414D01*
X69322372Y-77311312D01*
X69322030Y-77703169D01*
X69471671Y-78065329D01*
X69547200Y-78140990D01*
X69547200Y-81943953D01*
X69241971Y-82070071D01*
X68964645Y-82346914D01*
X68814372Y-82708812D01*
X68814030Y-83100669D01*
X52077200Y-83100669D01*
X52077200Y-79461535D01*
X60210491Y-79461535D01*
X60393782Y-79905135D01*
X60732880Y-80244825D01*
X61176159Y-80428890D01*
X61656135Y-80429309D01*
X62099735Y-80246018D01*
X62439425Y-79906920D01*
X62623490Y-79463641D01*
X62623909Y-78983665D01*
X62440618Y-78540065D01*
X62101520Y-78200375D01*
X61658241Y-78016310D01*
X61178265Y-78015891D01*
X60734665Y-78199182D01*
X60394975Y-78538280D01*
X60210910Y-78981559D01*
X60210491Y-79461535D01*
X52077200Y-79461535D01*
X52077200Y-70509600D01*
X56099189Y-70509600D01*
X56099189Y-70583375D01*
X54748917Y-71933647D01*
X54517970Y-72029072D01*
X54240644Y-72305915D01*
X54090371Y-72667813D01*
X54090029Y-73059670D01*
X54239670Y-73421830D01*
X54516513Y-73699156D01*
X54878411Y-73849429D01*
X55270268Y-73849771D01*
X55632428Y-73700130D01*
X55640700Y-73691872D01*
X55640700Y-74842989D01*
X55566145Y-74917414D01*
X55415872Y-75279312D01*
X55415530Y-75671169D01*
X55565171Y-76033329D01*
X55842014Y-76310655D01*
X56203912Y-76460928D01*
X56368283Y-76461071D01*
X56368030Y-76750669D01*
X56517671Y-77112829D01*
X56794514Y-77390155D01*
X57156412Y-77540428D01*
X57548269Y-77540770D01*
X57910429Y-77391129D01*
X57986090Y-77315600D01*
X57988200Y-77315600D01*
X58279039Y-77257748D01*
X58525601Y-77093001D01*
X62080086Y-73538516D01*
X62236412Y-73603428D01*
X62369239Y-73603544D01*
X62004665Y-73754182D01*
X61664975Y-74093280D01*
X61480910Y-74536559D01*
X61480491Y-75016535D01*
X61663782Y-75460135D01*
X62002880Y-75799825D01*
X62446159Y-75983890D01*
X62926135Y-75984309D01*
X63369735Y-75801018D01*
X63709425Y-75461920D01*
X63893490Y-75018641D01*
X63893909Y-74538665D01*
X63710618Y-74095065D01*
X63371520Y-73755375D01*
X62928241Y-73571310D01*
X62707295Y-73571117D01*
X62990429Y-73454129D01*
X63066090Y-73378600D01*
X69080464Y-73378600D01*
X69371303Y-73320748D01*
X69617865Y-73156001D01*
X70527101Y-72246765D01*
X70691848Y-72000203D01*
X70697864Y-71969956D01*
X70824255Y-71843786D01*
X70974528Y-71481888D01*
X70974584Y-71416669D01*
X75037030Y-71416669D01*
X75186671Y-71778829D01*
X75262200Y-71854490D01*
X75262200Y-72048989D01*
X75187645Y-72123414D01*
X75037372Y-72485312D01*
X75037030Y-72877169D01*
X75186671Y-73239329D01*
X75463514Y-73516655D01*
X75825412Y-73666928D01*
X76217269Y-73667270D01*
X76579429Y-73517629D01*
X76856755Y-73240786D01*
X77007028Y-72878888D01*
X77007370Y-72487031D01*
X76857729Y-72124871D01*
X76782200Y-72049210D01*
X76782200Y-71854711D01*
X76856755Y-71780286D01*
X77007028Y-71418388D01*
X77007370Y-71026531D01*
X76857729Y-70664371D01*
X76580886Y-70387045D01*
X76218988Y-70236772D01*
X75827131Y-70236430D01*
X75464971Y-70386071D01*
X75187645Y-70662914D01*
X75037372Y-71024812D01*
X75037030Y-71416669D01*
X70974584Y-71416669D01*
X70974870Y-71090031D01*
X70825229Y-70727871D01*
X70548386Y-70450545D01*
X70186488Y-70300272D01*
X69794631Y-70299930D01*
X69432471Y-70449571D01*
X69155145Y-70726414D01*
X69004872Y-71088312D01*
X69004530Y-71480169D01*
X69045336Y-71578926D01*
X68765662Y-71858600D01*
X63066311Y-71858600D01*
X62991886Y-71784045D01*
X62629988Y-71633772D01*
X62238131Y-71633430D01*
X61875971Y-71783071D01*
X61769232Y-71889624D01*
X61634361Y-71916452D01*
X61387799Y-72081199D01*
X57796052Y-75672946D01*
X57549988Y-75570772D01*
X57385617Y-75570629D01*
X57385870Y-75281031D01*
X57236229Y-74918871D01*
X57160700Y-74843210D01*
X57160700Y-73951774D01*
X57572055Y-74092005D01*
X58051044Y-74061233D01*
X58350648Y-73937133D01*
X58396641Y-73714646D01*
X57734200Y-73052205D01*
X57720058Y-73066348D01*
X57540453Y-72886743D01*
X57554595Y-72872600D01*
X57913805Y-72872600D01*
X58576246Y-73535041D01*
X58798733Y-73489048D01*
X58953605Y-73034745D01*
X58922833Y-72555756D01*
X58798733Y-72256152D01*
X58576246Y-72210159D01*
X57913805Y-72872600D01*
X57554595Y-72872600D01*
X57540453Y-72858458D01*
X57720058Y-72678853D01*
X57734200Y-72692995D01*
X58396641Y-72030554D01*
X58350648Y-71808067D01*
X58110757Y-71726288D01*
X58269347Y-71488940D01*
X58327199Y-71198101D01*
X58327199Y-70509600D01*
X59867200Y-70509600D01*
X59916610Y-70499594D01*
X59958235Y-70471153D01*
X59985515Y-70428759D01*
X59994190Y-70381031D01*
X59977112Y-68999100D01*
X64151585Y-68999100D01*
X64224014Y-69071655D01*
X64224014Y-69071655D01*
G37*
X64224014Y-69071655D02*
X64585912Y-69221928D01*
X64977769Y-69222270D01*
X65339929Y-69072629D01*
X65413586Y-68999100D01*
X68007662Y-68999100D01*
X68363681Y-69355119D01*
X68672694Y-69561595D01*
X69037200Y-69634100D01*
X75133200Y-69634100D01*
X75497706Y-69561595D01*
X75806719Y-69355119D01*
X76031092Y-69130746D01*
X76325429Y-69009129D01*
X76335475Y-68999100D01*
X79451200Y-68999100D01*
X79451200Y-77571600D01*
X79518871Y-77911806D01*
X79710890Y-78199182D01*
X79711582Y-78200218D01*
X80679246Y-79167882D01*
X80774671Y-79398829D01*
X81051514Y-79676155D01*
X81413412Y-79826428D01*
X81805269Y-79826770D01*
X82167429Y-79677129D01*
X82444755Y-79400286D01*
X82595028Y-79038388D01*
X82595370Y-78646531D01*
X82445729Y-78284371D01*
X82168886Y-78007045D01*
X81936305Y-77910469D01*
X81229200Y-77203364D01*
X81229200Y-77186486D01*
X81432514Y-77390155D01*
X81794412Y-77540428D01*
X82186269Y-77540770D01*
X82548429Y-77391129D01*
X82740200Y-77199692D01*
X82740200Y-88172600D01*
X53449881Y-88172600D01*
X53449376Y-88170060D01*
X53411640Y-88078957D01*
X53343363Y-87914120D01*
X53018203Y-87427485D01*
X52822315Y-87231597D01*
X52335680Y-86906438D01*
X52335678Y-86906437D01*
X52079740Y-86800424D01*
X52077200Y-86799919D01*
X52077200Y-83100669D01*
X68814030Y-83100669D01*
X68963671Y-83462829D01*
X69240514Y-83740155D01*
X69602412Y-83890428D01*
X69994269Y-83890770D01*
X70356429Y-83741129D01*
X70633755Y-83464286D01*
X70784028Y-83102388D01*
X70784121Y-82995481D01*
X70844601Y-82935001D01*
X70864246Y-82905600D01*
X71009348Y-82688439D01*
X71067200Y-82397600D01*
X71067200Y-81288943D01*
X71182880Y-81404825D01*
X71626159Y-81588890D01*
X72106135Y-81589309D01*
X72549735Y-81406018D01*
X72889425Y-81066920D01*
X73073490Y-80623641D01*
X73073909Y-80143665D01*
X72890618Y-79700065D01*
X72551520Y-79360375D01*
X72108241Y-79176310D01*
X71628265Y-79175891D01*
X71184665Y-79359182D01*
X71067200Y-79476442D01*
X71067200Y-78141211D01*
X71141755Y-78066786D01*
X71292028Y-77704888D01*
X71292370Y-77313031D01*
X71142729Y-76950871D01*
X70865886Y-76673545D01*
X70503988Y-76523272D01*
X70112131Y-76522930D01*
X69749971Y-76672571D01*
X69472645Y-76949414D01*
X69322372Y-77311312D01*
X69322030Y-77703169D01*
X69471671Y-78065329D01*
X69547200Y-78140990D01*
X69547200Y-81943953D01*
X69241971Y-82070071D01*
X68964645Y-82346914D01*
X68814372Y-82708812D01*
X68814030Y-83100669D01*
X52077200Y-83100669D01*
X52077200Y-79461535D01*
X60210491Y-79461535D01*
X60393782Y-79905135D01*
X60732880Y-80244825D01*
X61176159Y-80428890D01*
X61656135Y-80429309D01*
X62099735Y-80246018D01*
X62439425Y-79906920D01*
X62623490Y-79463641D01*
X62623909Y-78983665D01*
X62440618Y-78540065D01*
X62101520Y-78200375D01*
X61658241Y-78016310D01*
X61178265Y-78015891D01*
X60734665Y-78199182D01*
X60394975Y-78538280D01*
X60210910Y-78981559D01*
X60210491Y-79461535D01*
X52077200Y-79461535D01*
X52077200Y-70509600D01*
X56099189Y-70509600D01*
X56099189Y-70583375D01*
X54748917Y-71933647D01*
X54517970Y-72029072D01*
X54240644Y-72305915D01*
X54090371Y-72667813D01*
X54090029Y-73059670D01*
X54239670Y-73421830D01*
X54516513Y-73699156D01*
X54878411Y-73849429D01*
X55270268Y-73849771D01*
X55632428Y-73700130D01*
X55640700Y-73691872D01*
X55640700Y-74842989D01*
X55566145Y-74917414D01*
X55415872Y-75279312D01*
X55415530Y-75671169D01*
X55565171Y-76033329D01*
X55842014Y-76310655D01*
X56203912Y-76460928D01*
X56368283Y-76461071D01*
X56368030Y-76750669D01*
X56517671Y-77112829D01*
X56794514Y-77390155D01*
X57156412Y-77540428D01*
X57548269Y-77540770D01*
X57910429Y-77391129D01*
X57986090Y-77315600D01*
X57988200Y-77315600D01*
X58279039Y-77257748D01*
X58525601Y-77093001D01*
X62080086Y-73538516D01*
X62236412Y-73603428D01*
X62369239Y-73603544D01*
X62004665Y-73754182D01*
X61664975Y-74093280D01*
X61480910Y-74536559D01*
X61480491Y-75016535D01*
X61663782Y-75460135D01*
X62002880Y-75799825D01*
X62446159Y-75983890D01*
X62926135Y-75984309D01*
X63369735Y-75801018D01*
X63709425Y-75461920D01*
X63893490Y-75018641D01*
X63893909Y-74538665D01*
X63710618Y-74095065D01*
X63371520Y-73755375D01*
X62928241Y-73571310D01*
X62707295Y-73571117D01*
X62990429Y-73454129D01*
X63066090Y-73378600D01*
X69080464Y-73378600D01*
X69371303Y-73320748D01*
X69617865Y-73156001D01*
X70527101Y-72246765D01*
X70691848Y-72000203D01*
X70697864Y-71969956D01*
X70824255Y-71843786D01*
X70974528Y-71481888D01*
X70974584Y-71416669D01*
X75037030Y-71416669D01*
X75186671Y-71778829D01*
X75262200Y-71854490D01*
X75262200Y-72048989D01*
X75187645Y-72123414D01*
X75037372Y-72485312D01*
X75037030Y-72877169D01*
X75186671Y-73239329D01*
X75463514Y-73516655D01*
X75825412Y-73666928D01*
X76217269Y-73667270D01*
X76579429Y-73517629D01*
X76856755Y-73240786D01*
X77007028Y-72878888D01*
X77007370Y-72487031D01*
X76857729Y-72124871D01*
X76782200Y-72049210D01*
X76782200Y-71854711D01*
X76856755Y-71780286D01*
X77007028Y-71418388D01*
X77007370Y-71026531D01*
X76857729Y-70664371D01*
X76580886Y-70387045D01*
X76218988Y-70236772D01*
X75827131Y-70236430D01*
X75464971Y-70386071D01*
X75187645Y-70662914D01*
X75037372Y-71024812D01*
X75037030Y-71416669D01*
X70974584Y-71416669D01*
X70974870Y-71090031D01*
X70825229Y-70727871D01*
X70548386Y-70450545D01*
X70186488Y-70300272D01*
X69794631Y-70299930D01*
X69432471Y-70449571D01*
X69155145Y-70726414D01*
X69004872Y-71088312D01*
X69004530Y-71480169D01*
X69045336Y-71578926D01*
X68765662Y-71858600D01*
X63066311Y-71858600D01*
X62991886Y-71784045D01*
X62629988Y-71633772D01*
X62238131Y-71633430D01*
X61875971Y-71783071D01*
X61769232Y-71889624D01*
X61634361Y-71916452D01*
X61387799Y-72081199D01*
X57796052Y-75672946D01*
X57549988Y-75570772D01*
X57385617Y-75570629D01*
X57385870Y-75281031D01*
X57236229Y-74918871D01*
X57160700Y-74843210D01*
X57160700Y-73951774D01*
X57572055Y-74092005D01*
X58051044Y-74061233D01*
X58350648Y-73937133D01*
X58396641Y-73714646D01*
X57734200Y-73052205D01*
X57720058Y-73066348D01*
X57540453Y-72886743D01*
X57554595Y-72872600D01*
X57913805Y-72872600D01*
X58576246Y-73535041D01*
X58798733Y-73489048D01*
X58953605Y-73034745D01*
X58922833Y-72555756D01*
X58798733Y-72256152D01*
X58576246Y-72210159D01*
X57913805Y-72872600D01*
X57554595Y-72872600D01*
X57540453Y-72858458D01*
X57720058Y-72678853D01*
X57734200Y-72692995D01*
X58396641Y-72030554D01*
X58350648Y-71808067D01*
X58110757Y-71726288D01*
X58269347Y-71488940D01*
X58327199Y-71198101D01*
X58327199Y-70509600D01*
X59867200Y-70509600D01*
X59916610Y-70499594D01*
X59958235Y-70471153D01*
X59985515Y-70428759D01*
X59994190Y-70381031D01*
X59977112Y-68999100D01*
X64151585Y-68999100D01*
X64224014Y-69071655D01*
M02*
